<svg width="60" height="60" viewBox="0 0 60 60" fill="none" xmlns="http://www.w3.org/2000/svg">
<rect width="60" height="60" fill="#4054B2"/>
<path d="M25.5964 10C23.4387 10 21.6876 11.713 21.6876 13.8238C21.6876 14.5194 21.8791 15.1735 22.2114 15.7357L22.822 24.3229C23.1697 29.2063 23.4567 33.2061 23.4581 33.2101C23.4596 33.2141 26.3784 33.2176 29.9445 33.2176H36.4284L39.0343 39.3432C40.4672 42.7119 41.6636 45.5242 41.6937 45.5937C41.7333 45.6847 41.7612 45.7158 41.7959 45.7061C48.2554 44.7326 51.8667 38.4277 43.7503 41.8199C43.7376 41.8197 42.5758 39.149 41.1674 35.8842C39.7591 32.6195 38.5967 29.937 38.5846 29.9237C38.5642 29.9012 30.4338 29.9402 27.7194 29.9761L26.5135 29.9936L26.4496 29.069C26.4135 28.561 26.3747 28.0502 26.3653 27.9343L26.35 27.7243H30.7135H35.0796V26.0674V24.4104H30.5449H26.0103V24.3379C26.0103 24.2393 25.6883 18.4781 25.6372 17.6501C27.7762 17.6286 29.5051 15.9213 29.5051 13.8238C29.5051 11.713 27.7541 10 25.5964 10ZM21.5727 25.0527L21.2023 25.2377C18.6436 26.5237 16.5542 28.6518 15.2906 31.2557C14.6238 32.6299 14.2106 34.0677 14.0388 35.6143C13.987 36.0805 13.9871 37.732 14.0388 38.201C14.0599 38.3929 14.1152 38.7761 14.1614 39.0533C14.9519 43.7928 18.3411 47.7608 22.9088 49.29C23.9078 49.6244 24.9247 49.8295 26.0537 49.9273C26.4926 49.9653 27.9308 49.9409 28.3708 49.8873C29.4451 49.7563 30.289 49.5627 31.2551 49.225C34.3497 48.1433 36.9952 45.8907 38.5208 43.0395L38.6689 42.7646L37.5321 40.4328C36.9077 39.1502 36.3907 38.1012 36.3824 38.1011C36.3742 38.1008 36.3441 38.2485 36.316 38.4309C36.2218 39.0438 36.0021 39.8308 35.7514 40.4528C34.91 42.5412 33.2555 44.3488 31.2678 45.3512C30.5254 45.7257 30.0275 45.9228 29.3927 46.091C26.7877 46.7812 24.0197 46.3257 21.7873 44.8414C21.208 44.4563 20.8017 44.123 20.3158 43.6368C18.9176 42.2376 18.0353 40.5685 17.6691 38.6234C17.5574 38.0305 17.5344 37.7303 17.5362 36.8639C17.5378 36.1432 17.5473 35.9597 17.6026 35.5994C17.9026 33.6455 18.6671 31.996 19.9428 30.5434C20.3992 30.0238 21.0694 29.4327 21.6263 29.0614C21.7578 28.9738 21.8665 28.883 21.8665 28.859C21.8665 28.7834 21.6084 25.3617 21.5906 25.2026L21.5727 25.0527Z" fill="white"/>
<path d="M41.3188 43.3589L48.4792 40.5624L49.2881 42.5447L42.1278 45.3411L41.3188 43.3589Z" fill="white" stroke="white" stroke-width="1.05462"/>
</svg>
