<svg xmlns="http://www.w3.org/2000/svg" width="52" height="50" fill="none" viewBox="0 0 52 50"><rect width="51.314" height="50" x=".637" fill="#2B00D4" rx="20"/><path fill="#fff" d="M23.8663 15.597L22.4529 17.3868H19.1521C19.5592 18.468 20.8919 19.4875 22.7531 19.1491C23.3048 19.1145 25.166 18.8394 25.9372 19.0086C26.9639 19.2378 26.5359 19.2389 28.3768 20.6141L37.5515 27.6578C38.1136 28.12 38.8325 27.9308 39.3302 27.4086C39.8279 26.8853 39.8558 25.9577 39.2936 25.4955L27.6793 16.8463C26.9523 16.303 26.7688 15.5505 26.5179 14.684C26.0301 13.1947 24.2363 12 22.4755 12C21.0568 12 19.5301 13.1422 18.9686 14.1434H22.4529L23.8663 15.597ZM31.8338 28.7389L28.2438 22.9386C28.1021 22.698 27.7438 22.252 27.4494 22.252H17.4564C17.162 22.252 16.8037 22.698 16.6614 22.9386L13.1614 28.7389H13.072C12.4826 28.7389 12 28.9384 12 29.4876V34.4771C12 35.0264 12.4826 35.2258 13.072 35.2258H14.3229V36.9719C14.3229 37.7957 14.8676 38.4693 15.752 38.4693H16.288C17.173 38.4693 17.8072 37.7957 17.8072 36.9719V35.2258H27.0986V36.9719C27.0986 37.7952 27.7327 38.4693 28.6172 38.4693H29.1532C30.0382 38.4693 30.5829 37.7957 30.5829 36.9719V35.2258H31.8338C32.4232 35.2258 32.9058 35.0264 32.9058 34.4771V29.4876C32.9058 28.9384 32.4232 28.7389 31.8338 28.7389ZM14.9483 32.4813C14.77 32.4848 14.5927 32.4551 14.4269 32.394C14.2611 32.3328 14.11 32.2415 13.9826 32.1253C13.8552 32.0091 13.7539 31.8705 13.6848 31.7174C13.6157 31.5644 13.5801 31.4 13.5801 31.234C13.5801 31.0679 13.6157 30.9036 13.6848 30.7505C13.7539 30.5975 13.8552 30.4588 13.9826 30.3426C14.11 30.2264 14.2611 30.1351 14.4269 30.074C14.5927 30.0128 14.77 29.9831 14.9483 29.9866C15.2989 29.9934 15.6326 30.1278 15.8779 30.361C16.1233 30.5942 16.2607 30.9076 16.2607 31.234C16.2607 31.5604 16.1233 31.8738 15.8779 32.107C15.6326 32.3401 15.2989 32.4745 14.9483 32.4813ZM16.0203 28.7389L18.1928 24.5073C18.3246 24.2619 18.6742 23.8737 18.9686 23.8737H25.9372C26.2316 23.8737 26.5806 24.2619 26.713 24.5073L28.8855 28.7389H16.0203ZM29.9575 32.4813C29.602 32.4813 29.2611 32.3499 29.0097 32.1159C28.7584 31.8819 28.6172 31.5646 28.6172 31.2337C28.6172 30.9028 28.7584 30.5854 29.0097 30.3515C29.2611 30.1175 29.602 29.986 29.9575 29.986C30.3129 29.986 30.6538 30.1175 30.9052 30.3515C31.1566 30.5854 31.2978 30.9028 31.2978 31.2337C31.2978 31.5646 31.1566 31.8819 30.9052 32.1159C30.6538 32.3499 30.3129 32.4813 29.9575 32.4813Z"/></svg>