<svg width="72" height="72" fill="none" xmlns="http://www.w3.org/2000/svg"><rect width="72" height="72" rx="20" fill="#0C243F"/><path d="M6 48.537v-4.012l10.517-15.507H7.028v-5.555h17.87v4.012L14.382 42.982h10.596v5.555H6ZM35.958 49c-1.634 0-3.321-.283-5.061-.849a13.785 13.785 0 0 1-4.665-2.739l3.874-4.551a13.86 13.86 0 0 0 2.965 1.774c1.081.437 2.096.656 3.045.656 1.028 0 1.766-.154 2.214-.463.474-.309.712-.746.712-1.312 0-.308-.08-.565-.238-.771-.158-.206-.395-.399-.711-.579a5.831 5.831 0 0 0-1.068-.501 33.43 33.43 0 0 0-1.463-.579l-3.202-1.311a10.175 10.175 0 0 1-1.977-1.003 8.338 8.338 0 0 1-1.66-1.505 7.56 7.56 0 0 1-1.147-2.006c-.264-.746-.396-1.569-.396-2.469a6.5 6.5 0 0 1 .712-3.009 7.514 7.514 0 0 1 1.977-2.469c.843-.72 1.845-1.285 3.005-1.697C34.06 23.206 35.35 23 36.748 23c1.477 0 2.966.27 4.468.81a11.037 11.037 0 0 1 4.072 2.546l-3.4 4.166c-.87-.591-1.713-1.041-2.53-1.35-.791-.309-1.66-.463-2.61-.463-.843 0-1.502.142-1.976.425-.475.282-.712.707-.712 1.273 0 .591.33 1.054.988 1.388.686.309 1.621.682 2.807 1.119l3.124 1.196c1.608.617 2.846 1.479 3.716 2.584C45.565 37.8 46 39.227 46 40.976c0 1.055-.224 2.07-.672 3.048-.448.977-1.107 1.838-1.977 2.584-.843.72-1.885 1.299-3.123 1.736-1.24.438-2.663.656-4.27.656Z" fill="#fff"/><path d="M48.29 49v-3.792a341.742 341.742 0 0 0 3.778-3.793 54.568 54.568 0 0 0 3.088-3.328c.872-1.058 1.55-2.051 2.034-2.98.509-.955.763-1.845.763-2.67 0-1.11-.266-1.923-.8-2.439-.508-.541-1.186-.812-2.033-.812a3.2 3.2 0 0 0-2.07.735 16.33 16.33 0 0 0-1.708 1.587L48 27.948a18.415 18.415 0 0 1 1.78-1.742 8.175 8.175 0 0 1 1.816-1.238 8.406 8.406 0 0 1 2.034-.736A11.328 11.328 0 0 1 55.991 24c1.163 0 2.228.194 3.197.58a7.425 7.425 0 0 1 2.506 1.626c.703.697 1.247 1.548 1.635 2.554.388.98.581 2.077.581 3.29 0 .98-.206 1.986-.617 3.018a17.67 17.67 0 0 1-1.526 3.019 26.403 26.403 0 0 1-2.143 2.94 63.133 63.133 0 0 1-2.325 2.71 32.41 32.41 0 0 1 1.962-.194c.75-.077 1.38-.116 1.889-.116H65V49H48.29Z" fill="#E6D335"/></svg>