<svg width="88" height="39" viewBox="0 0 88 39" fill="none" xmlns="http://www.w3.org/2000/svg">
<path d="M0.590332 37.7811V31.9037L15.6387 9.18546H2.06123V1.04755H27.6321V6.92492L12.5837 29.6432H27.7453V37.7811H0.590332ZM43.4566 38.4593C41.1183 38.4593 38.7046 38.0449 36.2153 37.216C33.7638 36.3495 31.5387 35.012 29.5398 33.2035L35.0839 26.535C36.4039 27.59 37.8182 28.4565 39.3268 29.1346C40.8732 29.7751 42.3251 30.0953 43.6829 30.0953C45.1538 30.0953 46.2099 29.8693 46.851 29.4172C47.5299 28.9651 47.8694 28.3246 47.8694 27.4958C47.8694 27.0436 47.7561 26.6669 47.5299 26.3655C47.3036 26.0641 46.9642 25.7815 46.5116 25.5177C46.0968 25.2541 45.5875 25.0091 44.9841 24.7831C44.3807 24.5193 43.6829 24.2368 42.8909 23.9354L38.3085 22.0139C37.3279 21.6372 36.385 21.1474 35.4799 20.5446C34.5747 19.9042 33.7827 19.1695 33.1039 18.3406C32.4249 17.4741 31.8781 16.4945 31.4632 15.4019C31.086 14.3094 30.8974 13.1037 30.8974 11.7851C30.8974 10.2027 31.2368 8.73335 31.9158 7.37703C32.5946 5.98304 33.5376 4.77742 34.7444 3.76018C35.9513 2.70527 37.3845 1.87641 39.044 1.2736C40.7412 0.670789 42.5892 0.369385 44.5881 0.369385C46.7002 0.369385 48.8311 0.764978 50.9808 1.55617C53.1683 2.34736 55.1106 3.59064 56.8078 5.28604L51.9426 11.3895C50.698 10.5229 49.4911 9.86362 48.3219 9.41151C47.1904 8.95941 45.9458 8.73335 44.5881 8.73335C43.3812 8.73335 42.4384 8.94056 41.7594 9.355C41.0806 9.76942 40.7412 10.3911 40.7412 11.2199C40.7412 12.0865 41.2126 12.7646 42.1554 13.2544C43.1361 13.7065 44.475 14.2528 46.1722 14.8933L50.6414 16.6452C52.942 17.5494 54.7146 18.8115 55.9593 20.4316C57.2039 22.0516 57.8262 24.1426 57.8262 26.7045C57.8262 28.2493 57.5056 29.7374 56.8644 31.1691C56.2233 32.6007 55.2803 33.8629 54.0358 34.9555C52.8289 36.0104 51.3391 36.8581 49.5666 37.4986C47.794 38.1391 45.7572 38.4593 43.4566 38.4593Z" fill="white"/>
<path d="M61.6988 37.7812V32.243C63.8109 30.2839 65.7721 28.4377 67.5824 26.7046C69.4305 24.9716 71.0334 23.3515 72.3911 21.8445C73.7489 20.2999 74.8049 18.8493 75.5593 17.493C76.3512 16.099 76.7472 14.7992 76.7472 13.5936C76.7472 11.9735 76.3324 10.7868 75.5027 10.0332C74.7106 9.24205 73.6545 8.84646 72.3346 8.84646C71.1276 8.84646 70.0528 9.20437 69.1099 9.9202C68.2048 10.5984 67.3184 11.3707 66.451 12.2372L61.2463 7.03803C62.1891 6.05847 63.1132 5.21077 64.0183 4.49493C64.9235 3.74142 65.8664 3.13861 66.847 2.6865C67.8654 2.19672 68.9213 1.83881 70.0151 1.61276C71.1465 1.38671 72.3723 1.27368 73.6922 1.27368C75.5027 1.27368 77.1622 1.55625 78.6707 2.12138C80.1793 2.6865 81.4805 3.47769 82.5742 4.49493C83.668 5.51218 84.5165 6.75546 85.1201 8.22481C85.7235 9.65647 86.0252 11.2577 86.0252 13.0284C86.0252 14.4601 85.7046 15.9294 85.0635 17.4365C84.46 18.9059 83.668 20.3752 82.6875 21.8445C81.7068 23.3138 80.5942 24.7455 79.3496 26.1395C78.1427 27.5335 76.9358 28.8522 75.729 30.0954C76.6341 29.9825 77.6524 29.8883 78.7838 29.8129C79.953 29.6998 80.9336 29.6433 81.7257 29.6433H87.7224V37.7812H61.6988Z" fill="#E6D335"/>
</svg>
