<svg width="62" height="62" viewBox="0 0 62 62" fill="none" xmlns="http://www.w3.org/2000/svg">
<circle cx="31" cy="31" r="31" fill="url(#paint0_linear_634_338)"/>
<path d="M27.9621 31.2207C28.2063 31.4648 28.602 31.4648 28.8461 31.2207L29.2879 30.7789C29.532 30.5348 29.532 30.1391 29.2879 29.8949L27.8926 28.5L29.2875 27.1047C29.5316 26.8605 29.5316 26.4648 29.2875 26.2207L28.8457 25.7789C28.6016 25.5348 28.2059 25.5348 27.9617 25.7789L25.6828 28.0578C25.4387 28.302 25.4387 28.6977 25.6828 28.9418L27.9621 31.2207ZM31.7125 30.7793L32.1543 31.2211C32.3984 31.4652 32.7941 31.4652 33.0383 31.2211L35.3172 28.9422C35.5613 28.698 35.5613 28.3023 35.3172 28.0582L33.0383 25.7793C32.7941 25.5352 32.3984 25.5352 32.1543 25.7793L31.7125 26.2211C31.4684 26.4652 31.4684 26.8609 31.7125 27.1051L33.1074 28.5L31.7125 29.8953C31.4684 30.1395 31.4684 30.5352 31.7125 30.7793ZM42.375 37.25H32.9039C32.875 38.0238 32.3293 38.5 31.625 38.5H29.25C28.5199 38.5 27.9602 37.8176 27.9699 37.25H18.625C18.2812 37.25 18 37.5312 18 37.875V38.5C18 39.875 19.125 41 20.5 41H40.5C41.875 41 43 39.875 43 38.5V37.875C43 37.5312 42.7188 37.25 42.375 37.25ZM40.5 22.875C40.5 21.8438 39.6562 21 38.625 21H22.375C21.3438 21 20.5 21.8438 20.5 22.875V36H40.5V22.875ZM38 33.5H23V23.5H38V33.5Z" fill="#F8F8F8"/>
<defs>
<linearGradient id="paint0_linear_634_338" x1="0" y1="31" x2="62" y2="31" gradientUnits="userSpaceOnUse">
<stop stop-color="#471CA9"/>
<stop offset="1" stop-color="#753CAF"/>
</linearGradient>
</defs>
</svg>
