<svg width="18" height="20" viewBox="0 0 18 20" fill="none" xmlns="http://www.w3.org/2000/svg">
<path d="M15.1753 4.27693C15.0403 4.20711 14.9089 4.13058 14.7815 4.04762C14.4115 3.80295 14.0722 3.51469 13.7709 3.18903C13.0163 2.326 12.7346 1.45053 12.6315 0.838144H12.635C12.5488 0.328858 12.5844 0 12.5906 0H9.15537V13.2814C9.15537 13.4592 9.15537 13.6361 9.14826 13.8103C9.14826 13.8316 9.1456 13.8511 9.14471 13.8751C9.14471 13.884 9.14471 13.8947 9.14204 13.9045V13.9125C9.10597 14.3889 8.95335 14.8491 8.69762 15.2527C8.4419 15.6563 8.0909 15.9909 7.67551 16.2269C7.24215 16.4735 6.752 16.6027 6.25342 16.602C4.65357 16.602 3.35592 15.2972 3.35592 13.6858C3.35592 12.0735 4.65357 10.7688 6.25342 10.7688C6.5565 10.7688 6.85781 10.8168 7.14578 10.911L7.15023 7.41264C6.27565 7.2998 5.38719 7.3695 4.54091 7.61733C3.69462 7.86515 2.90891 8.28573 2.23335 8.8525C1.64128 9.36671 1.14349 9.98031 0.762381 10.6657C0.617506 10.9154 0.0700017 11.9207 0.00423013 13.5507C-0.0375437 14.4751 0.240652 15.435 0.373084 15.8305V15.8394C0.455743 16.0723 0.779269 16.8686 1.30544 17.5397C1.72975 18.0783 2.23109 18.5515 2.7933 18.944V18.9351L2.8013 18.944C4.46337 20.0728 6.30764 19.999 6.30764 19.999C6.62672 19.9857 7.69595 19.999 8.91006 19.424C10.2566 18.7858 11.0228 17.8357 11.0228 17.8357C11.5126 17.2678 11.9021 16.6207 12.1746 15.9221C12.4857 15.1044 12.5888 14.1249 12.5888 13.7338V6.68648C12.6306 6.71137 13.1861 7.07845 13.1861 7.07845C13.1861 7.07845 13.986 7.59129 15.233 7.92459C16.1272 8.1619 17.3333 8.21256 17.3333 8.21256V4.80222C16.9111 4.84843 16.0534 4.71511 15.1744 4.27782L15.1753 4.27693Z" fill="white"/>
</svg>
