<svg width="21" height="15" viewBox="0 0 21 15" fill="none" xmlns="http://www.w3.org/2000/svg">
<path d="M20.5612 2.31938C20.3197 1.40642 19.6081 0.687403 18.7046 0.443393C17.0669 0 10.5 0 10.5 0C10.5 0 3.93315 0 2.29544 0.443393C1.39193 0.687441 0.680333 1.40642 0.438815 2.31938C0 3.97417 0 7.42674 0 7.42674C0 7.42674 0 10.8793 0.438815 12.5341C0.680333 13.4471 1.39193 14.1361 2.29544 14.3801C3.93315 14.8235 10.5 14.8235 10.5 14.8235C10.5 14.8235 17.0668 14.8235 18.7046 14.3801C19.6081 14.1361 20.3197 13.4471 20.5612 12.5341C21 10.8793 21 7.42674 21 7.42674C21 7.42674 21 3.97417 20.5612 2.31938ZM8.35226 10.5614V4.29207L13.8409 7.42682L8.35226 10.5614Z" fill="#F8F8F8"/>
</svg>
