<svg width="62" height="62" viewBox="0 0 62 62" fill="none" xmlns="http://www.w3.org/2000/svg">
<circle cx="31" cy="31" r="31" fill="url(#paint0_linear_637_367)"/>
<path d="M41.875 35.5781V19.1719C41.875 18.5225 41.3525 18 40.7031 18H24.6875C22.0996 18 20 20.0996 20 22.6875V38.3125C20 40.9004 22.0996 43 24.6875 43H40.7031C41.3525 43 41.875 42.4775 41.875 41.8281V41.0469C41.875 40.6807 41.7041 40.3486 41.4404 40.1338C41.2354 39.3818 41.2354 37.2383 41.4404 36.4863C41.7041 36.2764 41.875 35.9443 41.875 35.5781ZM26.25 24.543C26.25 24.3818 26.3818 24.25 26.543 24.25H36.8945C37.0557 24.25 37.1875 24.3818 37.1875 24.543V25.5195C37.1875 25.6807 37.0557 25.8125 36.8945 25.8125H26.543C26.3818 25.8125 26.25 25.6807 26.25 25.5195V24.543ZM26.25 27.668C26.25 27.5068 26.3818 27.375 26.543 27.375H36.8945C37.0557 27.375 37.1875 27.5068 37.1875 27.668V28.6445C37.1875 28.8057 37.0557 28.9375 36.8945 28.9375H26.543C26.3818 28.9375 26.25 28.8057 26.25 28.6445V27.668ZM38.623 39.875H24.6875C23.8232 39.875 23.125 39.1768 23.125 38.3125C23.125 37.4531 23.8281 36.75 24.6875 36.75H38.623C38.5303 37.585 38.5303 39.04 38.623 39.875Z" fill="#F8F8F8"/>
<defs>
<linearGradient id="paint0_linear_637_367" x1="0" y1="31" x2="62" y2="31" gradientUnits="userSpaceOnUse">
<stop stop-color="#471CA9"/>
<stop offset="1" stop-color="#753CAF"/>
</linearGradient>
</defs>
</svg>
