<svg width="62" height="62" viewBox="0 0 62 62" fill="none" xmlns="http://www.w3.org/2000/svg">
<circle cx="31" cy="31" r="31" fill="url(#paint0_linear_637_395)"/>
<path d="M39.1257 28.25H38.5007L34.2515 22.9383C34.0172 22.6455 33.7201 22.4092 33.3822 22.2468C33.0442 22.0844 32.6741 22 32.2992 22H23.9433C22.921 22 22.0019 22.6223 21.6222 23.5715L19.7507 28.3383C18.6742 28.6172 17.8757 29.5863 17.8757 30.75V35.125C17.8757 35.4703 18.1554 35.75 18.5007 35.75H20.3757C20.3757 37.8211 22.0546 39.5 24.1257 39.5C26.1968 39.5 27.8757 37.8211 27.8757 35.75H32.8757C32.8757 37.8211 34.5546 39.5 36.6257 39.5C38.6968 39.5 40.3757 37.8211 40.3757 35.75H42.2507C42.596 35.75 42.8757 35.4703 42.8757 35.125V32C42.8757 29.9289 41.1968 28.25 39.1257 28.25ZM24.1257 37.625C23.0917 37.625 22.2507 36.784 22.2507 35.75C22.2507 34.716 23.0917 33.875 24.1257 33.875C25.1597 33.875 26.0007 34.716 26.0007 35.75C26.0007 36.784 25.1597 37.625 24.1257 37.625ZM26.9382 28.25H22.4433L23.9433 24.5H26.9382V28.25ZM28.8132 28.25V24.5H32.2992L35.2992 28.25H28.8132ZM36.6257 37.625C35.5917 37.625 34.7507 36.784 34.7507 35.75C34.7507 34.716 35.5917 33.875 36.6257 33.875C37.6597 33.875 38.5007 34.716 38.5007 35.75C38.5007 36.784 37.6597 37.625 36.6257 37.625Z" fill="#F8F8F8"/>
<defs>
<linearGradient id="paint0_linear_637_395" x1="0" y1="31" x2="62" y2="31" gradientUnits="userSpaceOnUse">
<stop stop-color="#471CA9"/>
<stop offset="1" stop-color="#753CAF"/>
</linearGradient>
</defs>
</svg>
