<svg width="50" height="50" viewBox="0 0 50 50" fill="none" xmlns="http://www.w3.org/2000/svg">
<rect width="50" height="50" rx="20" fill="#2B00D4"/>
<path d="M37.0848 16.0025C34.4485 16.1485 29.2086 16.6797 25.9739 18.6112C25.7507 18.7444 25.6242 18.9814 25.6242 19.2292V36.3041C25.6242 36.8461 26.2318 37.1887 26.7441 36.9372C30.0722 35.3032 34.8853 34.8574 37.2652 34.7354C38.0777 34.6936 38.7094 34.0583 38.7094 33.2967V17.4432C38.7098 16.6121 37.9709 15.9537 37.0848 16.0025ZM23.7355 18.6112C20.5012 16.6797 15.2614 16.149 12.6251 16.0025C11.7389 15.9537 11 16.6121 11 17.4432V33.2971C11 34.0592 11.6316 34.6946 12.4442 34.7359C14.825 34.8579 19.6406 35.3041 22.9686 36.9391C23.4795 37.1901 24.0852 36.848 24.0852 36.3074V19.2207C24.0852 18.9725 23.9592 18.7449 23.7355 18.6112Z" fill="white"/>
</svg>
