<svg xmlns="http://www.w3.org/2000/svg" width="51" height="50" fill="none" viewBox="0 0 51 50"><rect width="50" height="50" x=".146" fill="#2B00D4" rx="20"/><path fill="#fff" d="M22.7662 36.5987L20.193 35.8512C19.923 35.7752 19.7712 35.4923 19.8471 35.222L25.6052 15.3658C25.6812 15.0956 25.9638 14.9435 26.2338 15.0195L28.807 15.767C29.077 15.843 29.2288 16.126 29.1529 16.3962L23.3948 36.2524C23.3146 36.5227 23.0362 36.6789 22.7662 36.5987ZM17.9572 31.8606L19.7922 29.9011C19.9863 29.6942 19.9736 29.3648 19.7585 29.1748L15.9366 25.8091L19.7585 22.4434C19.9736 22.2534 19.9905 21.924 19.7922 21.7171L17.9572 19.7577C17.7674 19.555 17.4468 19.5423 17.2401 19.7366L11.1614 25.4375C10.9462 25.636 10.9462 25.978 11.1614 26.1765L17.2401 31.8817C17.4468 32.0759 17.7674 32.0675 17.9572 31.8606ZM31.7599 31.8859L37.8386 26.1807C38.0538 25.9823 38.0538 25.6402 37.8386 25.4417L31.7599 19.7323C31.5574 19.5423 31.2368 19.5507 31.0428 19.7534L29.2078 21.7129C29.0137 21.9198 29.0264 22.2492 29.2415 22.4392L33.0634 25.8091L29.2415 29.1748C29.0264 29.3648 29.0095 29.6942 29.2078 29.9011L31.0428 31.8606C31.2326 32.0675 31.5532 32.0759 31.7599 31.8859Z"/></svg>