<svg xmlns="http://www.w3.org/2000/svg" width="153" height="56" fill="none" viewBox="0 0 153 56"><path fill="#102247" d="M0.621582 41.2489V34.7686L16.469 9.72028H2.17057V0.747715H29.0992V7.2279L13.2518 32.2763H29.2184V41.2489H0.621582ZM45.7639 41.9965C43.3014 41.9965 40.7595 41.5397 38.1381 40.6258C35.5564 39.6704 33.2132 38.1957 31.1081 36.2018L36.9466 28.8493C38.3368 30.0124 39.8261 30.9678 41.4148 31.7155C43.0433 32.4216 44.5723 32.7748 46.0022 32.7748C47.5512 32.7748 48.6633 32.5255 49.3385 32.0271C50.0535 31.5286 50.4109 30.8225 50.4109 29.9086C50.4109 29.41 50.2917 28.9947 50.0535 28.6624C49.8152 28.3301 49.4577 28.0184 48.9811 27.7277C48.5442 27.437 48.0079 27.1669 47.3725 26.9176C46.737 26.6269 46.0022 26.3154 45.1681 25.9831L40.3425 23.8645C39.3097 23.4492 38.3168 22.9091 37.3636 22.2445C36.4104 21.5383 35.5763 20.7283 34.8615 19.8145C34.1465 18.859 33.5706 17.7789 33.1336 16.5743C32.7365 15.3697 32.5379 14.0404 32.5379 12.5865C32.5379 10.8418 32.8953 9.22181 33.6103 7.72637C34.3252 6.18941 35.3182 4.86014 36.5891 3.73857C37.8601 2.57546 39.3694 1.66159 41.117 0.996956C42.9043 0.332317 44.8504 0 46.9554 0C49.1797 0 51.4237 0.436166 53.6876 1.3085C55.9913 2.18084 58.0367 3.55164 59.824 5.42093L54.7004 12.1503C53.3898 11.1949 52.1188 10.468 50.8875 9.96952C49.6959 9.47105 48.3853 9.22181 46.9554 9.22181C45.6845 9.22181 44.6916 9.45027 43.9766 9.90721C43.2617 10.3641 42.9043 11.0495 42.9043 11.9634C42.9043 12.9188 43.4007 13.6665 44.3936 14.2066C45.4264 14.705 46.8363 15.3074 48.6236 16.0135L53.3302 17.9452C55.7529 18.9421 57.6196 20.3337 58.9304 22.1199C60.241 23.906 60.8964 26.2115 60.8964 29.0362C60.8964 30.7394 60.5588 32.3801 59.8836 33.9586C59.2084 35.5371 58.2154 36.9287 56.9048 38.1334C55.6338 39.2965 54.0649 40.2311 52.1982 40.9374C50.3315 41.6435 48.1867 41.9965 45.7639 41.9965Z"/><path fill="#E6D335" d="M64.9746 41.2489V35.1426C67.1989 32.9825 69.2642 30.947 71.1706 29.0362C73.1168 27.1254 74.8048 25.3391 76.2346 23.6776C77.6644 21.9745 78.7766 20.3752 79.571 18.8797C80.405 17.3428 80.822 15.9096 80.822 14.5804C80.822 12.7942 80.3852 11.4857 79.5114 10.6549C78.6773 9.78259 77.5651 9.34642 76.1751 9.34642C74.904 9.34642 73.7721 9.74104 72.7792 10.5303C71.826 11.278 70.8926 12.1296 69.9791 13.0849L64.498 7.35251C65.491 6.27248 66.4641 5.33784 67.4173 4.54859C68.3705 3.71779 69.3635 3.05315 70.3961 2.55468C71.4686 2.01466 72.5806 1.62005 73.7324 1.37081C74.9239 1.12157 76.2148 0.996948 77.6048 0.996948C79.5114 0.996948 81.259 1.3085 82.8476 1.93159C84.4363 2.55468 85.8066 3.42701 86.9584 4.54859C88.1102 5.67016 89.0038 7.04096 89.6394 8.66101C90.2749 10.2395 90.5926 12.0049 90.5926 13.9573C90.5926 15.5358 90.255 17.1558 89.5798 18.8175C88.9443 20.4375 88.1102 22.0576 87.0776 23.6776C86.0449 25.2976 84.8733 26.8761 83.5625 28.4131C82.2916 29.9501 81.0206 31.404 79.7497 32.7748C80.7029 32.6502 81.7752 32.5463 82.9667 32.4633C84.198 32.3386 85.2307 32.2763 86.0648 32.2763H92.3799V41.2489H64.9746Z"/><path fill="#DC143C" fill-rule="evenodd" d="M116.129 0.69519L116.604 34.9635C116.604 34.9635 116.647 38.0481 119.751 40.0966C120.618 40.6688 121.997 41.1216 124.115 41.0924C124.761 41.0832 128.456 41.0642 130.317 41.116C131.675 41.1538 133.937 42.103 134.096 43.6952H134.415C134.551 41.8512 136.814 41.1558 138.194 41.116C140.046 41.0625 143.749 41.0834 144.395 41.0924C146.513 41.1218 147.892 40.6688 148.759 40.0966C151.863 38.0481 151.906 34.9635 151.906 34.9635L152.381 0.69519H116.129V0.69519Z" clip-rule="evenodd"/><path fill="#F6D155" fill-rule="evenodd" d="M131.278 2.96936C131.869 4.00905 132.106 4.99293 132.432 5.9326C132.973 5.85854 133.592 6.00679 134.204 6.05021C134.904 6.18852 135.457 6.24839 135.977 6.16789C136.296 4.68719 136.572 3.94747 137.207 2.90579C136.925 3.09895 136.325 3.17789 136.09 3.52894C135.738 3.21293 135.458 3.41074 135.283 3.74515C135.343 3.47823 135.264 3.25196 134.917 3.23008C135.123 2.8417 134.806 2.64907 134.476 2.82307C134.466 2.48482 134.198 2.482 134.179 2.30164C134.135 2.51054 133.9 2.4072 133.933 2.91215C133.666 2.69534 133.404 2.8366 133.504 3.21736C133.18 3.21589 133.089 3.48547 133.12 3.82144C132.897 3.30052 132.479 3.4596 132.331 3.64337C132.07 3.12467 131.873 3.45221 131.278 2.96936V2.96936Z" clip-rule="evenodd"/><path fill="#fff" fill-rule="evenodd" d="M136.488 5.61928C136.112 6.27133 135.951 6.31664 134.301 6.06081C132.995 5.92952 131.82 5.55793 131.766 6.75048C132.197 6.80215 132.825 6.84939 133.099 7.77967L132.3 8.46676C131.736 8.55628 130.846 9.31729 130.258 8.60964C130.097 9.27508 130.703 9.46231 131.335 9.43563C131.778 9.3898 131.92 9.2699 132.747 9.10506L132.966 9.34272C134.215 9.44694 134.862 11.2481 132.836 12.3048C132.758 12.5494 132.887 12.8429 133.08 12.8777C132.491 13.7175 131.524 14.7653 131.177 14.074C131.097 14.1505 130.869 14.722 131.31 15.0377C130.975 15.4537 130.846 15.9459 130.864 16.5143C129.528 16.304 128.649 16.0758 128.948 14.8168C130.369 14.883 130.754 13.1532 130.545 12.2763C129.719 8.77382 125.238 5.96471 121.976 5.87312C122.158 6.8261 122.741 7.5137 123.405 8.14787C122.54 7.72334 121.536 7.31176 120.485 7.5276C120.606 8.28041 121.011 9.15362 122.715 10.5781C121.487 9.84293 120.354 9.12524 119.955 8.54061C119.778 8.78166 119.678 9.76346 120.726 10.48C120.394 10.3462 118.748 10.3581 118.251 10.7256C118.551 11.4151 119.924 12.6203 121.051 12.9919C119.983 12.8353 118.981 12.4012 118.064 11.6174C117.929 11.7399 118.069 13.016 119.208 13.5239C118.84 13.5487 117.581 13.9046 117.256 14.3134C117.913 15.1971 119.592 15.9756 120.426 15.9787C119.288 16.1284 118.045 15.8977 117.528 15.7336C117.54 16.0268 117.295 17.2045 120.41 17.0101C119.299 17.5394 117.621 18.6414 117.354 19.6128C118.433 20.0947 120.369 19.6976 121.37 19.381C118.41 21.2003 117.948 21.3873 117.399 21.2652C118.115 22.7931 119.843 21.7608 121.335 20.9049C119.5 23.3801 119.202 24.6419 119.241 26.3957C120.719 26.2164 122.858 24.0825 123.997 22.2632C122.677 25.0023 121.89 27.2043 120.45 27.8523C122.091 28.5077 123.498 26.4317 124.487 24.2299C124.108 25.6236 123.952 28.5781 124.435 29.3007C125.919 28.2874 127.042 26.0376 127.796 23.4581C127.539 24.7292 127.349 26.0001 126.887 27.2712C127.84 27.454 128.328 25.729 128.649 24.7184C128.679 24.7713 128.714 24.8159 128.806 24.9021C130.011 24.021 130.394 21.9756 130.479 21.1747C131.577 21.4894 132.061 21.0878 132.342 20.8818C132.583 21.2177 132.598 21.7416 132.666 21.8133C131.471 20.835 130.19 21.8156 130.137 23.4451C130.008 24.125 129.647 24.9116 128.745 25.5201C128.802 25.5941 128.928 25.6241 129.091 25.621C128.934 25.8936 128.792 26.1292 128.525 26.3761C128.594 26.4163 128.68 26.4218 128.762 26.4365C128.561 26.7741 128.226 27.0929 127.892 27.2553C127.972 27.3328 128.018 27.3588 128.261 27.4253C128.038 27.7236 127.675 27.9928 127.332 28.138C127.986 28.5299 128.486 28.5801 128.892 28.5427C128.893 28.5426 128.893 28.5427 128.894 28.5427C128.635 29.0591 128.218 29.3205 127.81 29.5524C127.937 29.6725 128.089 29.6986 128.216 29.6627C127.847 30.0489 127.458 30.3532 127.106 30.463C127.17 30.5114 127.215 30.5778 127.442 30.5607C127.19 30.8737 126.885 31.1795 126.345 31.3215C126.452 31.5287 126.671 31.497 126.861 31.5038C126.713 31.824 126.251 31.9315 125.784 32.0307C126.136 32.1312 126.376 32.3221 126.166 32.2723C126.024 32.4452 125.884 32.5347 125.579 32.5808C125.266 32.6281 124.144 32.2208 123.692 32.3779C123.564 32.1209 123.254 31.9439 122.928 31.9439C122.51 31.9439 122.1 32.2121 122.081 32.5869C122.016 32.5417 121.744 32.5056 121.785 32.8314C121.884 33.0232 121.888 33.1772 122.489 33.4104C122.587 33.4543 122.706 33.4773 122.85 33.4711C123.064 33.462 123.304 33.3537 123.483 33.197L123.479 33.2035C123.778 33.2593 124.107 33.3098 124.289 33.3865C123.816 33.4246 123.653 33.6879 123.384 33.8772C123.27 33.8715 123.176 33.8432 123.073 33.8266L123.077 33.8302C123.015 33.8146 122.953 33.8077 122.892 33.811C122.554 33.8294 122.214 34.2133 122.177 34.6482C122.17 34.7364 122.191 34.8207 122.234 34.8978L122.229 34.9719C122.13 35.0945 122.169 35.192 122.265 35.2627C122.678 35.4278 122.924 35.3262 123.072 35.2959C123.446 35.2502 123.759 34.9392 123.759 34.5932C123.759 34.5924 123.759 34.5916 123.759 34.5907L123.767 34.5994C124.21 34.5067 124.646 34.3827 124.889 34.2027C124.901 34.2299 124.909 34.2594 124.903 34.2956C124.749 34.3877 124.496 34.5338 124.362 34.9842C124.322 34.9804 124.284 34.9785 124.248 34.9785C123.741 34.9776 123.616 35.3302 123.625 35.6182C123.634 35.8989 123.735 36.0798 123.88 36.1888C123.849 36.3636 123.87 36.5098 124.05 36.5682C124.654 36.6638 124.8 36.3485 124.921 36.3563C124.914 36.2761 124.931 36.2193 124.953 36.1686C125.138 36.0818 125.264 36.0108 125.282 35.6597C125.297 35.4416 125.261 35.3081 125.19 35.2229L125.206 35.2276C125.206 35.2282 125.206 35.2288 125.206 35.2294C125.207 35.2288 125.207 35.2284 125.208 35.228L125.213 35.2294L125.212 35.2243C125.766 34.7478 126.12 34.3716 126.359 34.0537C126.572 34.103 127.05 34.0917 127.285 34.0124L127.276 34.0978C127.054 34.3105 127.205 34.8185 127.498 34.8073C127.485 34.855 127.487 34.8981 127.498 34.9458C127.688 35.0639 128.039 34.981 128.306 35.0413C128.444 35.025 128.509 34.932 128.474 34.7422L128.47 34.7393C128.685 34.611 128.829 34.3796 128.801 34.0869C128.801 33.6825 128.488 33.3595 128.102 33.334L128.104 33.3322C127.69 33.2872 127.294 33.5878 127.38 32.9387C128.512 31.5876 130.057 29.5465 130.479 29.2985C130.445 29.2543 130.423 29.1962 130.403 29.1397C130.571 29.5872 131.205 30.0591 131.872 30.0185C131.752 29.7881 131.619 29.5834 131.571 28.9676C131.671 29.1129 131.841 29.181 132.049 29.224C131.737 27.7854 132.202 26.6018 133.161 25.5201C133.085 26.9121 132.91 28.3128 132.072 29.7317C132.503 29.8678 133.067 29.4246 133.144 29.1614C133.236 30.4148 132.058 32.0281 131.137 31.2546C130.558 32.5367 131.93 33.1589 132.795 32.4147C132.649 33.1903 132.048 33.6463 131.393 33.8243C130.737 34.0024 130.054 33.7217 130.49 32.6639C130.398 32.6088 129.083 32.5752 129.046 34.0204C129.085 34.8554 129.644 35.1696 129.695 35.1841C127.82 36.6178 129.709 38.2158 131.256 37.9054C132.482 37.7146 133.179 36.7127 133.623 35.9862C133.489 36.5089 132.934 38.1872 134.348 40.0047C135.748 37.8002 135.155 36.3149 135.122 36.0792C136.222 37.7895 137.307 37.9127 137.949 37.8703C139.045 37.8881 140.597 36.151 138.624 35.0398C139.634 34.555 139.701 32.5411 138.278 32.4378C138.571 33.2358 137.952 33.718 137.27 33.6558C136.588 33.5936 135.959 33.197 135.717 32.3036C137.061 32.9549 137.684 31.6737 137.227 30.9783C136.081 31.9338 135.538 30.4009 135.385 29.4887C135.677 29.7134 135.931 29.7915 136.423 29.718C135.491 28.5091 135.273 26.8875 135.19 25.3646C135.824 26.3819 136.451 27.627 136.43 28.8468C136.577 28.7741 136.711 28.7544 136.975 28.2204C136.999 29.1328 136.896 29.2563 136.59 29.638C137.091 29.8505 137.75 29.4418 138.063 28.8995C138.064 28.8981 138.065 28.8967 138.066 28.8953C139.04 30.2212 140.091 31.5822 141.114 32.6346C141.336 32.868 141.413 33.1015 141.002 33.1835C139.687 32.6943 139.55 34.0802 140.095 34.2677C140.052 34.393 140.04 34.5229 140.077 34.6597C140.336 34.7401 140.865 34.524 141.006 34.5161C141.072 34.4563 141.073 34.3308 141.071 34.2026C141.203 34.1961 141.293 34.1263 141.356 34.0153C141.612 34.0649 141.861 34.098 142.185 33.8279L143.157 34.8123C143.208 34.8416 143.106 34.9467 143.244 34.9603C143.135 35.614 143.382 35.6883 143.594 35.8531C143.55 36.4786 144.479 36.118 144.57 36.1536C144.668 36.0952 144.676 36.0276 144.66 35.9577C144.768 35.8435 144.718 35.7856 144.682 35.7049C145.147 34.99 144.488 34.445 144.125 34.5075C143.739 34.0804 143.461 33.9008 143.149 33.645C143.787 33.8877 144.771 34.1621 145.054 34.3722C145.161 35.1017 145.796 34.8003 146.263 34.8254C146.408 34.6196 146.33 34.5558 146.263 34.4854C146.878 33.6852 145.58 33.0286 145.028 33.5014C144.7 33.1964 144.416 33.1431 144.121 33.0222C144.244 32.8971 144.505 32.7995 145.093 32.7611C145.356 32.9371 145.619 32.9989 145.883 32.8045C145.996 33.0547 146.222 32.9898 146.302 32.9438C146.495 32.7197 146.5 32.3796 146.553 32.0686C146.5 31.9559 146.416 31.8824 146.272 31.8856C145.873 31.1975 145.102 31.6159 145.058 31.9247C144.394 31.9795 143.803 32.0649 143.101 32.3474C142.87 32.4177 142.65 32.1653 142.453 32.0205C142.631 31.949 142.786 31.8674 142.782 31.7156C142.497 31.6875 142.22 31.7076 141.892 31.3674L141.978 31.1323C141.725 31.054 141.452 30.8679 141.119 30.3396C141.189 30.2976 141.255 30.2277 141.313 30.1045C140.934 30.0162 140.624 29.8139 140.371 29.5165C140.461 29.4719 140.547 29.3943 140.626 29.2684C140.273 29.0532 139.932 28.866 139.255 27.9756C139.252 27.9712 139.249 27.9665 139.247 27.9626C139.961 28.0827 140.706 28.0118 141.147 27.6884C140.796 27.5899 140.177 27.3842 139.901 26.8458C140.038 26.8346 140.113 26.8076 140.199 26.7833C139.663 26.4271 139.522 26.2344 139.386 25.9457C139.498 25.9571 139.659 25.9055 139.713 25.8264C139.368 25.6699 139.217 25.4533 139.094 25.2174C139.236 25.2203 139.385 25.2482 139.5 25.1599C138.136 24.5399 138.326 21.3261 136.862 21.3164C136.211 21.3701 136.093 21.5124 135.757 21.6853C135.855 21.4104 136.022 21.1527 136.196 20.8969C136.996 21.2733 137.629 21.0611 137.844 20.8723C137.953 22.1639 138.364 23.5499 139.253 24.2435C139.406 24.1569 139.589 24.0457 139.7 23.9213C139.859 25.1212 140.303 26.6983 141.301 26.5674C140.841 25.4121 140.849 24.2512 140.798 23.0967C141.216 26.4846 142.248 28.4605 143.1 29.0529C143.493 28.5298 143.786 26.0569 143.595 24.5719C144.433 26.1014 145.363 27.5178 146.143 27.5101C146.497 27.5066 146.889 27.2151 147.126 27.1413C145.903 26.644 145.074 24.375 144.323 22.9622C145.732 25.1861 147.404 26.1878 148.192 26.3384C148.22 25.6507 148.371 23.7265 146.617 21.0604C149.752 22.7334 150.418 21.6529 150.601 21.0767C149.187 21.5736 147.279 19.7405 146.002 19.1578L145.984 19.1068C147.854 19.967 149.688 20.2635 150.83 19.5382C149.854 18.0201 148.909 17.467 147.882 17.0769C149.911 17.3041 150.577 16.608 150.619 15.8459C149.878 16.0983 149.193 16.1377 148.31 15.9953C150.252 15.6007 150.602 14.7699 150.583 14.6868C150.086 14.2971 149.146 13.8583 148.298 13.7777C150.639 12.9293 149.895 12.1295 149.808 11.8784C149.08 12.5666 147.811 13.0576 147.586 13.0371C148.679 12.4624 149.627 10.9588 149.566 10.7888C149.02 10.5055 147.889 10.5194 147.434 10.6579C147.889 10.1548 148.486 9.2937 147.935 8.57742C147.405 9.33244 146.902 9.73397 146.398 10.1281C146.855 9.54562 147.386 8.87739 147.567 7.50949C146.883 7.59982 146.263 7.53219 145.376 8.12318C145.885 7.48162 146.199 6.85028 146.261 6.08572C143.201 6.30216 139.626 7.91909 137.9 11.9504C137.399 13.1347 137.79 15.1503 139.364 14.9205C139.613 15.9376 138.945 16.5591 137.495 16.5142C137.464 16.1737 137.57 15.4992 137.154 15.144C137.506 15.121 137.575 14.9382 137.649 14.7831C136.702 14.5628 136.856 14.2461 137.032 12.5503C137.157 12.6024 137.298 12.5723 137.406 12.4718C137.015 12.1082 137.144 11.4356 137.342 9.31655C137.381 8.39299 137.193 7.93069 136.992 7.77132C137.113 7.7093 137.192 7.60891 137.13 7.37858C137.567 7.30104 137.382 6.7623 137.202 6.58764C137.114 6.8278 136.739 6.91644 136.383 6.65024C136.813 6.45259 136.817 5.9608 136.488 5.6192L136.488 5.61928ZM138.258 28.3923C138.272 28.41 138.287 28.4266 138.303 28.4429C138.287 28.4275 138.272 28.4117 138.257 28.3952C138.257 28.3942 138.257 28.3932 138.258 28.3923L138.258 28.3923ZM129.305 28.4577C129.263 28.6176 129.338 29.0547 129.347 29.3455C129.492 29.4174 129.748 29.343 130.042 29.2302C130.026 29.2371 130.01 29.2439 129.994 29.2508C129.774 29.3333 129.511 29.4177 129.345 29.3506L129.294 28.7C129.283 28.6266 129.284 28.5472 129.304 28.4581C129.304 28.4579 129.305 28.4579 129.305 28.4577L129.305 28.4577ZM129.197 28.4881C129.173 28.4954 129.148 28.5016 129.123 28.5069C129.147 28.501 129.172 28.495 129.197 28.4881ZM138.443 28.5676C138.766 28.806 139.165 28.8127 139.313 28.7771C139.321 28.7585 139.328 28.7397 139.335 28.721C139.33 28.7421 139.324 28.7634 139.317 28.785C139.013 28.8318 138.719 28.7812 138.443 28.5676H138.443ZM127.299 34.0074C127.299 34.0076 127.299 34.0078 127.299 34.0082L127.298 34.0078C127.299 34.0077 127.299 34.0076 127.299 34.0074V34.0074ZM135.593 34.3694C135.897 34.6911 137.07 35.5657 138.43 35.1429C138.543 35.9179 137.89 36.2097 137.374 36.1038C136.87 36.0003 136.112 35.5949 135.593 34.3694V34.3694ZM132.891 34.5676C132.45 35.4142 131.718 36.13 131.067 36.3024C130.416 36.4747 129.809 36.1482 130.045 35.2959C131.452 35.7706 132.594 34.9311 132.891 34.5676Z" clip-rule="evenodd"/><path fill="#DFDDE2" fill-rule="evenodd" d="M126.404 18.8776C125.929 18.3121 125.999 17.9546 126.014 17.7551C125.49 17.3564 125.628 17.1989 125.538 17.0376C125.719 17.3605 125.901 17.5745 126.083 17.6046C126.429 17.9245 126.775 18.0321 127.122 18.2411C125.004 17.0742 125.588 15.6426 125.612 15.2323C125.281 15.2434 125.038 15.1748 124.86 15.0471C124.921 14.4685 125.223 13.9981 125.865 13.6816C125.784 13.7097 125.704 13.7482 125.624 13.7626C125.548 13.7468 125.366 13.2698 125.595 12.9583C125.727 12.8742 126.083 12.8445 126.444 12.9873C126.658 12.5538 126.935 12.1679 127.512 12.0094C127.654 12.1579 127.895 12.6004 127.724 13.3691C127.961 13.4576 128.193 13.5689 128.384 13.8552C128.325 14.0995 128.266 14.1683 128.206 14.2313C129.132 14.241 129.222 12.9308 128.19 12.7929C128.357 11.5593 126.788 10.8232 126.106 12.345C124.85 12.0053 124.512 12.9919 124.987 13.7626C124.833 13.8756 123.591 14.7997 124.774 16.1233C124.772 16.7753 124.936 17.4087 125.813 17.9634C126.065 18.7108 126.224 18.7125 126.404 18.8776V18.8776Z" clip-rule="evenodd"/><path fill="#DFDDE2" fill-rule="evenodd" d="M141.974 11.9909L142.141 11.6711C143.271 11.4933 143.955 12.256 143.512 13.1577C144.425 13.9448 143.923 14.9672 143.371 15.1713C144.03 14.6831 143.667 14.5324 143.555 14.5404C143.59 14.5241 143.646 14.4932 143.692 14.454C143.656 14.0238 143.488 13.6167 142.831 13.1274C143.156 12.7648 143.123 12.4203 143.079 12.1767C142.718 12.0817 142.397 12.1118 142.115 12.2589L141.974 11.9909V11.9909Z" clip-rule="evenodd"/><path fill="#DFDDE2" fill-rule="evenodd" d="M140.409 14.2077C140.462 14.0297 140.51 13.7438 140.829 13.4731C140.729 13.5468 140.618 13.6371 140.495 13.7453C140.084 13.5772 139.82 13.1976 139.758 12.9675C140.009 12.6398 140.608 12.6874 140.692 12.7082C140.518 12.0473 140.744 11.5565 140.907 11.3686C141.449 11.4191 141.729 11.7004 141.948 11.952L142.111 11.6582C141.963 11.1944 141.509 10.8451 140.975 10.9558C140.529 11.0036 140.023 11.3944 140.225 12.3107C138.88 12.8573 139.453 14.1579 140.409 14.2077V14.2077Z" clip-rule="evenodd"/><path fill="#F1EEF0" fill-rule="evenodd" d="M137.482 16.5282C137.432 17.0283 137.335 17.3931 137.229 17.7338C139.058 17.4571 141.766 16.9823 141.399 14.9553C141.066 15.1996 140.734 15.2442 140.401 15.2491C140.344 14.9604 140.312 14.6536 140.414 14.2509C140.111 14.6635 139.755 14.8193 139.385 14.9121C141.04 15.6567 138.685 16.9732 137.7 16.5282H137.482Z" clip-rule="evenodd"/><path fill="#E8E6EB" fill-rule="evenodd" d="M130.878 17.2879C130.931 17.8618 131.108 18.5601 131.282 19.2068C131.166 19.0221 130.814 17.8977 130.878 17.2879Z" clip-rule="evenodd"/><path fill="#C3BDC9" fill-rule="evenodd" d="M136.318 16.8784C135.876 18.6442 137.825 18.4729 136.458 16.6616C137.787 17.4821 136.916 18.7092 136.849 18.9838C136.64 18.0366 135.817 17.7976 136.318 16.8784V16.8784Z" clip-rule="evenodd"/><path fill="#fff" fill-rule="evenodd" d="M127.511 12.0412L126.85 13.9971C126.687 13.9272 126.535 13.8612 126.323 13.6127C126.328 12.9352 126.922 12.0905 127.511 12.0412V12.0412Z" clip-rule="evenodd"/><path fill="#C3BDC9" fill-rule="evenodd" d="M128.035 15.8521L126.846 13.9991C127.032 13.9949 127.249 13.9999 127.507 13.9375C127.857 14.2683 128.247 15.1282 128.035 15.8521Z" clip-rule="evenodd"/><path fill="#fff" fill-rule="evenodd" d="M127.699 13.3842C128.057 13.4846 128.306 13.7195 128.347 13.8661L127.508 13.9447C127.588 13.7697 127.648 13.5758 127.699 13.3842V13.3842Z" clip-rule="evenodd"/><path fill="#fff" fill-rule="evenodd" d="M125.619 13.755C125.462 13.5269 125.463 13.0595 125.625 12.9636L126.325 13.6147C126.139 13.6581 125.8 13.6777 125.619 13.755V13.755Z" clip-rule="evenodd"/><path fill="#fff" fill-rule="evenodd" d="M124.88 15.028L126.841 14.0077C126.882 13.9822 126.562 13.6764 126.319 13.6154C125.796 13.5483 124.924 14.209 124.88 15.028Z" clip-rule="evenodd"/><path fill="url(#paint0_linear_1004_144)" fill-rule="evenodd" d="M126.51 15.0304C125.498 17.9518 129.858 18.4044 131.02 18.4916L130.88 17.7594C128.771 17.6649 126.805 17.1959 127.096 15.5984C126.715 15.3581 126.633 15.2498 126.51 15.0304Z" clip-rule="evenodd"/><path fill="url(#paint1_linear_1004_144)" fill-rule="evenodd" d="M126.512 15.0228C126.279 15.1383 125.945 15.1897 125.621 15.2399C124.782 18.7834 130.227 19.063 131.27 19.1934C131.106 18.8662 131.065 18.693 131.018 18.4794C128.255 18.299 125.699 17.2554 126.512 15.0228V15.0228Z" clip-rule="evenodd"/><path fill="#C3BDC9" fill-rule="evenodd" d="M140.916 11.3857C141.222 12.0208 141.549 12.7683 141.779 13.4791C141.911 13.2847 142.04 13.0899 142.303 12.866C142.159 12.1989 141.829 11.4931 140.916 11.3857V11.3857Z" clip-rule="evenodd"/><path fill="#fff" fill-rule="evenodd" d="M140.917 11.3811C141.225 12.0319 141.578 12.8112 141.781 13.4771L141.039 13.3692C140.599 12.887 140.493 11.9265 140.917 11.3811V11.3811Z" clip-rule="evenodd"/><path fill="#C3BDC9" fill-rule="evenodd" d="M139.776 12.9648C139.969 12.7425 140.379 12.6721 140.711 12.7295C140.786 12.914 140.906 13.1751 141.042 13.3748L139.776 12.9648Z" clip-rule="evenodd"/><path fill="#C3BDC9" fill-rule="evenodd" d="M143.059 12.1934L142.301 12.8746L142.793 13.1342C143.189 12.7914 143.08 12.1886 143.059 12.1934V12.1934Z" clip-rule="evenodd"/><path fill="#C3BDC9" fill-rule="evenodd" d="M142.302 12.8635C142.18 12.8888 141.757 13.477 141.785 13.4718L143.676 14.4441C143.683 14.1141 143.382 13.3042 142.302 12.8635V12.8635Z" clip-rule="evenodd"/><path fill="#C3BDC9" fill-rule="evenodd" d="M141.779 13.4664L140.416 15.2412C141.288 15.2031 141.638 14.8124 141.943 14.3268L141.779 13.4664V13.4664Z" clip-rule="evenodd"/><path fill="#fff" fill-rule="evenodd" d="M143.059 12.1935C142.767 12.0953 142.381 12.1265 142.113 12.2769C142.202 12.4675 142.263 12.7026 142.306 12.8727L143.059 12.1935Z" clip-rule="evenodd"/><path fill="#fff" fill-rule="evenodd" d="M141.778 13.4685L143.679 14.444C143.331 14.733 142.232 14.4634 141.938 14.3336L141.778 13.4685Z" clip-rule="evenodd"/><path fill="#fff" fill-rule="evenodd" d="M141.781 13.4726L141.037 13.3658C140.21 13.7149 140.356 15.1375 140.419 15.2413L141.781 13.4726Z" clip-rule="evenodd"/><path fill="#fff" fill-rule="evenodd" d="M141.03 13.3702L139.777 12.963C139.838 13.2677 140.207 13.6117 140.488 13.7272C140.547 13.6725 140.824 13.417 141.03 13.3702Z" clip-rule="evenodd"/><path fill="#fff" fill-rule="evenodd" d="M141.964 14.3318C141.732 14.6763 141.66 14.7676 141.403 14.943C141.846 16.9943 138.924 17.5071 137.234 17.7464C137.217 18.0288 137.128 18.2672 137.047 18.4841C137.352 18.4626 143.351 18.3465 141.964 14.3318Z" clip-rule="evenodd"/><path fill="url(#paint2_linear_1004_144)" fill-rule="evenodd" d="M141.997 14.3587C142.806 17.3427 140.163 18.1934 137.05 18.4778C136.974 18.6635 136.901 18.8647 136.825 19.072C141.051 18.7744 143.262 17.3974 142.685 14.5265C142.414 14.4846 142.201 14.4234 141.997 14.3587Z" clip-rule="evenodd"/><path fill="#F6D155" fill-rule="evenodd" d="M122.273 35.2648C122.612 35.4227 123.032 35.3153 123.259 35.2497C123.38 35.3665 123.221 35.8266 123.581 36.1617C123.376 36.2525 122.249 35.9032 122.273 35.2648V35.2648Z" clip-rule="evenodd"/><path fill="#F6D155" fill-rule="evenodd" d="M121.789 32.8127C121.93 33.2664 122.328 33.315 122.491 33.4091C122.486 33.5806 122.05 33.5722 122.035 34.1928C121.73 34.1651 121.306 33.4471 121.789 32.8127V32.8127Z" clip-rule="evenodd"/><path fill="#F6D155" fill-rule="evenodd" d="M124.054 36.5621C124.603 36.6556 124.802 36.3584 124.925 36.3418C124.989 36.5231 125.235 36.7592 125.473 36.8826C125.362 37.2893 124.03 37.2005 124.054 36.5621V36.5621Z" clip-rule="evenodd"/><path fill="#F6D155" fill-rule="evenodd" d="M128.29 35.0454C128.258 34.9763 127.627 35.0533 127.513 34.9508C127.434 35.0493 127.41 35.3744 127.172 35.4979C127.324 35.7757 128.379 35.6838 128.29 35.0454Z" clip-rule="evenodd"/><path fill="#DFDDE2" fill-rule="evenodd" d="M129.492 29.3815C129.586 29.3703 129.677 29.3569 129.754 29.3341C129.383 29.7839 128.765 30.5684 128.145 31.2294C127.522 31.8921 126.956 32.5457 127.171 33.1384C126.739 32.7059 127.122 32.2837 127.706 31.5874C128.34 30.8317 129.055 29.9608 129.492 29.3815V29.3815ZM128.711 34.1792C128.711 34.4874 128.457 34.7723 127.844 34.7433C128.535 33.9796 127.139 33.9325 127.471 33.6208C128.397 33.0357 128.78 33.9404 128.711 34.1792ZM128.052 34.8509C128.252 34.8933 128.378 34.6425 128.422 34.7702C128.508 35.0227 128.056 35.0691 128.052 34.8509ZM123.38 32.2068C123.239 32.2012 123.279 32.7753 122.444 32.7522C122.429 32.7483 122.351 32.7528 122.307 32.8317C122.205 33.0238 122.546 33.4153 122.857 33.3923C123.128 33.3722 123.354 33.2156 123.495 33.0209C123.558 32.9848 124.001 32.737 123.965 32.844C123.445 33.1 123.575 33.2619 124.399 33.3225C124.919 33.2447 125.361 32.7908 125.547 32.6965C125.016 32.7893 123.884 32.4326 123.622 32.4306C123.584 32.3332 123.508 32.2533 123.387 32.2075C123.384 32.2071 123.382 32.2069 123.38 32.2067V32.2068ZM122.447 35.1392C122.433 35.1871 122.405 35.2209 122.369 35.2464C122.516 35.3409 122.912 35.3157 122.956 35.2831C122.912 35.2821 122.587 35.2623 122.447 35.1392V35.1392ZM126.335 32.7587C125.628 33.1069 125.141 34.3647 123.385 34.1994C123.341 34.354 123.244 34.3852 123.153 34.4323C122.787 34.4274 122.365 34.5156 122.369 34.7463C122.375 35.0257 122.801 35.2004 123.087 35.1658C123.376 35.1306 123.678 34.8523 123.678 34.573C123.678 34.5729 123.678 34.5728 123.678 34.5726C123.687 34.5499 123.702 34.5318 123.732 34.5321C125.676 34.1087 125.974 33.1025 126.335 32.7587V32.7587ZM126.645 32.7934C126.568 33.2691 125.037 34.6884 124.966 35.153C124.884 35.0896 124.767 35.044 124.522 35.0569C124.665 35.7675 124.076 35.9852 123.919 35.8633C123.918 36.1845 124.382 36.3179 124.682 36.2597C125.036 36.1913 125.331 35.6462 125.126 35.3143C125.173 34.7266 125.94 34.5555 126.26 33.8002C126.543 33.7973 126.586 33.3558 126.938 33.2736C126.864 33.0446 126.576 33.3427 126.645 32.7934ZM122.122 32.7926C122.167 33.0738 122.292 33.1922 122.5 33.3662C122.333 33.3059 122.168 33.2588 121.985 33.0962C122.153 33.1474 122.026 32.7484 122.122 32.7926ZM125.79 32.0372C126.114 32.1129 126.54 32.1428 127.119 32.1087C126.277 32.4071 125.899 32.3057 125.79 32.0372ZM126.852 31.5031C126.853 31.5486 126.783 31.6362 126.719 31.6924C127.125 31.6846 127.522 31.6 127.81 31.2761C127.542 31.3989 127.239 31.5011 126.852 31.5031ZM127.426 30.5671C127.396 30.6218 127.29 30.7375 127.211 30.8215C127.546 30.8592 128.215 30.7023 128.503 30.3785C128.236 30.5013 127.813 30.5651 127.426 30.5671V30.5671ZM128.209 29.6675C128.149 29.7331 127.951 29.9266 127.878 29.989C128.213 30.0267 128.97 29.7565 129.258 29.4327C128.99 29.5554 128.597 29.6655 128.209 29.6675V29.6675ZM129.287 28.6677C129.266 29.0558 129.137 29.3031 128.997 29.4678C129.113 29.4296 129.229 29.4043 129.345 29.3507C129.334 29.136 129.314 28.8823 129.287 28.6677Z" clip-rule="evenodd"/><path fill="#F6D155" fill-rule="evenodd" d="M140.075 34.6582C140.41 34.7405 140.816 34.5203 141.011 34.5163C141.102 34.6967 141.137 34.893 141.511 35.02C141.264 35.2959 140.338 35.3873 140.075 34.6582V34.6582Z" clip-rule="evenodd"/><path fill="#F6D155" fill-rule="evenodd" d="M143.808 36.1869C143.686 36.3092 143.549 36.4397 143.316 36.5806C143.734 36.9639 144.584 36.5335 144.551 36.1621C144.475 36.015 144.23 36.3325 143.808 36.1869Z" clip-rule="evenodd"/><path fill="#F6D155" fill-rule="evenodd" d="M145.437 34.8427C145.444 35.3418 145.38 35.4729 145.324 35.6442C145.563 35.8077 146.178 35.4192 146.243 34.832C146.178 34.6927 145.917 34.9357 145.437 34.8427Z" clip-rule="evenodd"/><path fill="#F6D155" fill-rule="evenodd" d="M146.566 32.0832C146.389 32.1282 146.495 32.7348 146.292 32.9273C146.459 33.0205 146.571 33.2438 146.693 33.4452C147.084 33.147 147.069 32.2978 146.566 32.0832V32.0832Z" clip-rule="evenodd"/><path fill="#DFDDE2" fill-rule="evenodd" d="M140.501 34.6014C140.689 34.5444 140.892 34.4482 140.966 34.4737C141.079 34.0711 140.813 34.3051 140.501 34.6014ZM140.237 34.2786C140.604 34.2749 141.118 34.3379 141.244 33.846C141.811 34.121 142.406 33.5918 142.274 33.1046C142.274 33.1046 142.091 33.9462 140.916 33.4133C140.682 33.3787 140.357 33.5283 140.378 33.6899C140.394 33.8961 140.796 34.0716 140.237 34.2786V34.2786ZM143.344 33.8672C143.642 34.1717 143.832 34.4539 143.766 34.683C143.95 34.4143 143.968 34.5762 144.009 34.6794C144.229 34.8505 144.394 35.3689 143.843 35.7045C144.102 35.7752 144.123 36.0075 143.84 36.0911C143.852 36.3366 144.502 36.0307 144.561 36.1301C144.612 36.1078 144.628 36.0345 144.642 35.9563C144.697 35.8812 144.703 35.7939 144.645 35.6903C145.065 34.9864 144.544 34.6016 144.1 34.5234C143.828 34.2367 143.59 34.0649 143.344 33.8672V33.8672ZM143.365 33.1082C143.812 33.3935 144.421 33.6162 144.997 33.9949C145.573 33.4163 145.998 34.3717 145.173 34.4348C145.381 34.8216 146.261 34.7962 146.236 34.4879C146.783 33.442 145.299 33.1857 145.004 33.5622C144.555 33.3066 144.144 33.0198 143.499 32.8989C144.776 33.4525 144.996 33.6261 144.773 33.6561C144.569 33.6834 143.854 33.2744 143.365 33.1082V33.1082ZM143.758 32.3038C144.109 32.1494 144.871 32.1706 145.075 31.9858C145.411 31.369 146.035 31.5321 146.233 31.9336C146.375 31.9322 146.481 31.9632 146.497 32.0773C146.366 32.3695 146.45 33.0846 146.082 32.9091C146.149 32.8569 146.116 32.8046 146.082 32.7523C145.926 32.9109 145.925 32.7301 145.922 32.6565C145.687 32.9348 145.567 32.8889 145.395 32.8481C145.437 32.8308 145.455 32.7842 145.451 32.7088C146.139 32.4402 145.542 31.6265 144.985 32.3865C144.795 32.4436 144.046 32.2738 143.758 32.3038V32.3038ZM138.251 28.3974L138.225 28.4801C138.508 28.7391 140.96 31.4613 141.689 32.6261C141.58 32.3788 141.626 32.2766 141.192 31.7551C142.301 32.382 142.847 31.8256 142.782 31.7028C142.691 31.7135 142.633 31.7261 142.584 31.7004C141.559 32.2277 140.799 31.3535 140.345 30.7752C140.919 31.2362 141.296 31.3189 141.892 31.3544C141.951 31.2498 141.959 31.1968 141.974 31.1367C141.922 31.1268 141.872 31.1129 141.831 31.08C141.134 31.3456 140.297 30.8122 139.641 29.9173C140.265 30.3688 140.711 30.3251 141.136 30.331C141.202 30.255 141.292 30.1888 141.304 30.0914C141.245 30.0961 141.198 30.0742 141.149 30.0566C140.711 30.2103 139.638 30.1583 139.123 29.251C139.481 29.4929 139.878 29.6357 140.384 29.5079C140.485 29.4299 140.595 29.3532 140.618 29.264C139.99 29.4243 139.38 29.422 138.821 28.9243C138.98 28.9259 139.147 28.8686 139.317 28.7893C138.988 28.8171 138.648 28.7828 138.251 28.3974V28.3974Z" clip-rule="evenodd"/><path fill="#C3BDC9" fill-rule="evenodd" d="M130.643 9.00513C131.862 9.66221 133.266 8.16095 134.251 8.97659C134.358 8.9828 134.372 8.90275 134.355 8.83414C133.209 7.79866 131.989 9.32343 130.643 9.00513Z" clip-rule="evenodd"/><path fill="#C3BDC9" fill-rule="evenodd" d="M130.199 27.8748L130.103 27.9773C129.984 28.5167 129.704 28.9475 129.379 29.3599C129.676 29.4084 130.041 29.2393 130.393 29.0855C130.174 28.6728 130.127 28.398 130.199 27.8748V27.8748Z" clip-rule="evenodd"/><path fill="#DFDDE2" fill-rule="evenodd" d="M130.54 27.1562C130.709 27.4951 131.032 26.9401 131.188 26.7904C130.984 27.524 130.578 28.2657 131.464 28.9549C131.011 29.0012 130.884 29.1994 131.305 29.6516C130.484 29.2443 130.02 28.5688 130.54 27.1562V27.1562Z" clip-rule="evenodd"/><path fill="#CECAD5" fill-rule="evenodd" d="M131.222 26.7556C130.94 28.2044 131.406 28.7703 131.875 28.907C131.695 27.3413 132.315 26.2225 133.175 25.3663C133.117 23.9072 132.914 23.2523 132.756 22.2003C132.767 22.6876 133.11 24.022 132.877 24.9549C132.636 25.9247 131.947 26.8664 131.222 26.7556Z" clip-rule="evenodd"/><path fill="#C3BDC9" fill-rule="evenodd" d="M128.367 28.2494C129.183 28.3042 129.846 28.0445 130.385 27.4872C130.089 28.2147 129.417 28.5554 128.419 28.454C128.78 28.3885 128.789 28.3265 128.367 28.2494Z" clip-rule="evenodd"/><path fill="#C3BDC9" fill-rule="evenodd" d="M128.267 27.4169C128.189 27.5396 128.128 27.5985 128.066 27.6571C129.352 27.8259 130.069 27.2063 130.552 26.6655C131.265 26.7065 131.756 26.2403 132.183 25.7664C131.703 26.1498 131.21 26.4656 130.65 26.3945C130.099 27.2022 129.323 27.578 128.267 27.4169V27.4169Z" clip-rule="evenodd"/><path fill="#C3BDC9" fill-rule="evenodd" d="M128.768 26.4315C128.672 26.6337 128.641 26.6304 128.591 26.6964C129.027 26.7877 129.624 26.617 130.643 25.7602C131.651 25.7365 132.073 25.0702 132.36 24.781C131.824 25.2475 131.281 25.4949 130.729 25.5016C130.194 26.0516 129.609 26.499 128.768 26.4315V26.4315Z" clip-rule="evenodd"/><path fill="#C3BDC9" fill-rule="evenodd" d="M129.104 25.6186L128.921 25.908C129.272 25.8883 129.734 25.9028 130.717 24.9904C131.474 24.8293 132.151 24.2584 132.745 23.2597C132.251 23.8735 131.8 24.5314 130.802 24.6209C130.548 25.2088 129.875 25.4538 129.104 25.6186V25.6186Z" clip-rule="evenodd"/><path fill="#C3BDC9" fill-rule="evenodd" d="M137.394 26.8257C137.326 27.3523 137.209 27.8299 136.978 28.193C137.003 28.3654 136.998 28.5379 136.991 28.7103C137.344 28.348 137.604 27.317 137.394 26.8257H137.394Z" clip-rule="evenodd"/><path fill="#C3BDC9" fill-rule="evenodd" d="M137.907 27.0782C138.286 28.0717 137.946 29.3933 136.734 29.6217C137.109 29.7786 138.232 29.2617 138.389 27.7249L139.312 28.7719C139.362 28.5311 139.395 28.288 139.22 27.9342C138.49 27.7794 138.257 27.4902 137.907 27.0782V27.0782Z" clip-rule="evenodd"/><path fill="#C5BDCB" fill-rule="evenodd" d="M138.506 27.3985C139.002 27.617 139.867 27.939 140.735 27.5586C140.866 27.6127 140.996 27.6543 141.126 27.6756C140.831 27.9872 140.001 28.0622 139.239 27.9589C140.288 27.8203 138.696 27.699 138.506 27.3985V27.3985Z" clip-rule="evenodd"/><path fill="#C3BDCA" fill-rule="evenodd" d="M136.777 25.6247C137.137 25.8815 137.541 26.0369 137.998 26.0312C138.34 26.6857 139.337 26.8676 139.898 26.838C139.924 26.9274 139.983 27.0052 140.057 27.0782C139.588 27.0802 138.987 26.9264 138.066 26.3391C137.817 26.2526 136.939 25.841 136.777 25.6247V25.6247Z" clip-rule="evenodd"/><path fill="#C3BDC9" fill-rule="evenodd" d="M136.587 24.6455C136.946 24.9448 137.342 25.1036 137.766 25.1566C138.202 25.6235 138.714 25.8641 139.385 25.9512L139.526 26.1975C139.315 26.2189 138.293 25.7579 137.919 25.4092C137.292 25.2521 136.822 24.9384 136.587 24.6455V24.6455Z" clip-rule="evenodd"/><path fill="#C3BDC9" fill-rule="evenodd" d="M136.667 23.8571C137.082 24.2674 137.555 24.4343 137.937 24.436C138.224 24.7392 138.489 25.0522 139.092 25.2121C139.121 25.2949 139.156 25.3652 139.202 25.4154C138.748 25.4074 138.125 24.7728 138.047 24.6701C137.439 24.5821 136.747 24.2725 136.667 23.8571Z" clip-rule="evenodd"/><path fill="#DFDDE2" fill-rule="evenodd" d="M133.046 21.9988C133.178 21.948 133.238 21.8733 133.303 21.8C133.413 21.9517 133.569 21.985 133.723 22.0248C133.431 22.0144 133.394 22.1534 133.535 22.3964C133.595 22.4934 133.698 23.9474 133.723 24.8249C133.727 25.6378 133.835 26.1658 133.998 26.5188C133.36 25.9776 133.714 22.7041 133.046 21.9988Z" clip-rule="evenodd"/><path fill="#CECAD5" fill-rule="evenodd" d="M134.109 22.0594C134.465 22.0257 134.818 22.0054 135.24 21.7482L135.395 21.9297C135.091 22.597 134.921 24.1724 134.726 25.5854C134.782 24.6861 134.8 23.8833 134.752 23.6582C134.654 23.1505 134.674 22.8416 134.683 22.7594C134.876 22.054 134.348 22.2265 134.109 22.0594V22.0594Z" clip-rule="evenodd"/><path fill="#C3BDC9" fill-rule="evenodd" d="M135.532 22.0075L135.575 22.0507C134.974 23.3717 135.578 26.4007 134.28 27.9275L134.255 27.3398C135.238 26.686 134.991 23.3473 135.532 22.0075Z" clip-rule="evenodd"/><path fill="#C3BDC9" fill-rule="evenodd" d="M133.363 25.2656C133.356 27.429 133.71 27.8383 132.249 29.6388C132.929 29.0668 133.691 27.3157 133.595 28.3165C133.767 27.9954 133.934 27.6762 133.972 27.4004C133.408 26.4291 133.433 25.8666 133.363 25.2656Z" clip-rule="evenodd"/><path fill="#C3BDC9" fill-rule="evenodd" d="M134.547 27.651L134.272 27.9794L134.349 30.84C134.384 29.6529 134.443 28.562 134.547 27.651Z" clip-rule="evenodd"/><path fill="#DFDDE2" fill-rule="evenodd" d="M135.198 25.5768C135.123 26.019 135.073 26.5502 134.958 26.8472C135.156 29.1361 135.773 29.3559 136.286 29.5609C135.43 28.3374 135.261 26.6952 135.198 25.5768V25.5768Z" clip-rule="evenodd"/><path fill="#E0DEE2" fill-rule="evenodd" d="M133.552 28.5757C133.286 29.1805 133.374 30.3419 132.626 31.0993C133.246 30.7788 133.482 30.0016 133.5 29.3967L133.56 30.0363C133.354 31.3472 132.764 31.7042 132.352 31.7821C132.417 31.7638 133.064 31.9016 133.659 30.5722C133.678 31.0551 133.342 31.5928 132.904 31.7734C133.287 31.7863 133.666 31.4321 133.86 31.1598C133.546 30.225 133.541 29.3974 133.552 28.5757V28.5757Z" clip-rule="evenodd"/><path fill="#C3BDC9" fill-rule="evenodd" d="M133.839 30.5418C133.903 30.8558 133.994 31.3135 134.345 31.7561L134.37 32.3092C134.531 32.0966 135.152 30.3241 135.163 29.7424C135.186 29.5581 135.197 29.344 135.33 29.4831C135.348 29.496 135.365 29.4962 135.382 29.4745C135.194 29.3449 134.996 28.7049 134.846 28.4936C134.958 29.1857 135.045 30.1659 134.345 31.6264C134.133 31.3725 133.983 30.9661 133.839 30.5418V30.5418Z" clip-rule="evenodd"/><path fill="#DFDDE2" fill-rule="evenodd" d="M136.834 31.6674C136.079 32.058 135.43 31.1159 135.118 30.5307L135.258 29.7318C135.261 29.7054 135.317 29.6857 135.342 29.7211C135.466 30.6006 136.018 31.6271 136.834 31.6674V31.6674Z" clip-rule="evenodd"/><path fill="#DFDDE1" fill-rule="evenodd" d="M134.983 30.8357L134.902 31.0777C135.193 31.7283 135.536 31.9545 135.982 32.1191C135.105 31.6838 135.046 31.2598 134.983 30.8357Z" clip-rule="evenodd"/><path fill="#DFDDE2" fill-rule="evenodd" d="M134.143 31.9506L134.375 32.3525L134.551 31.9592C134.518 33.0197 134.45 34.3005 134.418 35.481C134.321 34.297 134.189 33.0627 134.143 31.9506Z" clip-rule="evenodd"/><path fill="#C3BDC9" fill-rule="evenodd" d="M134.82 31.2895C134.799 31.35 134.778 31.4072 134.756 31.445C135.534 34.3542 134.618 35.9055 134.413 36.1335C133.874 35.169 133.88 34.2191 133.762 33.4069C133.831 34.1353 133.752 35.0823 134.379 36.2631L134.387 36.7428C135.151 35.7829 135.615 34.4506 135.022 31.5617C134.936 31.4897 134.886 31.382 134.82 31.2895H134.82Z" clip-rule="evenodd"/><path fill="#DFDDE2" fill-rule="evenodd" d="M134.13 36.4792C134.196 36.5847 134.252 36.6916 134.384 36.786C134.553 36.6082 134.589 36.5193 134.663 36.4057C134.52 37.1777 134.455 37.93 134.354 38.6917C134.283 37.9386 134.232 37.1178 134.13 36.4792V36.4792Z" clip-rule="evenodd"/><path fill="#C3BDC9" fill-rule="evenodd" d="M135.498 36.6046C135.333 36.2331 135.138 35.9137 135.262 35.5026C135.238 35.3759 135.186 35.3566 135.129 35.3298C135.094 35.5492 135.017 35.705 134.949 35.8569C135.241 37.6247 134.826 38.5759 134.345 39.3744C133.555 38.3027 133.702 37.1477 133.689 36.1594C133.459 38.1658 133.94 39.0482 134.336 39.5041L134.34 39.9923C135.465 38.3264 135.354 36.7794 135.103 36.0428C135.228 36.2348 135.341 36.4341 135.498 36.6046H135.498Z" clip-rule="evenodd"/><path fill="#C4BEC9" fill-rule="evenodd" d="M131.238 31.5314C131.388 32.9889 133.223 32.5473 133.968 31.445L133.899 31.2462C133.205 32.1529 131.726 32.959 131.238 31.5314Z" clip-rule="evenodd"/><path fill="#DFDDE2" fill-rule="evenodd" d="M133.796 32.0673C133.123 33.4757 132.312 34.4786 131.194 34.5779C131.956 34.6391 132.771 34.0157 133.024 33.7439C133.208 33.4235 133.445 33.3095 133.213 33.7396C133.123 33.8905 133.034 34.0008 132.892 34.1371C133.072 34.0636 133.444 33.4833 133.522 33.4328C133.553 32.8228 133.69 32.4854 133.796 32.0673V32.0673Z" clip-rule="evenodd"/><path fill="#C3BECA" fill-rule="evenodd" d="M133.518 33.4823C133.505 33.643 133.491 33.8056 133.494 33.9346C132.433 35.0335 131.516 35.3815 130.542 35.1507C131.346 35.1726 132.278 35.2587 133.518 33.4823Z" clip-rule="evenodd"/><path fill="#DFDDE2" fill-rule="evenodd" d="M130.081 34.1179C129.848 33.5335 129.935 33.0625 130.348 32.7062C129.515 32.6886 128.612 34.2502 130.154 35.0407C129.383 34.5863 129.344 33.6383 129.595 33.3269C129.763 33.0564 130.011 32.9808 129.839 33.2838C129.72 33.7714 129.936 34.0202 130.081 34.1179Z" clip-rule="evenodd"/><path fill="#DFDDE2" fill-rule="evenodd" d="M135.07 31.649C135.227 31.9036 135.421 32.1215 135.676 32.2784C135.607 33.7039 137.162 34.649 138.216 34.2462C137.61 34.6928 135.615 34.5839 135.07 31.649Z" clip-rule="evenodd"/><path fill="#C4C0CD" fill-rule="evenodd" d="M135.3 33.4396V33.6107C136.03 34.8363 137.258 34.8808 137.633 34.8329C136.487 34.811 135.769 34.275 135.3 33.4396Z" clip-rule="evenodd"/><path fill="#E1DFE3" fill-rule="evenodd" d="M138.483 32.5474C139.451 33.2245 139.183 34.2776 138.143 34.7168C138.944 34.1857 139.337 33.4978 138.483 32.5474Z" clip-rule="evenodd"/><path fill="#C3BDC9" fill-rule="evenodd" d="M137.349 35.0162C138.269 35.1855 139.825 34.4577 138.992 32.8346C139.835 33.8219 138.892 35.5954 137.349 35.0162Z" clip-rule="evenodd"/><path fill="#E0DEE3" fill-rule="evenodd" d="M135.306 34.4173C135.298 34.5092 135.293 34.5661 135.27 34.7168C136.057 36.3014 136.497 36.4058 137.009 36.819C136.055 36.1 135.567 35.2826 135.306 34.4173V34.4173Z" clip-rule="evenodd"/><path fill="#C4BECB" fill-rule="evenodd" d="M136.597 37.3934C136.764 37.468 136.893 37.4133 137.028 37.4607C138.232 37.8836 139.722 37.1625 139.277 35.6946C140.065 36.4687 138.615 38.6925 136.597 37.3934Z" clip-rule="evenodd"/><path fill="#C3BECA" fill-rule="evenodd" d="M138.713 35.2668C139.625 36.1787 138.688 37.4399 137.47 37.0085C138.76 37.184 139.238 36.1055 138.713 35.2668Z" clip-rule="evenodd"/><path fill="#DFDDE2" fill-rule="evenodd" d="M129.857 35.2607C128.609 36.0887 129.298 37.1142 129.875 37.3507C129.656 37.1876 129.422 36.6159 130.105 36.9351C130.33 37.0324 130.531 37.0428 130.724 37.0268C129.447 36.604 129.731 35.9192 129.857 35.2607Z" clip-rule="evenodd"/><path fill="#DFDDE2" fill-rule="evenodd" d="M133.506 34.1057C133.536 34.5365 133.583 34.8829 133.645 35.1507C133.245 35.9579 132.761 36.4962 132.263 36.8801C132.847 36.3107 133.298 35.7404 133.494 35.1384C132.477 36.7375 131.773 36.9833 131.045 37.0207C131.951 36.8195 133.273 36.0311 133.506 34.1057Z" clip-rule="evenodd"/><path fill="#C3BEC9" fill-rule="evenodd" d="M133.657 35.2118C133.685 35.3411 133.715 35.4689 133.791 35.5662C132.51 38.0554 130.8 37.9838 130.215 37.7785C131.323 37.8941 130.937 37.6922 130.578 37.6257C131.892 37.6681 133.052 36.7692 133.657 35.2118V35.2118Z" clip-rule="evenodd"/><path fill="#C4BECA" fill-rule="evenodd" d="M132.603 21.5087C132.769 21.3962 132.848 21.2618 132.944 21.126C132.979 21.194 133.046 21.2532 133.13 21.3131C132.887 21.393 132.802 21.7529 132.665 21.7547C132.644 21.6748 132.643 21.5887 132.603 21.5087V21.5087Z" clip-rule="evenodd"/><path fill="#C3BDC9" fill-rule="evenodd" d="M133.142 21.3182C133.505 21.4556 133.875 21.4379 134.333 21.1135C134.374 21.1559 134.432 21.2069 134.488 21.2571C134.05 21.5714 133.334 21.4906 133.142 21.3182Z" clip-rule="evenodd"/><path fill="#C3BDC9" fill-rule="evenodd" d="M134.691 21.3151C134.948 21.359 135.201 21.4179 135.536 21.2326C135.585 21.2976 135.633 21.3488 135.682 21.3976C135.572 21.5085 135.022 21.4925 134.691 21.3151Z" clip-rule="evenodd"/><path fill="#C3BDC9" fill-rule="evenodd" d="M135.755 20.6215C135.838 20.6728 135.987 20.8228 136.132 20.9087C136.024 21.0604 135.917 21.2327 135.81 21.4251C135.331 21.0072 135.667 20.5671 135.755 20.6215Z" clip-rule="evenodd"/><path fill="#C3BDC9" fill-rule="evenodd" d="M132.27 20.7407C132.338 20.8369 132.386 20.9058 132.43 20.9699C132.722 20.7655 132.821 20.5455 132.915 20.3251C132.872 20.3004 132.832 20.2651 132.797 20.1998C132.567 20.6108 132.422 20.6606 132.27 20.7407Z" clip-rule="evenodd"/><path fill="#C3BDC9" fill-rule="evenodd" d="M132.936 20.3374L132.903 20.4016C133.479 20.735 134.416 20.9851 135.606 20.3771L135.488 20.1326C134.717 20.7413 133.845 20.8439 132.936 20.3374V20.3374Z" clip-rule="evenodd"/><path fill="#C3BDC9" fill-rule="evenodd" d="M135.703 20.3343C136.043 20.2697 135.925 19.8435 136.24 19.714C136.755 20.4956 137.636 20.2927 137.995 19.6987L138.052 20.1388C137.712 20.3565 137.261 20.7348 136.51 20.3832C136.45 20.5097 136.437 20.7088 136.434 20.924C136.104 20.8141 135.839 20.6393 135.703 20.3343V20.3343Z" clip-rule="evenodd"/><path fill="#C3BDC9" fill-rule="evenodd" d="M136.747 18.883C136.878 19.1374 136.755 19.717 136.762 19.9065C136.511 19.8719 136.371 19.6656 136.237 19.4941C136.263 19.4891 136.281 19.4816 136.291 19.4604C136.322 19.3014 136.616 19.2281 136.747 18.883H136.747Z" clip-rule="evenodd"/><path fill="#C3BECA" fill-rule="evenodd" d="M134.485 19.5979L134.457 19.6346C134.852 19.7794 135.672 19.8521 136.254 19.4543L136.151 19.2679C135.744 19.6189 135.222 19.7835 134.485 19.5979V19.5979Z" clip-rule="evenodd"/><path fill="#C3BDC9" fill-rule="evenodd" d="M134.255 19.4634C134.327 19.5207 134.396 19.5672 134.461 19.5918C133.918 20.0921 133.135 19.9559 132.345 19.5368C132.353 19.5124 132.347 19.4879 132.339 19.4634C133.251 19.9617 133.889 19.8207 134.255 19.4634Z" clip-rule="evenodd"/><path fill="#C3BEC9" fill-rule="evenodd" d="M132.3 19.4604C132.493 19.7666 132.005 19.8659 132.003 20.3221L131.812 20.0777C131.804 19.7789 132.201 19.8268 132.3 19.4604Z" clip-rule="evenodd"/><path fill="#C3BEC9" fill-rule="evenodd" d="M131.769 19.986L131.397 19.4146C131.004 18.8992 132.302 18.7967 132.16 17.8318C132.243 17.8978 132.326 17.9832 132.409 18.0274C132.361 18.8043 131.687 18.7839 131.675 19.3168C131.589 19.2839 131.545 19.2028 131.524 19.0968C131.49 19.1222 131.483 19.1248 131.448 19.1609C131.285 19.3637 131.525 19.4786 131.769 19.986V19.986Z" clip-rule="evenodd"/><path fill="#C3BDC9" fill-rule="evenodd" d="M132.125 18.9394C132.504 18.994 132.876 18.9392 133.233 18.5981C133.294 18.6577 133.342 18.7208 133.423 18.7752C132.969 19.0541 132.361 19.092 132.125 18.9394Z" clip-rule="evenodd"/><path fill="#C4BECA" fill-rule="evenodd" d="M133.44 18.7882L133.397 18.8228C134.026 19.1859 134.904 19.1833 135.377 18.8574C135.31 18.8183 135.253 18.7695 135.197 18.7191C134.634 19.1362 133.787 19.0017 133.44 18.7882V18.7882Z" clip-rule="evenodd"/><path fill="#C4BEC9" fill-rule="evenodd" d="M135.392 18.8574L135.36 18.8984C135.807 19.0734 136.359 19.0561 136.747 18.8487C136.72 18.7746 136.691 18.7026 136.642 18.6456C136.222 18.9793 135.807 18.9507 135.392 18.8574V18.8574Z" clip-rule="evenodd"/><path fill="#C4BEC9" fill-rule="evenodd" d="M132.475 18.0732C133.132 18.4096 133.847 18.1859 134.239 17.8379C134.306 17.9233 134.373 17.9729 134.439 18.0182C133.95 18.4509 132.691 18.3968 132.475 18.0732V18.0732Z" clip-rule="evenodd"/><path fill="#C3BDC9" fill-rule="evenodd" d="M134.464 18.0274L134.43 18.0579C135.022 18.4652 135.924 18.2193 136.164 18.0609C136.134 17.9652 136.103 17.8817 136.073 17.8104C135.658 18.1686 135.04 18.286 134.464 18.0274V18.0274Z" clip-rule="evenodd"/><path fill="#C3BDC9" fill-rule="evenodd" d="M130.814 17.184L130.899 17.2329C130.989 17.1027 131.064 17.0714 131.101 17.123C131.138 17.1745 131.07 17.2702 131.166 17.3551C131.472 17.1101 132.172 16.9478 132.257 16.5851C132.386 16.9483 132.822 16.9587 133.178 17.5873C133.094 17.1099 132.609 16.9794 132.41 16.6584C132.21 16.3375 132.328 15.936 132.487 15.4179C132.157 15.869 132.417 16.5095 131.878 16.7961C131.536 16.9781 130.884 16.938 130.814 17.184V17.184Z" clip-rule="evenodd"/><path fill="#C3BDC9" fill-rule="evenodd" d="M133.646 14.9168L133.664 15.3446C133.103 15.5655 133.541 16.9791 133.318 17.2879C133.23 16.0817 132.736 15.6476 133.646 14.9168H133.646Z" clip-rule="evenodd"/><path fill="#C3BDC9" fill-rule="evenodd" d="M134.1 15.9435H134.167C134.239 16.7339 135.062 16.8091 135.203 17.5874C135.028 17.0479 134.561 16.8906 134.312 16.6035C134.169 17.2073 133.445 17.3868 133.263 17.728C133.214 17.447 134.261 17.0536 134.1 15.9435V15.9435Z" clip-rule="evenodd"/><path fill="#C3BDC9" fill-rule="evenodd" d="M135.343 15.1857C134.912 15.8731 135.769 16.3155 135.306 17.459C135.547 15.9635 134.512 16.0856 135.167 15.0023C135.394 15.2249 136.173 15.4507 136.246 15.8274C135.984 15.4551 135.581 15.4268 135.343 15.1857Z" clip-rule="evenodd"/><path fill="#C3BDC9" fill-rule="evenodd" d="M136.24 15.9252C136.321 16.1895 136.393 16.2947 136.458 16.469C136.222 17.2463 135.29 17.517 135.24 17.8013C135.079 17.4381 136.245 17.2356 136.24 15.9252Z" clip-rule="evenodd"/><path fill="#C3BDC9" fill-rule="evenodd" d="M137.124 15.1307C136.978 15.0993 136.838 15.1264 136.676 14.9595C136.703 15.211 136.662 15.3587 136.627 15.5157C136.933 15.693 137.134 17.3426 137.258 17.4162C137.195 16.7067 137.223 15.7728 136.797 15.2651L136.815 15.1796C136.944 15.2265 137.044 15.2138 137.124 15.1307H137.124Z" clip-rule="evenodd"/><path fill="#C3BDC9" fill-rule="evenodd" d="M131.409 16.4201C131.701 15.9787 131.954 15.4647 132.329 15.2005C132.704 14.9362 132.94 15.0378 133.694 14.4157L133.979 13.664C133.343 14.6061 132.592 15.2513 131.506 15.0268C131.57 15.0636 131.606 15.1539 132.051 15.1796C131.821 15.4045 131.623 15.8902 131.409 16.4201Z" clip-rule="evenodd"/><path fill="#DFDDE2" fill-rule="evenodd" d="M131.251 14.3363C131.821 14.624 132.517 14.7711 133.712 13.0529C133.966 12.9828 134.214 12.8437 134.452 12.5945C133.683 14.4563 131.498 15.5943 131.251 14.3363Z" clip-rule="evenodd"/><path fill="#F1EEF0" fill-rule="evenodd" d="M133.797 15.4118C134.709 11.946 137.474 9.87559 135.082 8.02957C136.817 11.0599 134.056 12.3415 133.797 15.4118Z" clip-rule="evenodd"/><path fill="#DFDDE2" fill-rule="evenodd" d="M133.136 12.4112C133.183 13.3216 134.325 12.6465 134.597 12.0507C134.135 12.3652 133.677 12.6491 133.136 12.4112Z" clip-rule="evenodd"/><path fill="#DFDDE2" fill-rule="evenodd" d="M134.851 10.9996C134.956 10.8434 134.976 10.9877 135.155 11.0301C134.737 11.908 134.03 12.1478 133.645 12.1668C134.167 11.8938 134.646 11.5797 134.851 10.9996Z" clip-rule="evenodd"/><path fill="#C3BDC9" fill-rule="evenodd" d="M134.572 9.53217L134.662 9.62288C134.788 9.61763 134.913 9.61896 135.039 9.50195C135.041 9.6123 135 9.66176 134.945 9.69207C135.015 10.3305 134.946 10.7029 134.858 10.9877C134.968 10.8754 135.057 11.0365 135.156 11.0291C135.314 10.7785 135.584 9.90754 135.151 9.15186C135.163 9.36896 134.93 9.59242 134.572 9.53217H134.572Z" clip-rule="evenodd"/><path fill="#C3BDC9" fill-rule="evenodd" d="M133.084 9.25483C133.776 8.97098 134.171 9.47038 134.482 9.51762C134.975 10.2496 134.464 10.8868 134.133 11.2777C134.353 10.8984 134.675 9.37547 133.084 9.25483V9.25483Z" clip-rule="evenodd"/><path fill="#CECAD5" fill-rule="evenodd" d="M133.706 15.8151C134.459 16.171 134.809 15.3071 135.167 14.9718C134.989 14.5609 135.04 14.2236 135.027 13.8657C134.373 14.2244 134.391 15.5256 133.706 15.8151V15.8151Z" clip-rule="evenodd"/><path fill="#CECAD5" fill-rule="evenodd" d="M136.279 9.70401C136.217 9.73261 136.212 9.97722 136.127 9.97285C136.075 11.7202 134.498 12.6915 134.127 15.2162C134.357 14.9457 134.523 13.8805 135.115 12.9016C135.733 11.8798 136.34 11.3063 136.279 9.70401V9.70401Z" clip-rule="evenodd"/><path fill="#DFDDE2" fill-rule="evenodd" d="M135.472 13.0064C134.843 14.7137 136.089 14.7275 136.196 15.2837C134.906 14.8466 134.815 13.8982 135.472 13.0064Z" clip-rule="evenodd"/><path fill="#DFDDE2" fill-rule="evenodd" d="M135.703 8.11047C137.791 9.4791 136 12.2415 135.219 12.9848C135.528 12.287 137.41 10.3662 135.703 8.11047Z" clip-rule="evenodd"/><path fill="#CECAD5" fill-rule="evenodd" d="M136.406 7.35428C136.62 7.74982 136.964 8.37297 136.458 8.24879C137.346 10.2362 136.372 11.2577 135.883 12.3628C134.852 15.0699 136.558 13.9964 136.359 15.8844C136.939 15.2016 136.184 14.2107 136.217 13.8694C136.175 13.3734 136.485 12.302 136.586 11.6539C136.71 12.0113 136.9 12.228 137.126 12.3669C136.728 10.9596 137.973 8.18573 136.406 7.35428V7.35428Z" clip-rule="evenodd"/><path fill="#CECAD5" fill-rule="evenodd" d="M136.612 12.0125C136.712 12.1526 136.783 12.3124 136.946 12.4101C137.03 12.9609 136.263 14.7071 137.418 14.8386C136.478 15.3111 135.966 13.9554 136.612 12.0125V12.0125Z" clip-rule="evenodd"/><path fill="#C3BDC9" fill-rule="evenodd" d="M136.106 6.80733C136.303 6.82145 136.772 7.1535 137.21 6.80127C137.51 7.21337 136.95 7.5622 136.361 7.25381C136.208 7.15446 136.695 7.10841 136.106 6.80733V6.80733Z" clip-rule="evenodd"/><path fill="#DFDDE2" fill-rule="evenodd" d="M132.622 6.95673C132.798 7.15432 132.979 7.25662 133.144 7.73452C133.267 7.73584 133.39 7.75056 133.513 7.78641C133.306 7.45532 133.055 7.1507 132.622 6.95673Z" clip-rule="evenodd"/><path fill="#C3BDC9" fill-rule="evenodd" d="M134.52 6.382C136.337 6.87017 136.166 6.02023 136.492 5.89804C136.814 6.418 135.929 7.0926 134.52 6.382Z" clip-rule="evenodd"/><path fill="#C3BEC9" fill-rule="evenodd" d="M132.3 6.74497C132.197 6.70941 132.102 6.71592 132.043 6.72338C132.205 5.41093 133.648 6.24438 134.426 6.73639C133.444 6.26197 132.212 5.65893 132.3 6.74497V6.74497Z" clip-rule="evenodd"/><path fill="#F1EEF0" fill-rule="evenodd" d="M132.304 6.74495C132.224 5.25279 134.356 6.95725 135.343 7.01719C134.657 7.0957 132.394 5.57774 132.407 6.77089L132.304 6.74495Z" clip-rule="evenodd"/><path fill="#C3BDC9" fill-rule="evenodd" d="M132.441 6.78819L132.621 6.8573C132.639 6.72683 132.688 6.5767 132.754 6.56347C133.173 6.47965 132.78 6.70155 132.849 6.77089C132.928 6.82707 133.015 6.88325 133.106 6.93943C133.11 6.876 133.114 6.8012 133.119 6.71471C133.126 6.37482 134.094 6.92213 134.773 7.14685C134.848 7.34946 134.396 7.60382 134.04 7.53145C134.364 7.78928 135.046 7.66406 135.339 7.24191C135.861 7.2819 135.976 7.19571 136.093 7.06472C135.694 6.98127 135.509 7.1793 134.509 6.90062C133.59 6.63481 132.467 5.84474 132.441 6.78819V6.78819Z" clip-rule="evenodd"/><path fill="#B6B1BF" fill-rule="evenodd" d="M133.273 6.61966C133.386 6.60879 133.489 6.64715 133.59 6.69314C133.387 7.01114 133.685 7.3145 133.852 7.26786C133.908 7.31968 133.966 7.37157 134.156 7.42339C133.887 7.48001 132.987 7.20052 133.273 6.61966V6.61966Z" clip-rule="evenodd"/><path fill="#F6D155" fill-rule="evenodd" d="M130.894 8.4562C129.886 6.5008 132.803 6.15553 133.098 7.7734C133.098 7.7734 133.822 7.80282 134.46 8.14507C135.705 9.05547 134.949 9.57638 134.698 9.53455C134.118 9.54475 134.009 8.98325 133.163 9.19769C132.959 9.27428 132.948 9.37969 132.857 9.37658C132.353 9.2473 133.278 8.22557 134.272 8.96174C134.36 9.02738 134.554 8.89913 134.383 8.70679C133.717 8.02872 132.562 8.40135 132.309 8.46485C131.986 7.93743 131.273 8.05814 130.894 8.4562V8.4562Z" clip-rule="evenodd"/><path fill="#AAA3B5" fill-rule="evenodd" d="M133.788 6.86163C133.914 6.96364 134.557 7.06883 134.572 7.12952C134.366 7.6191 133.694 7.468 133.788 6.86163Z" clip-rule="evenodd"/><path fill="#C3BDC9" fill-rule="evenodd" d="M138.094 20.1113C138.09 20.1202 138.08 20.1254 138.094 20.1479C138.247 20.2241 138.437 20.2699 138.658 20.2885L139.185 23.4235C139.145 22.6077 139.089 21.7647 139.07 20.9852C139.011 20.8354 138.968 20.5595 138.925 20.2823C138.992 20.2752 139.058 20.2644 139.125 20.2457C139.459 22.2272 140.276 22.626 140.434 22.7818C140.002 22.3236 139.418 21.6792 139.228 20.2029C139.517 20.0402 139.649 19.8426 139.743 19.8118C139.772 19.7282 139.754 19.5282 139.713 19.4329C139.422 19.7132 139.159 20.0429 138.573 19.9952C138.534 19.992 138.573 20.0502 138.573 20.0502C138.8 20.3562 138.342 20.1686 138.094 20.1113V20.1113Z" clip-rule="evenodd"/><path fill="#CECAD5" fill-rule="evenodd" d="M139.222 23.7596L139.246 24.2362C139.539 24.046 139.813 23.9875 140.204 23.0812C140.363 24.6877 140.384 26.2494 141.313 26.5707C140.833 25.4668 140.832 24.2547 140.798 23.0874C140.741 23.1608 140.685 23.2138 140.628 23.2645C140.246 23.0415 140.129 22.8631 139.925 22.6596C139.797 23.0599 139.733 23.4806 139.222 23.7596V23.7596Z" clip-rule="evenodd"/><path fill="#DFDDE2" fill-rule="evenodd" d="M139.912 19.8772C140.041 19.925 140.186 19.94 140.337 19.942L140.501 22.2754L139.912 19.8772Z" clip-rule="evenodd"/><path fill="#C3BDC9" fill-rule="evenodd" d="M141.014 19.7086L141.091 19.6524C141.28 20.0809 141.534 20.4596 141.905 20.75L142.904 27.5257L141.46 20.7327C141.453 21.9027 141.132 22.679 140.611 23.2044L140.555 22.7594C141.102 22.0089 141.431 21.1112 141.014 19.7086V19.7086Z" clip-rule="evenodd"/><path fill="#C4BEC9" fill-rule="evenodd" d="M142.54 21.2643C142.691 21.3565 142.865 21.4313 143.063 21.4889C143.669 23.5329 143.898 27.5621 143.101 29.0208L143.033 28.4677C141.638 27.3934 141.291 24.4 141.01 22.7248L141.052 22.6427C141.321 24.173 141.638 27.1194 143.003 28.3165C143.248 27.5329 143.779 25.2732 142.827 21.5062C142.757 21.4256 142.642 21.3449 142.54 21.2643V21.2643Z" clip-rule="evenodd"/><path fill="#DFDDE2" fill-rule="evenodd" d="M141.687 19.0863C141.807 19.0716 141.873 19.08 142.064 19.0345L143.392 21.0352L141.687 19.0863V19.0863Z" clip-rule="evenodd"/><path fill="#DFDDE2" fill-rule="evenodd" d="M143.114 21.5062C143.307 21.5726 143.551 21.6284 143.8 21.6834C143.807 21.7445 145.744 26.7647 147.096 27.1497C145.367 27.4959 144.499 24.439 143.371 22.6341C143.291 22.2526 143.206 21.8762 143.114 21.5062Z" clip-rule="evenodd"/><path fill="#C3BDC9" fill-rule="evenodd" d="M142.889 18.4857C142.872 18.5119 142.856 18.5381 142.828 18.5529C143.616 19.7831 143.635 20.5326 143.531 21.2052L143.853 21.6268C144.013 20.6859 143.84 19.9918 143.616 19.3351L147.538 25.0796L144.071 19.4879L144.804 19.5919C144.193 19.385 143.574 19.3142 142.889 18.4857V18.4857Z" clip-rule="evenodd"/><path fill="#C3BDC9" fill-rule="evenodd" d="M145.253 19.6049C145.402 19.6061 145.537 19.5972 145.638 19.566C146.415 20.8425 148.418 23.1616 148.184 26.3158L147.94 25.8361C146.082 25.4033 144.789 23.0491 144.13 22.0939C145.218 23.5402 146.451 25.4269 147.893 25.7237C148.012 23.369 146.25 21.0591 145.253 19.6049V19.6049Z" clip-rule="evenodd"/><path fill="#DFDDE2" fill-rule="evenodd" d="M145.659 19.5612L145.726 19.6774C147.445 20.6 149.374 22.4279 150.569 21.083C149.331 21.5845 147.325 19.8232 146.004 19.1579L146.065 19.4452C145.919 19.5163 145.789 19.5376 145.659 19.5612V19.5612Z" clip-rule="evenodd"/><path fill="#DFDDE2" fill-rule="evenodd" d="M143.222 17.404C143.227 17.4535 143.221 17.4931 143.21 17.5263L145.35 18.8646L143.398 17.294C143.351 17.3443 143.285 17.3698 143.222 17.404H143.222Z" clip-rule="evenodd"/><path fill="#C3BDC9" fill-rule="evenodd" d="M145.887 18.6629C145.924 18.8067 145.967 18.9447 145.99 19.1037C148.549 20.2972 150.083 20.0032 150.824 19.5357L150.43 19.3888C149.304 20.1404 146.577 19.1253 145.887 18.6629V18.6629Z" clip-rule="evenodd"/><path fill="#C3BDC9" fill-rule="evenodd" d="M143.855 16.6233C143.855 16.6579 143.842 16.6924 143.83 16.727C144.916 17.3048 145.677 18.3778 145.647 19.1166L146.015 19.4234C145.874 18.1883 145.434 17.7263 144.991 17.2671L150.19 19.3197L145.141 16.9344C145.814 16.7802 146.517 16.7416 147.096 16.0356L148.287 15.9924C149.303 15.8351 150.459 15.2421 150.576 14.6874L150.194 14.7305C149.707 15.8178 147.784 15.7804 146.787 15.8195C146.325 16.6931 144.855 16.7581 143.855 16.6233V16.6233Z" clip-rule="evenodd"/><path fill="#DFDDE2" fill-rule="evenodd" d="M146.761 16.3856C146.631 16.4906 146.495 16.5686 146.354 16.6275C146.897 16.7435 147.404 16.8919 147.867 17.077C149.212 17.2191 150.543 17.0122 150.601 15.8584C150.036 16.7771 148.424 16.6077 146.761 16.3856V16.3856Z" clip-rule="evenodd"/><path fill="#DFDDE2" fill-rule="evenodd" d="M143.834 15.5775C143.871 15.6899 143.885 15.7889 143.907 15.8973L146.663 15.8238C145.72 15.7418 144.756 15.6704 143.834 15.5775Z" clip-rule="evenodd"/><path fill="#C3BDC9" fill-rule="evenodd" d="M145.163 14.4584C145.723 14.7159 146.234 15.0046 146.646 15.3312L146.281 14.9942C147.46 14.8963 148.659 14.8015 149.984 14.7263L145.793 14.7003L145.163 14.4584V14.4584Z" clip-rule="evenodd"/><path fill="#C3BDC9" fill-rule="evenodd" d="M144.277 14.5562C144.264 14.6153 144.233 14.6744 144.21 14.7335L145.132 14.4646C146.51 13.468 146.576 12.9694 146.75 12.4295L148.853 11.1096L146.465 12.3074C145.168 12.32 144.836 12.5012 144.441 12.6068C145.54 12.3666 146.263 12.3255 146.665 12.454L146.41 12.6129C146.079 13.7166 144.842 14.3595 144.277 14.5562Z" clip-rule="evenodd"/><path fill="#DFDDE2" fill-rule="evenodd" d="M144.267 13.6503C144.306 13.7204 144.312 13.8074 144.331 13.8879C144.989 13.533 145.604 13.1343 146.217 12.7342C145.567 13.0558 144.917 13.3842 144.267 13.6503V13.6503Z" clip-rule="evenodd"/><path fill="#DFDDE2" fill-rule="evenodd" d="M146.041 13.7886C146.782 13.7254 147.534 13.7078 148.309 13.7713C148.489 13.6686 150.365 13.1165 149.912 12.1162C149.372 13.2117 147.369 13.5867 147.211 13.6762C146.896 13.7085 146.118 13.7404 146.041 13.7886V13.7886Z" clip-rule="evenodd"/><path fill="#DFDCE1" fill-rule="evenodd" d="M149.136 10.9711L149.552 10.7896C149.596 10.8745 149.295 11.4443 148.762 12.0402C148.067 12.8176 147.658 13.1543 146.333 13.3953C146.359 13.3597 146.382 13.324 146.402 13.2884C147.427 13.0072 148.837 11.9997 149.136 10.9711V10.9711Z" clip-rule="evenodd"/><path fill="#DFDDE2" fill-rule="evenodd" d="M144.73 12.0687L144.61 12.2589C145.791 11.4004 146.726 10.876 147.439 10.6513C148.146 9.89742 148.308 9.15267 148.013 8.71979C148.058 10.1133 145.864 11.1557 144.73 12.0687V12.0687Z" clip-rule="evenodd"/><path fill="#C3BEC9" fill-rule="evenodd" d="M143.971 12.6002L143.928 12.9545C144.801 12.3119 145.272 11.1449 145.15 10.1587L144.837 10.4828L143.474 11.5977C143.547 11.664 143.628 11.7302 143.68 11.7965L144.837 10.5174C144.913 11.5711 144.209 12.3893 143.971 12.6002V12.6002Z" clip-rule="evenodd"/><path fill="#DFDDE2" fill-rule="evenodd" d="M145.158 10.9495L145.077 11.2434C145.641 10.8853 146.036 10.5094 146.384 10.1285C147.359 8.98532 147.486 7.99183 147.567 7.51416L147.147 7.85552C147.215 9.30791 145.6 10.7074 145.158 10.9495V10.9495Z" clip-rule="evenodd"/><path fill="#C3BDC9" fill-rule="evenodd" d="M144.678 10.1328C144.841 10.1259 145.004 10.1214 145.167 10.1372L147.083 7.92038L144.678 10.1328Z" clip-rule="evenodd"/><path fill="#C3BDC9" fill-rule="evenodd" d="M143.268 8.87531L143.033 9.15184C143.133 9.69656 143.13 10.4299 142.33 11.3211L142.355 11.3686L142.411 11.3513C143.045 10.5556 143.711 10.3491 144.378 10.1501C143.99 10.2476 143.603 10.3116 143.165 10.539C143.464 9.62656 143.331 9.15924 143.268 8.87531V8.87531Z" clip-rule="evenodd"/><path fill="#DFDDE2" fill-rule="evenodd" d="M143.358 9.60129L143.354 9.77847C144.039 9.35358 144.733 8.83725 145.36 8.13205C145.725 7.65704 146.195 6.99095 146.251 6.0838L145.891 6.36906C145.82 7.87725 143.892 9.17625 143.358 9.60129H143.358Z" clip-rule="evenodd"/><path fill="#DFDDE2" fill-rule="evenodd" d="M141.802 9.40682C142.358 9.1645 142.901 8.93484 143.277 8.86239L145.69 6.60236C145.045 7.07323 143.688 8.25684 143.05 8.7371C142.83 8.90246 142.609 8.89713 141.802 9.40682V9.40682Z" clip-rule="evenodd"/><path fill="#F1EEF0" fill-rule="evenodd" d="M145.818 6.38638C139.717 7.45985 136.328 14.8806 140.409 14.212L140.182 14.1559C139.366 14.2284 139.157 13.5113 139.236 13.0572C139.308 12.5616 139.777 12.2893 139.912 12.2426C139.876 11.8052 139.862 11.3713 140.285 11.0057C140.455 10.5917 140.649 10.3785 140.842 10.1631C141.483 7.82206 144.719 6.65605 145.818 6.38638Z" clip-rule="evenodd"/><path fill="#C3BDC9" fill-rule="evenodd" d="M142.977 9.13467C142.214 9.24659 141.169 10.0973 141.01 10.4525C140.994 10.4883 141.019 10.5391 140.748 10.686L140.761 10.7335C141.023 10.6214 141.731 10.7288 141.065 10.8977C141.502 10.8858 141.882 11.0599 142.137 11.6453C143.547 11.4287 143.896 12.4679 143.542 13.1577C144.472 13.9702 143.884 15.0166 143.375 15.2102C143.685 15.9054 143.849 16.8291 142.899 17.185C142.897 17.8051 142.812 18.7706 141.357 18.758C141.182 19.1756 140.665 19.8893 139.788 19.5099C139.788 19.5099 139.787 19.5355 139.779 19.5617C139.765 19.6106 140.142 19.7059 140.148 19.6827C140.447 19.7174 140.482 19.9145 140.118 19.8297C139.986 19.7902 139.869 19.7581 139.775 19.7129C139.777 19.7447 139.778 19.7764 139.758 19.808C140.706 20.1381 141.252 19.5609 141.549 19.0647C142.679 19.0051 143.147 18.3771 143.204 17.3968C144.129 16.8122 143.999 15.9308 143.714 15.3226C144.538 14.7009 144.479 13.6094 143.855 13.1015C144.279 11.6677 143.011 11.2812 142.342 11.3817C142.117 10.9995 141.97 10.9441 141.811 10.8372L143.007 9.19943L141.554 10.7075C141.409 10.6575 141.22 10.6353 140.984 10.6427C141.291 9.86235 142.5 9.27113 142.977 9.13467V9.13467Z" clip-rule="evenodd"/><path fill="#DFA12F" fill-rule="evenodd" d="M131.863 7.42336C132.044 7.69619 132.348 7.34707 132.857 7.88573L132.917 7.85986C132.803 7.39637 132.492 7.11429 132.034 7.0647C132.23 7.23752 132.088 7.24772 132.08 7.35816C132.073 7.45522 132.083 7.57408 131.863 7.42336V7.42336Z" clip-rule="evenodd"/><path fill="#DFA12F" fill-rule="evenodd" d="M131.057 8.2617C131.333 8.11039 131.935 7.88323 132.317 8.42595C133.521 8.07098 134.372 8.39645 134.49 8.88395C134.565 8.75127 134.225 8.0171 132.853 8.14069C131.681 7.31426 131.017 8.06152 131.057 8.2617V8.2617Z" clip-rule="evenodd"/><path fill="#DEA12F" fill-rule="evenodd" d="M132.891 9.3032C132.683 9.29433 133.333 8.51883 134.4 9.25996C134.783 9.41068 134.965 9.2142 134.893 8.89694C134.868 8.66327 134.739 8.53325 134.662 8.35251C135.198 8.75871 135.263 9.25959 134.9 9.46139C134.335 9.74525 133.938 8.73482 132.891 9.3032V9.3032Z" clip-rule="evenodd"/><path fill="#C3BDC9" fill-rule="evenodd" d="M132.008 20.365L132.244 20.7086L132.179 20.6677C131.509 20.9908 131.162 20.8642 130.832 20.7168L130.799 20.6923C130.11 20.8296 129.672 20.6473 129.306 20.3731C129.332 20.5798 129.475 20.7389 129.663 20.8805L128.94 24.0718L129.289 21.0769C128.875 22.2466 128.333 22.7935 127.585 23.1226L127.642 22.7952C128.325 22.443 128.909 21.7757 129.184 20.3322C128.912 20.3687 128.639 20.4025 128.356 20.3322L127.674 22.6971L127.999 20.2504C127.703 20.0526 127.455 19.8064 127.212 19.5548V19.5139C127.285 19.6188 127.36 19.3004 127.35 19.2029C127.859 20.0399 128.585 20.1964 129.289 19.9558C129.287 20.0349 129.291 20.1052 129.257 20.2258L129.289 20.2176C129.319 20.2158 129.331 20.1418 129.35 20.0785C129.329 20.0641 129.324 20.0298 129.314 20.0049L129.322 19.9804C129.711 20.6873 130.679 20.3562 130.799 20.414C130.784 20.4517 130.808 20.5537 130.823 20.6432L130.84 20.6677C130.859 20.6268 130.861 20.5695 130.848 20.4959L130.815 20.4304L130.844 20.4468C131.174 20.6941 131.626 20.6778 132.008 20.365V20.365Z" clip-rule="evenodd"/><path fill="#C1C0C8" fill-rule="evenodd" d="M129.764 20.9296C129.986 21.0339 130.218 21.1205 130.47 21.171C130.351 22.668 129.599 24.3796 128.806 24.886L128.826 24.4646C128.632 24.1375 128.479 23.6131 128.437 22.5416L128.502 22.4761C128.52 23.2224 128.6 23.9082 128.847 24.4318C129.224 24.1463 130.047 23.1943 130.174 21.3633C130.181 21.2513 130.15 21.1812 130.088 21.1464C129.941 21.0642 129.852 20.9968 129.764 20.9296V20.9296Z" clip-rule="evenodd"/><path fill="#C3BDC9" fill-rule="evenodd" d="M126.895 27.2631C127.752 27.4934 128.319 25.8271 128.645 24.7052C128.495 24.4047 128.281 24.0931 128.267 22.7298L128.194 22.8034C128.103 24.5508 128.087 26.4799 126.895 27.2631V27.2631Z" clip-rule="evenodd"/><path fill="#DFDDE3" fill-rule="evenodd" d="M127.305 19.653L127.357 19.7051C127.293 20.0352 126.85 21.2334 127.397 22.4014C127.091 21.9466 126.835 21.2267 127.305 19.653V19.653Z" clip-rule="evenodd"/><path fill="#C3BDC9" fill-rule="evenodd" d="M126.84 20.3878L126.674 20.654L124.854 28.1008L126.783 21.898C126.878 22.2593 126.999 22.6345 127.5 23.223C126.792 25.7543 125.67 28.0145 124.705 28.61L124.797 28.3033C124.386 27.0493 124.715 24.4146 125.417 21.7649C124.969 23.2173 124.045 26.3939 124.631 28.7083L124.447 29.2812C126.356 27.9664 127.479 24.6718 127.902 22.9916C127.798 23.0757 127.682 23.1211 127.563 23.1594C126.964 22.6184 126.675 21.746 126.84 20.3878V20.3878Z" clip-rule="evenodd"/><path fill="#C3BDC9" fill-rule="evenodd" d="M125.694 18.3028C125.741 18.5311 126.008 18.7999 126.14 19.0312C126.211 19.1507 126.29 19.1973 126.392 19.0557L126.473 18.9248C126.672 19.1505 126.943 19.2699 127.341 19.2029L126.862 20.3159C126.307 21.4013 125.567 21.6356 124.833 21.8952L125.061 21.4696C126.016 21.3777 126.699 20.4274 127.057 19.5467C126.819 19.4928 126.589 19.3985 126.32 19.2217L125.19 21.1996L125.937 19.2029C126.087 18.889 125.692 18.6429 125.694 18.3028V18.3028Z" clip-rule="evenodd"/><path fill="#CECAD5" fill-rule="evenodd" d="M125.239 21.7642C125.105 21.8204 124.966 21.8708 124.817 21.9115C123.589 24.6872 122.9 27.1645 120.71 27.939C122.698 28.3191 124.034 25.1086 124.517 24.1455C124.872 23.2712 125.083 22.4575 125.239 21.7642V21.7642Z" clip-rule="evenodd"/><path fill="#E0DEE4" fill-rule="evenodd" d="M125.515 18.3799C125.291 18.65 124.532 19.7211 125.01 21.5103L125.05 21.4582C124.708 20.2717 125.064 18.9493 125.515 18.3799V18.3799Z" clip-rule="evenodd"/><path fill="#C3BDC9" fill-rule="evenodd" d="M124.695 19.9599C124.631 20.4244 124.655 20.7895 124.675 21.1587C123.185 23.8189 120.697 26.2745 119.261 26.3752C121.093 23.9016 122.925 21.3455 124.756 18.8306C124.874 18.78 124.992 18.6985 125.109 18.6178C124.917 18.9037 124.828 19.1373 124.789 19.3462L119.753 25.8556C121.436 25.715 124.194 21.6946 124.606 20.6104C124.609 20.2856 124.65 20.1126 124.695 19.9599V19.9599Z" clip-rule="evenodd"/><path fill="#DFDCE1" fill-rule="evenodd" d="M119.566 25.9498L119.683 25.8025C119.538 23.2908 122.361 20.3045 123.121 19.3666C122.995 19.6385 119.397 22.8244 119.566 25.9498Z" clip-rule="evenodd"/><path fill="#DFDDE2" fill-rule="evenodd" d="M117.521 21.4533C117.943 22.1208 118.654 22.5385 121.319 20.905C121.852 20.3127 122.385 19.7038 122.918 19.1948L122.788 19.1866C121.89 19.5643 119.574 22.0115 117.521 21.4533V21.4533Z" clip-rule="evenodd"/><path fill="#C3BDC9" fill-rule="evenodd" d="M124.452 16.7399C124.111 16.8827 122.791 17.3643 122.658 18.8593L122.374 19.0189C124.168 19.6212 125.536 18.2546 125.807 18.0001C125.527 17.8193 125.242 17.6717 125.004 17.2391L124.768 17.3536C124.189 17.839 123.49 18.3074 122.816 18.7611L124.906 17.6891C125.028 17.826 125.166 17.9674 125.458 18.1473C124.192 19.0244 123.202 18.9807 122.719 18.8552C122.789 17.9908 123.301 17.2554 124.452 16.7399V16.7399Z" clip-rule="evenodd"/><path fill="#CECAD5" fill-rule="evenodd" d="M122.433 18.5189C122.393 18.7012 122.348 18.8902 122.352 19.0281C121.781 19.2551 121.15 19.4356 120.441 19.5546C120.401 19.566 120.214 19.6384 120.143 19.5026C120.061 19.4495 119.97 19.4362 119.873 19.4447C119.856 19.4001 119.767 19.4198 119.755 19.3781C121.492 19.0749 122.284 18.6557 122.433 18.5189Z" clip-rule="evenodd"/><path fill="#DFDDE1" fill-rule="evenodd" d="M120.487 17.2286C120.029 17.4533 118.124 18.4745 117.795 19.4505C118.724 19.734 119.421 19.4863 119.841 19.4462C119.822 19.4193 119.744 19.4246 119.735 19.3811C119.042 19.482 118.215 19.529 117.985 19.3926L118.157 19.3058C118.211 18.4776 120.175 17.4407 120.487 17.2285V17.2286Z" clip-rule="evenodd"/><path fill="#C3BDC9" fill-rule="evenodd" d="M118.266 19.2769C121.371 18.1177 122.876 17.1839 124.533 16.621V16.6788C124.4 16.7636 123.312 17.0208 122.886 17.6451L118.266 19.2769V19.2769Z" clip-rule="evenodd"/><path fill="#C3BDC9" fill-rule="evenodd" d="M123.994 16.7946C123.779 16.8855 123.57 16.9579 123.345 17.0781C122.331 16.9295 122.166 16.6744 121.733 16.4648L121.819 16.4301C121.979 16.5477 122.178 16.6398 122.37 16.7368C122.667 16.8379 122.739 16.7169 122.444 16.6095C122.088 16.4953 121.865 16.3413 121.669 16.1928C122.019 15.5104 122.842 15.1855 122.949 15.1339C122.493 15.433 121.967 15.6977 121.83 16.1523C122.538 16.0466 123.289 15.9215 124.212 15.7184C124.281 15.842 124.349 15.9641 124.482 16.1407L124.459 16.1697L124.321 16.0019L121.847 16.1928C122.534 16.6662 123.266 16.7113 123.994 16.7946V16.7946Z" clip-rule="evenodd"/><path fill="#DFDDE2" fill-rule="evenodd" d="M117.638 15.8398C117.926 16.8028 120.321 16.5575 121.737 16.4576L121.81 16.4331C121.695 16.3526 121.595 16.2721 121.534 16.1916C120.945 16.0671 118.269 16.6341 117.638 15.8398V15.8398Z" clip-rule="evenodd"/><path fill="#DFDDE2" fill-rule="evenodd" d="M122.151 15.312L122.179 15.3365C122.012 15.4791 121.844 15.603 121.676 15.807C119.458 15.8121 118.061 14.9209 117.667 14.4037C118.215 13.9566 118.908 13.7995 119.639 13.7204C119.011 13.9086 118.275 14.0183 117.939 14.4201H117.78C118.81 15.5803 121.558 16.0976 122.151 15.312V15.312Z" clip-rule="evenodd"/><path fill="#C3BDC9" fill-rule="evenodd" d="M118.077 14.4569C119.552 14.6661 120.99 14.8481 122.504 15.087C122.709 14.9056 123.076 14.7869 123.649 14.7474C123.454 14.7421 123.293 14.7217 122.987 14.7678C121.299 14.7921 119.706 14.5801 118.077 14.4569V14.4569Z" clip-rule="evenodd"/><path fill="#C3BDC9" fill-rule="evenodd" d="M124.399 14.2319C124.261 14.3776 124.188 14.5886 124.135 14.8211C122.514 14.2877 122.25 13.2635 122.196 13.1599C123.17 12.4777 123.757 12.7318 124.566 12.7139C122.848 12.6334 122.396 13.0867 122.321 13.1763C122.966 13.3544 123.422 13.5193 124.805 13.7491C124.673 13.8437 124.59 13.9313 124.533 14.015C123.999 13.7952 123.012 13.49 122.309 13.2131C122.42 13.6854 123.145 14.3965 123.754 14.5796C123.924 14.6251 124.11 14.7101 124.176 14.4937C124.202 14.4046 124.336 14.2649 124.399 14.2319Z" clip-rule="evenodd"/><path fill="#DFDDE2" fill-rule="evenodd" d="M118.231 12.0839C118.537 12.3971 119.723 13.4309 121.883 13.1722C121.966 13.3848 122.048 13.4629 122.131 13.5486C121.557 13.4605 120.982 13.3965 120.398 13.4381C119.448 13.1502 118.582 12.8028 118.231 12.0839V12.0839Z" clip-rule="evenodd"/><path fill="#DFDDE2" fill-rule="evenodd" d="M122.638 12.5338C122.672 12.5545 122.703 12.5769 122.747 12.5871C122.394 12.7284 122.12 12.8822 121.907 13.0453C120.818 12.705 119.272 11.8948 118.714 10.8728C119.388 10.5696 120.533 10.7102 121.197 10.8728C120.46 10.8659 119.579 10.7146 119.14 11.0078L118.807 10.8891C118.939 11.3256 121.257 13.3626 122.638 12.5338V12.5338Z" clip-rule="evenodd"/><path fill="#C3BDC9" fill-rule="evenodd" d="M119.258 11.065C120.642 11.5528 121.956 12.0351 123.06 12.5012C123.405 12.4168 123.741 12.4405 124.075 12.497C123.998 12.4209 123.918 12.3544 123.851 12.2475L123.823 12.2597L123.961 12.4439C122.084 11.7986 120.697 11.4476 119.258 11.065V11.065Z" clip-rule="evenodd"/><path fill="#DFDDE2" fill-rule="evenodd" d="M123.612 11.6174C123.507 11.4166 123.406 11.2108 123.397 10.9137C122.877 11.1599 120.5 10.1224 119.935 8.81885C119.974 9.96669 122.003 10.8659 123.612 11.6174Z" clip-rule="evenodd"/><path fill="#C3BDC9" fill-rule="evenodd" d="M124.987 12.3334C124.916 12.4129 124.855 12.5086 124.764 12.5585C124.718 12.5885 124.675 12.5829 124.634 12.5585C123.797 12.0169 123.629 11.0778 123.648 10.885C124.293 10.7747 125.193 10.7896 126.432 11.5642C126.161 11.5061 125.245 10.8261 123.778 10.9505C123.751 11.4607 124.137 12.4371 124.987 12.3334V12.3334Z" clip-rule="evenodd"/><path fill="#C3BDC9" fill-rule="evenodd" d="M123.892 11.0365L125.377 12.1289C125.569 12.1388 125.761 12.1336 125.953 12.227C125.964 12.1885 125.982 12.1387 126.014 12.0675C125.195 11.7238 124.595 11.3801 123.892 11.0365Z" clip-rule="evenodd"/><path fill="#DFDDE2" fill-rule="evenodd" d="M120.539 7.54825L120.935 7.78546C120.883 8.6912 122.476 10.4526 124.252 10.5918C123.961 10.6216 123.639 10.614 123.408 10.7133C122.569 10.1894 122.004 9.63161 121.537 9.14522C121.439 9.16008 121.362 8.91229 121.199 8.98903C120.747 8.40113 120.569 7.9401 120.539 7.54825V7.54825Z" clip-rule="evenodd"/><path fill="#C4BECA" fill-rule="evenodd" d="M123.127 8.24841C122.533 8.0163 121.995 7.75018 120.963 7.79128C122.564 8.96092 123.437 9.6979 124.613 10.6149C125.151 10.6961 125.669 10.9367 126.192 11.1415C126.124 10.9968 126.072 10.8522 126.043 10.7075C126.051 10.829 126.048 10.9505 126.123 11.072C125.424 10.8693 122.55 8.80842 121.141 7.8896C121.672 7.72128 122.422 8.03477 123.127 8.24841V8.24841Z" clip-rule="evenodd"/><path fill="#DFDDE2" fill-rule="evenodd" d="M123.948 8.30621C123.302 7.7408 122.585 7.09769 122.421 6.19431C123.174 6.28442 124.645 6.79617 125.784 7.62348C124.723 7.00965 123.721 6.54972 122.903 6.56458C122.836 7.31272 123.519 7.80562 123.948 8.30621V8.30621Z" clip-rule="evenodd"/><path fill="#C3BDC9" fill-rule="evenodd" d="M122.955 6.58771L122.92 6.61668C124.01 7.42781 124.799 8.20109 125.658 8.98324C125.901 9.18888 125.866 9.41057 125.893 9.63129C125.982 9.527 125.866 9.17166 126.055 9.13455C126.233 9.10018 126.914 9.4561 126.955 9.39985C125.347 8.68142 124.278 7.53381 122.955 6.58771Z" clip-rule="evenodd"/><path fill="#E0DEE4" fill-rule="evenodd" d="M126.375 10.9273C126.221 10.6773 125.983 9.9062 126.14 9.38824C128.209 9.83893 128.556 11.4797 128.591 11.8068C128.286 10.6175 127.16 9.53793 126.387 9.67757C126.86 10.1164 127.438 11.0164 127.799 11.4018C127.628 11.4105 127.456 11.4191 127.345 11.4655C127.055 11.4329 126.921 11.4915 126.771 11.5407C126.612 11.3543 126.554 11.2135 126.456 11.0547C126.665 11.3523 126.967 11.307 127.282 11.2167C126.965 10.6329 126.647 10.2128 126.329 9.71808C126.172 9.83731 126.321 10.4598 126.375 10.9273V10.9273Z" clip-rule="evenodd"/><path fill="#DFDDE2" fill-rule="evenodd" d="M127.208 8.70547C130.727 11.06 130.992 14.93 128.505 14.295C131.489 13.9335 127.991 9.4639 127.208 8.70547Z" clip-rule="evenodd"/><path fill="#C3BDC9" fill-rule="evenodd" d="M127.37 11.4783C127.659 11.3561 128.435 11.3697 128.47 12.5748L128.214 12.7671C128.219 12.4371 128.271 11.6925 127.37 11.4783V11.4783Z" clip-rule="evenodd"/><path fill="#C3BDC9" fill-rule="evenodd" d="M128.214 12.7876L128.481 12.5912C129.762 13.0825 129.134 14.478 128.242 14.2564C129.307 14.1466 129.078 12.7774 128.214 12.7876Z" clip-rule="evenodd"/><path fill="#DFA12F" fill-rule="evenodd" d="M132.344 3.73877C132.518 4.04502 132.034 4.96421 132.867 4.82613C133.15 5.00524 133.403 4.90804 133.529 4.90878C134.081 4.71496 134.065 4.33116 134.1 4.22842C133.621 3.54886 134.158 3.41921 134.217 3.37626C134.513 3.41263 134.665 3.96363 134.267 4.13934C134.299 4.16477 134.347 4.16056 134.412 4.12663C134.407 5.00931 135.029 5.07081 135.459 4.92785C136.309 5.1618 135.897 4.17165 136.298 3.43355C135.843 4.24239 136.136 4.97774 135.472 4.88335C135.643 4.46577 135.192 4.14045 135.415 3.68791C135.069 3.98662 135.644 4.53888 135.415 4.82613C135.181 5.03296 134.954 4.86073 134.949 4.76892C134.853 4.46932 135.532 4.10549 135.125 3.55434C135.264 3.85268 135.216 3.98692 135.142 4.1766C135.067 4.36627 134.78 4.53822 134.911 4.91513C134.613 4.85578 134.459 4.49992 134.541 4.21917C134.623 3.94241 134.762 3.4785 134.242 3.32858C133.586 3.52743 133.92 4.05108 133.999 4.14437C134.16 4.3203 133.865 4.85119 133.495 4.84838C133.664 4.58774 133.463 4.53511 133.214 4.12027C133.196 4.34077 133.711 4.6386 133.416 4.81342C133.265 4.93539 133.05 4.86369 132.962 4.77528C132.795 4.58375 133.197 4.36051 133.123 3.99313C133.015 4.53186 132.86 4.49978 132.88 4.7562C132.686 4.81165 132.485 4.88202 132.422 4.50998C132.426 3.99897 132.416 3.68495 132.344 3.73877H132.344Z" clip-rule="evenodd"/><path fill="#DFA12F" fill-rule="evenodd" d="M135.756 5.82131L135.765 5.87534C134.748 5.9415 133.711 5.74517 132.713 5.72269V5.67502C133.723 5.70008 134.522 5.87911 135.756 5.82131H135.756Z" clip-rule="evenodd"/><path fill="#DFA12F" fill-rule="evenodd" d="M134.189 5.99612L134.186 6.03745C134.77 6.12955 135.355 6.22269 135.841 6.17421V6.1297C135.255 6.20326 134.726 6.08461 134.189 5.99612Z" clip-rule="evenodd"/><path fill="#E1A02F" fill-rule="evenodd" d="M132.791 5.15042C132.63 5.20246 132.706 5.44107 132.788 5.43974C132.974 5.44905 133.16 5.47582 133.346 5.4461C133.452 5.39598 133.487 5.20785 133.369 5.13135C133.173 5.1071 132.979 5.10733 132.791 5.15042V5.15042ZM132.757 5.11863C133.078 5.05654 133.371 5.09639 133.536 5.12817C133.684 5.16779 133.684 5.42762 133.536 5.48106C133.368 5.49666 133.007 5.49282 132.76 5.47153C132.598 5.33603 132.682 5.17215 132.757 5.11863Z" clip-rule="evenodd"/><path fill="#E1A02F" fill-rule="evenodd" d="M133.911 5.40794C134.33 5.46338 134.685 5.4962 134.595 5.1663C134.476 5.16793 133.669 4.98542 133.911 5.40794ZM133.898 5.45244C133.842 5.39242 133.763 5.26269 133.917 5.10273C134.151 5.08603 134.391 5.10043 134.633 5.13451C134.856 5.22736 134.836 5.42746 134.652 5.51284C134.259 5.51246 134.049 5.48652 133.898 5.45244H133.898Z" clip-rule="evenodd"/><path fill="#E1A02F" fill-rule="evenodd" d="M135.043 5.46893C135.456 5.55852 135.803 5.63621 135.741 5.30002C135.622 5.29181 134.835 5.028 135.043 5.46893ZM135.026 5.51224C134.975 5.44779 134.907 5.31207 135.073 5.16519C135.667 5.19609 135.567 5.20341 135.784 5.25552C135.999 5.36633 135.963 5.56414 135.773 5.63422C135.258 5.64523 135.169 5.56029 135.026 5.51224H135.026Z" clip-rule="evenodd"/><path fill="#C3BDC9" fill-rule="evenodd" d="M127.508 12.0417L126.849 13.9982C127.033 13.9948 127.19 14.0076 127.508 13.9411C127.806 13.325 127.867 12.4525 127.508 12.0417V12.0417Z" clip-rule="evenodd"/><path fill="#fff" fill-rule="evenodd" d="M128.039 15.8571L126.849 14.0028C126.82 13.9639 126.548 14.7712 126.511 15.0205C126.658 15.427 127.36 15.8471 128.039 15.8571Z" clip-rule="evenodd"/><path fill="#C3BDC9" fill-rule="evenodd" d="M127.843 14.4214C128.26 14.2706 128.341 14.0172 128.346 13.8649L127.509 13.9399C127.628 14.0909 127.749 14.2472 127.843 14.4214V14.4214Z" clip-rule="evenodd"/><path fill="#C3BDC9" fill-rule="evenodd" d="M126.454 13.0169C126.286 12.9043 125.74 12.8648 125.625 12.9646L126.325 13.6163C126.353 13.4256 126.392 13.2052 126.454 13.0169Z" clip-rule="evenodd"/><path fill="#C3BDC9" fill-rule="evenodd" d="M124.875 15.0262L126.836 14.0072C126.88 13.9881 126.601 14.7882 126.51 15.0229C126.277 15.1437 125.304 15.3778 124.875 15.0262V15.0262Z" clip-rule="evenodd"/><path fill="#000" fill-opacity=".7" d="M0.703125 53.5926V52.8895L5.01563 46.452H0.65625V45.5926H6.17188V46.2957L1.85938 52.7332H6.21875V53.5926H0.703125ZM10.2344 53.7176C9.65625 53.7176 9.15755 53.59 8.73828 53.3348C8.32161 53.077 8 52.7176 7.77344 52.2567C7.54948 51.7931 7.4375 51.2541 7.4375 50.6395C7.4375 50.0249 7.54948 49.4832 7.77344 49.0145C8 48.5431 8.3151 48.176 8.71875 47.9129C9.125 47.6473 9.59896 47.5145 10.1406 47.5145C10.4531 47.5145 10.7617 47.5666 11.0664 47.6707C11.3711 47.7749 11.6484 47.9442 11.8984 48.1786C12.1484 48.4103 12.3477 48.7176 12.4961 49.1004C12.6445 49.4832 12.7188 49.9546 12.7188 50.5145V50.9051H8.09375V50.1082H11.7813C11.7813 49.7697 11.7135 49.4676 11.5781 49.202C11.4453 48.9364 11.2552 48.7267 11.0078 48.5731C10.763 48.4194 10.474 48.3426 10.1406 48.3426C9.77344 48.3426 9.45573 48.4338 9.1875 48.6161C8.92188 48.7957 8.71745 49.0301 8.57422 49.3192C8.43099 49.6082 8.35938 49.9181 8.35938 50.2489V50.7801C8.35938 51.2332 8.4375 51.6174 8.59375 51.9325C8.7526 52.245 8.97266 52.4832 9.25391 52.6473C9.53516 52.8088 9.86198 52.8895 10.2344 52.8895C10.4766 52.8895 10.6953 52.8556 10.8906 52.7879C11.0885 52.7176 11.2591 52.6135 11.4023 52.4754C11.5456 52.3348 11.6563 52.1603 11.7344 51.952L12.625 52.202C12.5313 52.5041 12.3737 52.7697 12.1523 52.9989C11.931 53.2254 11.6576 53.4025 11.332 53.5301C11.0065 53.6551 10.6406 53.7176 10.2344 53.7176ZM18.3711 48.9364L17.543 49.1707C17.4909 49.0327 17.4141 48.8986 17.3125 48.7684C17.2135 48.6356 17.0781 48.5262 16.9063 48.4403C16.7344 48.3543 16.5143 48.3114 16.2461 48.3114C15.8789 48.3114 15.5729 48.396 15.3281 48.5653C15.0859 48.7319 14.9648 48.9442 14.9648 49.202C14.9648 49.4312 15.0482 49.6122 15.2148 49.745C15.3815 49.8778 15.6419 49.9885 15.9961 50.077L16.8867 50.2957C17.4232 50.426 17.8229 50.6252 18.0859 50.8934C18.349 51.159 18.4805 51.5015 18.4805 51.9207C18.4805 52.2645 18.3815 52.5718 18.1836 52.8426C17.9883 53.1135 17.7148 53.327 17.3633 53.4832C17.0117 53.6395 16.6029 53.7176 16.1367 53.7176C15.5247 53.7176 15.0182 53.5848 14.6172 53.3192C14.2161 53.0536 13.9622 52.6655 13.8555 52.1551L14.7305 51.9364C14.8138 52.2593 14.9714 52.5015 15.2031 52.6629C15.4375 52.8244 15.7435 52.9051 16.1211 52.9051C16.5508 52.9051 16.8919 52.814 17.1445 52.6317C17.3997 52.4468 17.5273 52.2254 17.5273 51.9676C17.5273 51.7593 17.4544 51.5848 17.3086 51.4442C17.1628 51.301 16.9388 51.1942 16.6367 51.1239L15.6367 50.8895C15.0872 50.7593 14.6836 50.5575 14.4258 50.284C14.1706 50.008 14.043 49.6629 14.043 49.2489C14.043 48.9103 14.138 48.6108 14.3281 48.3504C14.5208 48.09 14.7826 47.8856 15.1133 47.7372C15.4466 47.5887 15.8242 47.5145 16.2461 47.5145C16.8398 47.5145 17.306 47.6447 17.6445 47.9051C17.9857 48.1655 18.2279 48.5093 18.3711 48.9364ZM19.8682 55.8426V47.5926H20.7588V48.5457H20.8682C20.9359 48.4416 21.0296 48.3088 21.1494 48.1473C21.2718 47.9832 21.4463 47.8374 21.6729 47.7098C21.902 47.5796 22.2119 47.5145 22.6025 47.5145C23.1077 47.5145 23.5531 47.6408 23.9385 47.8934C24.3239 48.146 24.6247 48.5041 24.8408 48.9676C25.057 49.4312 25.165 49.978 25.165 50.6082C25.165 51.2437 25.057 51.7944 24.8408 52.2606C24.6247 52.7241 24.3252 53.0835 23.9424 53.3387C23.5596 53.5913 23.1182 53.7176 22.6182 53.7176C22.2327 53.7176 21.9242 53.6538 21.6924 53.5262C21.4606 53.396 21.2822 53.2489 21.1572 53.0848C21.0322 52.9181 20.9359 52.7801 20.8682 52.6707H20.79V55.8426H19.8682ZM20.7744 50.5926C20.7744 51.0457 20.8408 51.4455 20.9736 51.7918C21.1064 52.1356 21.3005 52.4051 21.5557 52.6004C21.8109 52.7931 22.1234 52.8895 22.4932 52.8895C22.8786 52.8895 23.2002 52.7879 23.458 52.5848C23.7184 52.3791 23.9137 52.103 24.0439 51.7567C24.1768 51.4077 24.2432 51.0197 24.2432 50.5926C24.2432 50.1707 24.1781 49.7905 24.0479 49.452C23.9202 49.1108 23.7262 48.8413 23.4658 48.6434C23.208 48.4429 22.8838 48.3426 22.4932 48.3426C22.1182 48.3426 21.8031 48.4377 21.5479 48.6278C21.2926 48.8153 21.0999 49.0783 20.9697 49.4168C20.8395 49.7528 20.7744 50.1447 20.7744 50.5926ZM29.0088 53.7176C28.4671 53.7176 27.9919 53.5887 27.583 53.3309C27.1768 53.0731 26.859 52.7124 26.6299 52.2489C26.4033 51.7853 26.29 51.2437 26.29 50.6239C26.29 49.9989 26.4033 49.4533 26.6299 48.9872C26.859 48.521 27.1768 48.159 27.583 47.9012C27.9919 47.6434 28.4671 47.5145 29.0088 47.5145C29.5505 47.5145 30.0244 47.6434 30.4307 47.9012C30.8395 48.159 31.1572 48.521 31.3838 48.9872C31.613 49.4533 31.7275 49.9989 31.7275 50.6239C31.7275 51.2437 31.613 51.7853 31.3838 52.2489C31.1572 52.7124 30.8395 53.0731 30.4307 53.3309C30.0244 53.5887 29.5505 53.7176 29.0088 53.7176ZM29.0088 52.8895C29.4202 52.8895 29.7588 52.784 30.0244 52.5731C30.29 52.3622 30.4867 52.0848 30.6143 51.7411C30.7419 51.3973 30.8057 51.0249 30.8057 50.6239C30.8057 50.2228 30.7419 49.8491 30.6143 49.5028C30.4867 49.1564 30.29 48.8765 30.0244 48.6629C29.7588 48.4494 29.4202 48.3426 29.0088 48.3426C28.5973 48.3426 28.2588 48.4494 27.9932 48.6629C27.7275 48.8765 27.5309 49.1564 27.4033 49.5028C27.2757 49.8491 27.2119 50.2228 27.2119 50.6239C27.2119 51.0249 27.2757 51.3973 27.4033 51.7411C27.5309 52.0848 27.7275 52.3622 27.9932 52.5731C28.2588 52.784 28.5973 52.8895 29.0088 52.8895ZM28.5869 46.7801L29.54 44.9676H30.6182L29.3994 46.7801H28.5869ZM34.916 48.5926V49.2801L32.2754 50.2801V49.5926L34.916 48.5926ZM34.0566 45.5926V53.5926H33.1348V45.5926H34.0566ZM43.3389 47.5926C43.292 47.1968 43.1019 46.8895 42.7686 46.6707C42.4352 46.452 42.0264 46.3426 41.542 46.3426C41.1878 46.3426 40.8779 46.3999 40.6123 46.5145C40.3493 46.6291 40.1436 46.7866 39.9951 46.9872C39.8493 47.1877 39.7764 47.4155 39.7764 47.6707C39.7764 47.8843 39.8271 48.0679 39.9287 48.2215C40.0329 48.3726 40.1657 48.4989 40.3271 48.6004C40.4886 48.6994 40.6579 48.7814 40.835 48.8465C41.012 48.909 41.1748 48.9598 41.3232 48.9989L42.1357 49.2176C42.3441 49.2723 42.5758 49.3478 42.8311 49.4442C43.0889 49.5405 43.335 49.672 43.5693 49.8387C43.8063 50.0028 44.0016 50.2137 44.1553 50.4715C44.3089 50.7293 44.3857 51.0457 44.3857 51.4207C44.3857 51.853 44.2725 52.2437 44.0459 52.5926C43.8219 52.9416 43.4938 53.2189 43.0615 53.4247C42.6318 53.6304 42.1097 53.7332 41.4951 53.7332C40.9222 53.7332 40.4261 53.6408 40.0068 53.4559C39.5902 53.271 39.262 53.0132 39.0225 52.6825C38.7855 52.3517 38.6514 51.9676 38.6201 51.5301H39.6201C39.6462 51.8322 39.7477 52.0822 39.9248 52.2801C40.1045 52.4754 40.3311 52.6213 40.6045 52.7176C40.8805 52.8114 41.1774 52.8582 41.4951 52.8582C41.8649 52.8582 42.1969 52.7983 42.4912 52.6786C42.7855 52.5562 43.0186 52.3869 43.1904 52.1707C43.3623 51.952 43.4482 51.6968 43.4482 51.4051C43.4482 51.1395 43.374 50.9233 43.2256 50.7567C43.0771 50.59 42.8818 50.4546 42.6396 50.3504C42.3975 50.2463 42.1357 50.1551 41.8545 50.077L40.8701 49.7957C40.2451 49.6161 39.7503 49.3595 39.3857 49.0262C39.0212 48.6929 38.8389 48.2567 38.8389 47.7176C38.8389 47.2697 38.96 46.8791 39.2021 46.5457C39.4469 46.2098 39.7751 45.9494 40.1865 45.7645C40.6006 45.577 41.0628 45.4832 41.5732 45.4832C42.0889 45.4832 42.5472 45.5757 42.9482 45.7606C43.3493 45.9429 43.667 46.1929 43.9014 46.5106C44.1383 46.8283 44.2633 47.189 44.2764 47.5926H43.3389ZM45.6816 53.5926V52.8895L49.0879 48.5145V48.452H45.791V47.5926H50.2754V48.327L46.9629 52.6707V52.7332H50.3848V53.5926H45.6816ZM52.6641 51.4051L52.6484 50.2645H52.8359L55.4609 47.5926H56.6016L53.8047 50.4207H53.7266L52.6641 51.4051ZM51.8047 53.5926V45.5926H52.7266V53.5926H51.8047ZM55.6172 53.5926L53.2734 50.6239L53.9297 49.9832L56.7891 53.5926H55.6172ZM59.9785 53.7176C59.4368 53.7176 58.9616 53.5887 58.5527 53.3309C58.1465 53.0731 57.8288 52.7124 57.5996 52.2489C57.373 51.7853 57.2598 51.2437 57.2598 50.6239C57.2598 49.9989 57.373 49.4533 57.5996 48.9872C57.8288 48.521 58.1465 48.159 58.5527 47.9012C58.9616 47.6434 59.4368 47.5145 59.9785 47.5145C60.5202 47.5145 60.9941 47.6434 61.4004 47.9012C61.8092 48.159 62.127 48.521 62.3535 48.9872C62.5827 49.4533 62.6973 49.9989 62.6973 50.6239C62.6973 51.2437 62.5827 51.7853 62.3535 52.2489C62.127 52.7124 61.8092 53.0731 61.4004 53.3309C60.9941 53.5887 60.5202 53.7176 59.9785 53.7176ZM59.9785 52.8895C60.39 52.8895 60.7285 52.784 60.9941 52.5731C61.2598 52.3622 61.4564 52.0848 61.584 51.7411C61.7116 51.3973 61.7754 51.0249 61.7754 50.6239C61.7754 50.2228 61.7116 49.8491 61.584 49.5028C61.4564 49.1564 61.2598 48.8765 60.9941 48.6629C60.7285 48.4494 60.39 48.3426 59.9785 48.3426C59.5671 48.3426 59.2285 48.4494 58.9629 48.6629C58.6973 48.8765 58.5007 49.1564 58.373 49.5028C58.2454 49.8491 58.1816 50.2228 58.1816 50.6239C58.1816 51.0249 58.2454 51.3973 58.373 51.7411C58.5007 52.0848 58.6973 52.3622 58.9629 52.5731C59.2285 52.784 59.5671 52.8895 59.9785 52.8895ZM59.5566 46.7801L60.5098 44.9676H61.5879L60.3691 46.7801H59.5566ZM65.8857 48.5926V49.2801L63.2451 50.2801V49.5926L65.8857 48.5926ZM65.0264 45.5926V53.5926H64.1045V45.5926H65.0264ZM70.7305 49.9832V53.5926H69.8086V47.5926H70.6992V48.5301H70.7773C70.918 48.2254 71.1315 47.9806 71.418 47.7957C71.7044 47.6082 72.0742 47.5145 72.5273 47.5145C72.9336 47.5145 73.2891 47.5978 73.5938 47.7645C73.8984 47.9286 74.1354 48.1786 74.3047 48.5145C74.474 48.8478 74.5586 49.2697 74.5586 49.7801V53.5926H73.6367V49.8426C73.6367 49.3713 73.5143 49.0041 73.2695 48.7411C73.0247 48.4754 72.6888 48.3426 72.2617 48.3426C71.9674 48.3426 71.7044 48.4064 71.4727 48.534C71.2435 48.6616 71.0625 48.8478 70.9297 49.0926C70.7969 49.3374 70.7305 49.6343 70.7305 49.9832ZM76.2432 53.5926V47.5926H77.1338V48.4989H77.1963C77.3057 48.202 77.5036 47.9611 77.79 47.7762C78.0765 47.5913 78.3994 47.4989 78.7588 47.4989C78.8265 47.4989 78.9111 47.5002 79.0127 47.5028C79.1143 47.5054 79.1911 47.5093 79.2432 47.5145V48.452C79.2119 48.4442 79.1403 48.4325 79.0283 48.4168C78.9189 48.3986 78.8031 48.3895 78.6807 48.3895C78.389 48.3895 78.1286 48.4507 77.8994 48.5731C77.6729 48.6929 77.4932 48.8595 77.3604 49.0731C77.2301 49.284 77.165 49.5249 77.165 49.7957V53.5926H76.2432ZM83.4141 53.5926V52.8895L86.0547 49.9989C86.3646 49.6603 86.6198 49.3661 86.8203 49.1161C87.0208 48.8635 87.1693 48.6265 87.2656 48.4051C87.3646 48.1812 87.4141 47.9468 87.4141 47.702C87.4141 47.4207 87.3464 47.1773 87.2109 46.9715C87.0781 46.7658 86.8958 46.6069 86.6641 46.495C86.4323 46.383 86.1719 46.327 85.8828 46.327C85.5755 46.327 85.3073 46.3908 85.0781 46.5184C84.8516 46.6434 84.6758 46.8192 84.5508 47.0457C84.4284 47.2723 84.3672 47.5379 84.3672 47.8426H83.4453C83.4453 47.3739 83.5534 46.9624 83.7695 46.6082C83.9857 46.2541 84.2799 45.978 84.6523 45.7801C85.0273 45.5822 85.4479 45.4832 85.9141 45.4832C86.3828 45.4832 86.7982 45.5822 87.1602 45.7801C87.5221 45.978 87.806 46.245 88.0117 46.5809C88.2174 46.9168 88.3203 47.2905 88.3203 47.702C88.3203 47.9963 88.2669 48.284 88.1602 48.5653C88.056 48.8439 87.8737 49.1551 87.6133 49.4989C87.3555 49.84 86.9974 50.2567 86.5391 50.7489L84.7422 52.6707V52.7332H88.4609V53.5926H83.4141ZM94.543 53.5926L92.7148 47.5926H93.6836L94.9805 52.1864H95.043L96.3242 47.5926H97.3086L98.5742 52.1707H98.6367L99.9336 47.5926H100.902L99.0742 53.5926H98.168L96.8555 48.9832H96.7617L95.4492 53.5926H94.543ZM107.777 48.5926V49.2957L104.605 50.2957V49.5926L107.777 48.5926ZM105.34 53.5926V45.5926H106.309V52.7332H110.027V53.5926H105.34ZM113.168 53.7332C112.788 53.7332 112.443 53.6616 112.133 53.5184C111.823 53.3726 111.577 53.1629 111.395 52.8895C111.212 52.6135 111.121 52.2801 111.121 51.8895C111.121 51.5457 111.189 51.2671 111.324 51.0536C111.46 50.8374 111.641 50.6681 111.867 50.5457C112.094 50.4233 112.344 50.3322 112.617 50.2723C112.893 50.2098 113.171 50.1603 113.449 50.1239C113.814 50.077 114.109 50.0418 114.336 50.0184C114.565 49.9924 114.732 49.9494 114.836 49.8895C114.943 49.8296 114.996 49.7254 114.996 49.577V49.5457C114.996 49.1603 114.891 48.8608 114.68 48.6473C114.471 48.4338 114.155 48.327 113.73 48.327C113.29 48.327 112.945 48.4233 112.695 48.6161C112.445 48.8088 112.27 49.0145 112.168 49.2332L111.293 48.9207C111.449 48.5562 111.658 48.2723 111.918 48.0692C112.181 47.8635 112.467 47.7202 112.777 47.6395C113.09 47.5562 113.397 47.5145 113.699 47.5145C113.892 47.5145 114.113 47.5379 114.363 47.5848C114.616 47.6291 114.859 47.7215 115.094 47.8622C115.331 48.0028 115.527 48.215 115.684 48.4989C115.84 48.7827 115.918 49.1629 115.918 49.6395V53.5926H114.996V52.7801H114.949C114.887 52.9103 114.783 53.0497 114.637 53.1981C114.491 53.3465 114.297 53.4728 114.055 53.577C113.813 53.6812 113.517 53.7332 113.168 53.7332ZM113.309 52.9051C113.673 52.9051 113.98 52.8335 114.23 52.6903C114.483 52.547 114.673 52.3622 114.801 52.1356C114.931 51.909 114.996 51.6707 114.996 51.4207V50.577C114.957 50.6239 114.871 50.6668 114.738 50.7059C114.608 50.7424 114.457 50.7749 114.285 50.8036C114.116 50.8296 113.951 50.853 113.789 50.8739C113.63 50.8921 113.501 50.9077 113.402 50.9207C113.163 50.952 112.939 51.0028 112.73 51.0731C112.525 51.1408 112.358 51.2437 112.23 51.3817C112.105 51.5171 112.043 51.702 112.043 51.9364C112.043 52.2567 112.161 52.4989 112.398 52.6629C112.638 52.8244 112.941 52.9051 113.309 52.9051ZM118.522 49.9832V53.5926H117.601V47.5926H118.491V48.5301H118.569C118.71 48.2254 118.924 47.9806 119.21 47.7957C119.496 47.6082 119.866 47.5145 120.319 47.5145C120.726 47.5145 121.081 47.5978 121.386 47.7645C121.69 47.9286 121.927 48.1786 122.097 48.5145C122.266 48.8478 122.351 49.2697 122.351 49.7801V53.5926H121.429V49.8426C121.429 49.3713 121.306 49.0041 121.062 48.7411C120.817 48.4754 120.481 48.3426 120.054 48.3426C119.759 48.3426 119.496 48.4064 119.265 48.534C119.035 48.6616 118.854 48.8478 118.722 49.0926C118.589 49.3374 118.522 49.6343 118.522 49.9832ZM119.554 46.7801L120.507 44.9676H121.585L120.366 46.7801H119.554ZM126.473 53.7176C125.91 53.7176 125.426 53.5848 125.02 53.3192C124.613 53.0536 124.301 52.6877 124.082 52.2215C123.863 51.7554 123.754 51.2228 123.754 50.6239C123.754 50.0145 123.866 49.4767 124.09 49.0106C124.316 48.5418 124.632 48.176 125.035 47.9129C125.441 47.6473 125.915 47.5145 126.457 47.5145C126.879 47.5145 127.259 47.5926 127.598 47.7489C127.936 47.9051 128.214 48.1239 128.43 48.4051C128.646 48.6864 128.78 49.0145 128.832 49.3895H127.91C127.84 49.1161 127.684 48.8739 127.441 48.6629C127.202 48.4494 126.879 48.3426 126.473 48.3426C126.113 48.3426 125.798 48.4364 125.527 48.6239C125.259 48.8088 125.049 49.0705 124.898 49.409C124.75 49.745 124.676 50.1395 124.676 50.5926C124.676 51.0562 124.749 51.4598 124.895 51.8036C125.043 52.1473 125.251 52.4142 125.52 52.6043C125.79 52.7944 126.108 52.8895 126.473 52.8895C126.712 52.8895 126.93 52.8478 127.125 52.7645C127.32 52.6812 127.486 52.5614 127.621 52.4051C127.757 52.2489 127.853 52.0614 127.91 51.8426H128.832C128.78 52.1968 128.651 52.5158 128.445 52.7997C128.242 53.0809 127.973 53.3049 127.637 53.4715C127.303 53.6356 126.915 53.7176 126.473 53.7176ZM133.961 51.1395V47.5926H134.883V53.5926H133.961V52.577H133.898C133.758 52.8817 133.539 53.1408 133.242 53.3543C132.945 53.5653 132.57 53.6707 132.117 53.6707C131.742 53.6707 131.409 53.5887 131.117 53.4247C130.826 53.258 130.596 53.008 130.43 52.6747C130.263 52.3387 130.18 51.9155 130.18 51.4051V47.5926H131.102V51.3426C131.102 51.7801 131.224 52.1291 131.469 52.3895C131.716 52.6499 132.031 52.7801 132.414 52.7801C132.643 52.7801 132.876 52.7215 133.113 52.6043C133.353 52.4872 133.553 52.3075 133.715 52.0653C133.879 51.8231 133.961 51.5145 133.961 51.1395ZM139.009 53.7176C138.446 53.7176 137.962 53.5848 137.556 53.3192C137.149 53.0536 136.837 52.6877 136.618 52.2215C136.399 51.7554 136.29 51.2228 136.29 50.6239C136.29 50.0145 136.402 49.4767 136.626 49.0106C136.853 48.5418 137.168 48.176 137.571 47.9129C137.978 47.6473 138.451 47.5145 138.993 47.5145C139.415 47.5145 139.795 47.5926 140.134 47.7489C140.472 47.9051 140.75 48.1239 140.966 48.4051C141.182 48.6864 141.316 49.0145 141.368 49.3895H140.446C140.376 49.1161 140.22 48.8739 139.978 48.6629C139.738 48.4494 139.415 48.3426 139.009 48.3426C138.649 48.3426 138.334 48.4364 138.063 48.6239C137.795 48.8088 137.586 49.0705 137.435 49.409C137.286 49.745 137.212 50.1395 137.212 50.5926C137.212 51.0562 137.285 51.4598 137.431 51.8036C137.579 52.1473 137.787 52.4142 138.056 52.6043C138.326 52.7944 138.644 52.8895 139.009 52.8895C139.248 52.8895 139.466 52.8478 139.661 52.7645C139.856 52.6812 140.022 52.5614 140.157 52.4051C140.293 52.2489 140.389 52.0614 140.446 51.8426H141.368C141.316 52.1968 141.187 52.5158 140.981 52.7997C140.778 53.0809 140.509 53.3049 140.173 53.4715C139.84 53.6356 139.451 53.7176 139.009 53.7176ZM142.716 53.5926V47.5926H143.638V53.5926H142.716ZM143.185 46.5926C143.005 46.5926 142.85 46.5314 142.72 46.409C142.592 46.2866 142.528 46.1395 142.528 45.9676C142.528 45.7957 142.592 45.6486 142.72 45.5262C142.85 45.4038 143.005 45.3426 143.185 45.3426C143.364 45.3426 143.518 45.4038 143.646 45.5262C143.776 45.6486 143.841 45.7957 143.841 45.9676C143.841 46.1395 143.776 46.2866 143.646 46.409C143.518 46.5314 143.364 46.5926 143.185 46.5926ZM147.842 53.7176C147.264 53.7176 146.765 53.59 146.346 53.3348C145.929 53.077 145.607 52.7176 145.381 52.2567C145.157 51.7931 145.045 51.2541 145.045 50.6395C145.045 50.0249 145.157 49.4832 145.381 49.0145C145.607 48.5431 145.923 48.176 146.326 47.9129C146.732 47.6473 147.206 47.5145 147.748 47.5145C148.061 47.5145 148.369 47.5666 148.674 47.6707C148.979 47.7749 149.256 47.9442 149.506 48.1786C149.756 48.4103 149.955 48.7176 150.104 49.1004C150.252 49.4832 150.326 49.9546 150.326 50.5145V50.9051H145.701V50.1082H149.389C149.389 49.7697 149.321 49.4676 149.186 49.202C149.053 48.9364 148.863 48.7267 148.615 48.5731C148.37 48.4194 148.081 48.3426 147.748 48.3426C147.381 48.3426 147.063 48.4338 146.795 48.6161C146.529 48.7957 146.325 49.0301 146.182 49.3192C146.038 49.6082 145.967 49.9181 145.967 50.2489V50.7801C145.967 51.2332 146.045 51.6174 146.201 51.9325C146.36 52.245 146.58 52.4832 146.861 52.6473C147.143 52.8088 147.469 52.8895 147.842 52.8895C148.084 52.8895 148.303 52.8556 148.498 52.7879C148.696 52.7176 148.867 52.6135 149.01 52.4754C149.153 52.3348 149.264 52.1603 149.342 51.952L150.232 52.202C150.139 52.5041 149.981 52.7697 149.76 52.9989C149.538 53.2254 149.265 53.4025 148.939 53.5301C148.614 53.6551 148.248 53.7176 147.842 53.7176Z"/><defs><linearGradient id="paint0_linear_1004_144" x1="126.478" x2="130.384" y1="15.179" y2="18.245" gradientUnits="userSpaceOnUse"><stop stop-color="#C3BDC9"/><stop offset="1" stop-color="#C3BDC9" stop-opacity="0"/></linearGradient><linearGradient id="paint1_linear_1004_144" x1="137.728" x2="125.931" y1="22.863" y2="16.808" gradientUnits="userSpaceOnUse"><stop stop-color="#C3BDC9"/><stop offset="1" stop-color="#C3BDC9" stop-opacity="0"/></linearGradient><linearGradient id="paint2_linear_1004_144" x1="143.848" x2="136.772" y1="13.659" y2="19.028" gradientUnits="userSpaceOnUse"><stop stop-color="#C3BDC9"/><stop offset="1" stop-color="#C3BDC9" stop-opacity="0"/></linearGradient></defs></svg>