<svg width="139" height="39" viewBox="0 0 139 39" fill="none" xmlns="http://www.w3.org/2000/svg">
<g clip-path="url(#clip0_807_129)">
<path d="M0.567383 37.7812V31.9038L15.0326 9.18555H1.98127V1.04764H26.5612V6.92501L12.096 29.6433H26.67V37.7812H0.567383ZM41.7724 38.4594C39.5247 38.4594 37.2045 38.045 34.8118 37.2161C32.4552 36.3496 30.3164 35.0121 28.3949 33.2036L33.7242 26.5351C34.9931 27.5901 36.3525 28.4566 37.8027 29.1347C39.2891 29.7752 40.6848 30.0954 41.99 30.0954C43.4038 30.0954 44.419 29.8694 45.0353 29.4173C45.6879 28.9652 46.0142 28.3247 46.0142 27.4959C46.0142 27.0437 45.9053 26.667 45.6879 26.3656C45.4704 26.0642 45.1441 25.7816 44.709 25.5178C44.3103 25.2542 43.8208 25.0092 43.2407 24.7832C42.6607 24.5194 41.99 24.2369 41.2286 23.9355L36.8239 22.014C35.8812 21.6373 34.9749 21.1475 34.1048 20.5447C33.2348 19.9043 32.4734 19.1696 31.8209 18.3407C31.1683 17.4742 30.6426 16.4946 30.2438 15.402C29.8813 14.3095 29.7 13.1038 29.7 11.7852C29.7 10.2028 30.0262 8.73344 30.6789 7.37712C31.3314 5.98313 32.2378 4.77751 33.3979 3.76027C34.558 2.70536 35.9356 1.8765 37.5308 1.27369C39.1622 0.67088 40.9386 0.369476 42.86 0.369476C44.8903 0.369476 46.9386 0.765069 49.005 1.55626C51.1078 2.34745 52.9748 3.59073 54.6062 5.28613L49.9295 11.3896C48.7332 10.523 47.5731 9.86371 46.4491 9.4116C45.3615 8.9595 44.1652 8.73344 42.86 8.73344C41.7 8.73344 40.7936 8.94065 40.141 9.35509C39.4885 9.76951 39.1622 10.3912 39.1622 11.22C39.1622 12.0866 39.6154 12.7647 40.5217 13.2545C41.4643 13.7066 42.7513 14.2529 44.3827 14.8934L48.6788 16.6453C50.8902 17.5495 52.5941 18.8116 53.7906 20.4317C54.9869 22.0517 55.5851 24.1427 55.5851 26.7046C55.5851 28.2494 55.2769 29.7375 54.6606 31.1692C54.0444 32.6008 53.1379 33.863 51.9416 34.9556C50.7815 36.0105 49.3495 36.8582 47.6456 37.4987C45.9417 38.1392 43.9839 38.4594 41.7724 38.4594Z" fill="#102247"/>
<path d="M59.3075 37.7812V32.243C61.3378 30.2839 63.223 28.4377 64.9631 26.7046C66.7396 24.9716 68.2804 23.3515 69.5854 21.8445C70.8906 20.2999 71.9057 18.8493 72.6308 17.493C73.3921 16.0989 73.7728 14.7991 73.7728 13.5936C73.7728 11.9735 73.374 10.7867 72.5764 10.0332C71.8151 9.24205 70.7999 8.84646 69.5311 8.84646C68.3709 8.84646 67.3377 9.20437 66.4314 9.9202C65.5614 10.5984 64.7094 11.3707 63.8755 12.2372L58.8726 7.03803C59.7789 6.05847 60.6671 5.21077 61.5372 4.49494C62.4072 3.74142 63.3137 3.13861 64.2562 2.68651C65.2351 2.19673 66.2501 1.83882 67.3015 1.61276C68.3891 1.38671 69.5674 1.27368 70.8362 1.27368C72.5764 1.27368 74.1716 1.55625 75.6217 2.12138C77.0718 2.68651 78.3226 3.47769 79.374 4.49494C80.4253 5.51218 81.241 6.75546 81.8211 8.22481C82.4012 9.65648 82.6912 11.2577 82.6912 13.0284C82.6912 14.4601 82.383 15.9294 81.7667 17.4365C81.1867 18.9058 80.4253 20.3752 79.4828 21.8445C78.5401 23.3138 77.4707 24.7455 76.2742 26.1395C75.1142 27.5335 73.9541 28.8522 72.794 30.0954C73.664 29.9825 74.6428 29.8883 75.7304 29.8129C76.8543 29.6998 77.7969 29.6433 78.5583 29.6433H84.3226V37.7812H59.3075Z" fill="#E6D335"/>
<g clip-path="url(#clip1_807_129)">
<path fill-rule="evenodd" clip-rule="evenodd" d="M106 1L106.434 32.0806C106.434 32.0806 106.473 34.8782 109.306 36.7361C110.097 37.2551 111.357 37.6658 113.29 37.6393C113.88 37.631 117.252 37.6138 118.951 37.6607C120.191 37.695 122.255 38.5559 122.4 40H122.691C122.816 38.3276 124.882 37.6968 126.141 37.6607C127.831 37.6122 131.211 37.6312 131.801 37.6393C133.734 37.666 134.993 37.2551 135.785 36.7361C138.618 34.8782 138.657 32.0806 138.657 32.0806L139.091 1H106Z" fill="#DC143C"/>
<path fill-rule="evenodd" clip-rule="evenodd" d="M119.828 3.06261C120.367 4.00558 120.583 4.89794 120.881 5.7502C121.375 5.68303 121.94 5.81749 122.499 5.85687C123.138 5.98231 123.643 6.03662 124.117 5.9636C124.408 4.62065 124.66 3.94973 125.24 3.00495C124.982 3.18014 124.435 3.25174 124.221 3.57013C123.899 3.28352 123.644 3.46293 123.484 3.76624C123.538 3.52414 123.466 3.31892 123.15 3.29908C123.337 2.94682 123.048 2.77211 122.747 2.92993C122.738 2.62314 122.494 2.62059 122.476 2.457C122.436 2.64647 122.221 2.55274 122.252 3.01072C122.007 2.81408 121.769 2.9422 121.86 3.28754C121.564 3.28621 121.481 3.53072 121.509 3.83543C121.306 3.36297 120.924 3.50724 120.789 3.67392C120.551 3.20347 120.371 3.50054 119.828 3.06261Z" fill="#F6D155"/>
<path fill-rule="evenodd" clip-rule="evenodd" d="M124.584 5.46604C124.241 6.05744 124.093 6.09853 122.587 5.8665C121.396 5.74743 120.323 5.4104 120.273 6.49201C120.667 6.53888 121.241 6.58172 121.49 7.42547L120.761 8.04864C120.246 8.12983 119.434 8.82005 118.898 8.17823C118.75 8.78177 119.303 8.95159 119.88 8.92739C120.285 8.88581 120.414 8.77707 121.169 8.62757L121.369 8.84312C122.509 8.93764 123.099 10.5712 121.25 11.5297C121.179 11.7515 121.297 12.0177 121.473 12.0492C120.935 12.811 120.053 13.7613 119.736 13.1343C119.663 13.2036 119.455 13.722 119.858 14.0084C119.552 14.3856 119.434 14.832 119.45 15.3476C118.231 15.1568 117.428 14.9499 117.702 13.808C118.998 13.868 119.35 12.2991 119.159 11.5038C118.406 8.32714 114.315 5.77934 111.338 5.69627C111.503 6.56061 112.036 7.18424 112.642 7.75941C111.852 7.37438 110.936 7.00108 109.976 7.19685C110.087 7.87962 110.457 8.67161 112.012 9.96355C110.891 9.2968 109.857 8.64587 109.493 8.11562C109.331 8.33425 109.24 9.22472 110.197 9.87465C109.893 9.75323 108.391 9.76403 107.937 10.0974C108.212 10.7228 109.465 11.8158 110.493 12.1529C109.518 12.0108 108.604 11.6171 107.767 10.9062C107.643 11.0173 107.772 12.1747 108.811 12.6354C108.475 12.6578 107.326 12.9807 107.029 13.3514C107.629 14.1529 109.161 14.859 109.923 14.8618C108.884 14.9975 107.749 14.7883 107.278 14.6395C107.288 14.9054 107.065 15.9736 109.908 15.7972C108.894 16.2773 107.363 17.2768 107.118 18.1578C108.104 18.5949 109.871 18.2348 110.785 17.9476C108.082 19.5977 107.661 19.7672 107.159 19.6565C107.814 21.0423 109.39 20.106 110.753 19.3298C109.078 21.5747 108.805 22.7191 108.841 24.3097C110.19 24.1471 112.142 22.2117 113.183 20.5617C111.977 23.046 111.259 25.0432 109.945 25.6309C111.443 26.2253 112.727 24.3424 113.63 22.3454C113.284 23.6095 113.141 26.2891 113.582 26.9446C114.936 26.0255 115.962 23.985 116.65 21.6455C116.415 22.7983 116.242 23.951 115.82 25.1038C116.69 25.2697 117.135 23.7051 117.429 22.7885C117.456 22.8365 117.488 22.8769 117.572 22.9551C118.672 22.1559 119.022 20.3008 119.099 19.5745C120.102 19.8599 120.543 19.4956 120.8 19.3088C121.019 19.6134 121.033 20.0886 121.095 20.1537C120.004 19.2664 118.835 20.1557 118.787 21.6336C118.669 22.2503 118.34 22.9637 117.517 23.5157C117.568 23.5828 117.683 23.61 117.832 23.6072C117.689 23.8544 117.559 24.068 117.316 24.292C117.378 24.3285 117.457 24.3335 117.531 24.3468C117.348 24.653 117.043 24.9421 116.738 25.0894C116.811 25.1597 116.853 25.1833 117.075 25.2436C116.871 25.5142 116.539 25.7583 116.226 25.89C116.824 26.2454 117.28 26.291 117.65 26.2571C117.651 26.257 117.651 26.2571 117.652 26.2571C117.416 26.7254 117.035 26.9625 116.662 27.1728C116.778 27.2818 116.917 27.3054 117.033 27.2729C116.697 27.6232 116.341 27.8991 116.02 27.9988C116.079 28.0426 116.12 28.1029 116.326 28.0873C116.097 28.3712 115.818 28.6485 115.325 28.7774C115.423 28.9653 115.623 28.9365 115.796 28.9427C115.662 29.2331 115.24 29.3306 114.813 29.4206C115.135 29.5117 115.354 29.6848 115.162 29.6397C115.032 29.7965 114.905 29.8777 114.627 29.9195C114.341 29.9624 113.317 29.593 112.904 29.7355C112.787 29.5024 112.504 29.3418 112.206 29.3418C111.825 29.3418 111.451 29.5851 111.433 29.9251C111.374 29.8841 111.126 29.8513 111.164 30.1468C111.253 30.3207 111.258 30.4604 111.806 30.6719C111.895 30.7118 112.004 30.7326 112.136 30.727C112.331 30.7188 112.549 30.6205 112.713 30.4784L112.71 30.4843C112.983 30.5349 113.283 30.5807 113.449 30.6503C113.017 30.6848 112.869 30.9236 112.622 31.0954C112.519 31.0901 112.433 31.0645 112.339 31.0494L112.342 31.0527C112.286 31.0385 112.229 31.0323 112.174 31.0353C111.865 31.052 111.554 31.4001 111.521 31.7946C111.514 31.8746 111.534 31.951 111.573 32.021L111.568 32.0882C111.478 32.1994 111.514 32.2878 111.602 32.3519C111.978 32.5017 112.203 32.4096 112.338 32.3821C112.679 32.3406 112.965 32.0585 112.965 31.7448C112.965 31.744 112.965 31.7433 112.965 31.7425L112.972 31.7503C113.376 31.6663 113.775 31.5538 113.996 31.3906C114.008 31.4152 114.014 31.442 114.009 31.4748C113.869 31.5583 113.638 31.6909 113.515 32.0994C113.479 32.0959 113.444 32.0941 113.411 32.0941C112.949 32.0934 112.835 32.4131 112.843 32.6743C112.851 32.929 112.943 33.093 113.075 33.1919C113.047 33.3505 113.067 33.483 113.23 33.536C113.782 33.6227 113.915 33.3367 114.026 33.3438C114.02 33.2711 114.034 33.2195 114.055 33.1735C114.224 33.0948 114.339 33.0305 114.355 32.712C114.369 32.5142 114.336 32.3931 114.271 32.3158L114.286 32.3201C114.286 32.3206 114.286 32.3212 114.286 32.3217C114.287 32.3212 114.287 32.3208 114.288 32.3204L114.292 32.3217L114.292 32.3171C114.797 31.8849 115.12 31.5437 115.339 31.2554C115.533 31.3001 115.969 31.2899 116.184 31.218L116.175 31.2954C115.973 31.4883 116.11 31.9491 116.378 31.9389C116.366 31.9822 116.368 32.0213 116.378 32.0645C116.551 32.1716 116.871 32.0964 117.116 32.1511C117.241 32.1364 117.301 32.052 117.269 31.8799L117.265 31.8773C117.461 31.7609 117.593 31.551 117.567 31.2855C117.567 30.9187 117.281 30.6258 116.929 30.6026L116.931 30.601C116.553 30.5602 116.191 30.8328 116.27 30.2441C117.303 29.0187 118.714 27.1675 119.099 26.9425C119.068 26.9024 119.047 26.8497 119.03 26.7985C119.183 27.2044 119.762 27.6324 120.371 27.5955C120.261 27.3866 120.139 27.2009 120.096 26.6424C120.187 26.7742 120.342 26.836 120.532 26.875C120.247 25.5702 120.672 24.4967 121.547 23.5156C121.477 24.7781 121.318 26.0485 120.553 27.3354C120.947 27.4589 121.461 27.0569 121.532 26.8182C121.616 27.955 120.54 29.4182 119.699 28.7167C119.171 29.8795 120.424 30.4438 121.213 29.7688C121.08 30.4723 120.531 30.8859 119.933 31.0474C119.335 31.2089 118.711 30.9542 119.109 29.9949C119.025 29.9449 117.825 29.9145 117.791 31.2252C117.827 31.9825 118.337 32.2675 118.383 32.2806C116.672 33.581 118.396 35.0303 119.808 34.7488C120.927 34.5758 121.563 33.667 121.969 33.0081C121.846 33.4822 121.34 35.0044 122.63 36.6528C123.908 34.6534 123.367 33.3063 123.337 33.0925C124.341 34.6437 125.332 34.7554 125.917 34.717C126.918 34.7331 128.335 33.1576 126.533 32.1498C127.455 31.7101 127.516 29.8836 126.217 29.7898C126.485 30.5136 125.92 30.951 125.298 30.8945C124.675 30.8381 124.101 30.4784 123.88 29.6681C125.106 30.2588 125.675 29.0968 125.258 28.466C124.212 29.3327 123.717 27.9424 123.577 27.115C123.844 27.3189 124.075 27.3897 124.525 27.323C123.674 26.2266 123.475 24.7558 123.399 23.3746C123.978 24.2973 124.55 25.4265 124.531 26.5328C124.665 26.4669 124.787 26.449 125.029 25.9648C125.05 26.7922 124.956 26.9043 124.677 27.2505C125.134 27.4432 125.735 27.0725 126.021 26.5807C126.022 26.5794 126.023 26.5781 126.024 26.5768C126.913 27.7794 127.873 29.0138 128.807 29.9683C129.009 30.18 129.079 30.3917 128.704 30.4662C127.504 30.0225 127.378 31.2795 127.876 31.4495C127.837 31.5631 127.826 31.6809 127.86 31.805C128.096 31.878 128.579 31.6819 128.708 31.6748C128.768 31.6205 128.769 31.5067 128.767 31.3905C128.887 31.3845 128.97 31.3212 129.027 31.2205C129.261 31.2655 129.488 31.2956 129.784 31.0506L130.672 31.9435C130.718 31.97 130.625 32.0654 130.75 32.0776C130.652 32.6706 130.877 32.7379 131.07 32.8874C131.03 33.4547 131.878 33.1277 131.961 33.16C132.05 33.1069 132.058 33.0457 132.043 32.9822C132.142 32.8787 132.096 32.8262 132.063 32.753C132.488 32.1046 131.886 31.6103 131.555 31.667C131.202 31.2796 130.948 31.1168 130.664 30.8847C131.246 31.1048 132.144 31.3537 132.402 31.5443C132.5 32.2059 133.08 31.9325 133.506 31.9553C133.639 31.7687 133.568 31.7108 133.506 31.6469C134.068 30.9212 132.883 30.3257 132.379 30.7544C132.079 30.4779 131.82 30.4296 131.551 30.3199C131.663 30.2064 131.902 30.1179 132.438 30.0831C132.678 30.2426 132.919 30.2987 133.159 30.1224C133.263 30.3494 133.469 30.2905 133.542 30.2487C133.718 30.0455 133.723 29.737 133.771 29.4549C133.723 29.3528 133.646 29.2861 133.514 29.289C133.15 28.6649 132.447 29.0444 132.406 29.3244C131.8 29.3742 131.261 29.4516 130.62 29.7078C130.409 29.7716 130.208 29.5426 130.029 29.4114C130.191 29.3465 130.332 29.2724 130.328 29.1348C130.069 29.1093 129.816 29.1275 129.516 28.819L129.595 28.6058C129.364 28.5348 129.115 28.3659 128.811 27.8868C128.874 27.8487 128.935 27.7853 128.988 27.6736C128.642 27.5935 128.359 27.41 128.128 27.1403C128.211 27.0998 128.289 27.0294 128.361 26.9152C128.038 26.7201 127.728 26.5503 127.109 25.7427C127.107 25.7388 127.104 25.7344 127.102 25.7309C127.754 25.8399 128.434 25.7756 128.836 25.4823C128.516 25.3929 127.951 25.2063 127.699 24.718C127.824 24.7078 127.893 24.6834 127.971 24.6613C127.482 24.3382 127.353 24.1635 127.229 23.9016C127.332 23.912 127.479 23.8652 127.528 23.7934C127.213 23.6515 127.075 23.4551 126.962 23.241C127.092 23.2437 127.228 23.269 127.333 23.1889C126.088 22.6266 126.261 19.7118 124.926 19.7029C124.331 19.7517 124.223 19.8807 123.916 20.0376C124.006 19.7882 124.159 19.5545 124.318 19.3225C125.047 19.6639 125.625 19.4714 125.821 19.3002C125.921 20.4717 126.296 21.7287 127.108 22.3577C127.247 22.2792 127.414 22.1783 127.516 22.0656C127.661 23.1538 128.066 24.5842 128.977 24.4655C128.558 23.4176 128.564 22.3647 128.518 21.3177C128.9 24.3904 129.841 26.1825 130.619 26.7198C130.978 26.2453 131.245 24.0025 131.071 22.6556C131.836 24.0429 132.685 25.3275 133.397 25.3205C133.719 25.3173 134.077 25.0529 134.294 24.986C133.178 24.535 132.421 22.4771 131.735 21.1957C133.021 23.2127 134.547 24.1212 135.267 24.2578C135.293 23.6341 135.431 21.8888 133.83 19.4708C136.691 20.9881 137.299 20.0082 137.466 19.4855C136.175 19.9363 134.434 18.2737 133.268 17.7452L133.252 17.6989C134.958 18.4791 136.633 18.748 137.675 18.0902C136.784 16.7133 135.922 16.2116 134.984 15.8578C136.836 16.0639 137.444 15.4325 137.482 14.7414C136.806 14.9703 136.181 15.006 135.375 14.8769C137.147 14.519 137.467 13.7655 137.45 13.6901C136.996 13.3367 136.138 12.9386 135.363 12.8655C137.501 12.0961 136.822 11.3707 136.742 11.1429C136.077 11.7671 134.919 12.2124 134.714 12.1938C135.712 11.6726 136.577 10.3088 136.521 10.1547C136.023 9.89771 134.99 9.91032 134.575 10.036C134.99 9.57966 135.536 8.79866 135.033 8.149C134.549 8.83379 134.089 9.19798 133.63 9.55545C134.047 9.02715 134.531 8.42107 134.697 7.18042C134.072 7.26235 133.507 7.20101 132.696 7.73702C133.161 7.15514 133.447 6.58253 133.504 5.88909C130.712 6.0854 127.448 7.55192 125.873 11.2082C125.416 12.2823 125.772 14.1105 127.209 13.902C127.436 14.8245 126.827 15.3882 125.503 15.3475C125.475 15.0387 125.571 14.4269 125.192 14.1047C125.513 14.0839 125.576 13.9181 125.644 13.7774C124.779 13.5776 124.919 13.2903 125.08 11.7523C125.194 11.7996 125.324 11.7723 125.422 11.6811C125.065 11.3514 125.183 10.7413 125.363 8.81938C125.399 7.98173 125.227 7.56244 125.043 7.41789C125.154 7.36164 125.227 7.27059 125.169 7.06169C125.569 6.99136 125.4 6.50274 125.235 6.34432C125.155 6.56214 124.812 6.64253 124.488 6.4011C124.88 6.22183 124.884 5.77579 124.584 5.46597L124.584 5.46604ZM126.199 26.1206C126.212 26.1367 126.226 26.1518 126.24 26.1665C126.226 26.1526 126.212 26.1382 126.198 26.1233C126.199 26.1224 126.199 26.1214 126.199 26.1207L126.199 26.1206ZM118.028 26.18C117.989 26.325 118.058 26.7214 118.066 26.9852C118.198 27.0504 118.432 26.9829 118.7 26.8806C118.685 26.8869 118.671 26.8931 118.657 26.8993C118.455 26.9741 118.215 27.0507 118.064 26.9898L118.017 26.3998C118.007 26.3331 118.008 26.2612 118.026 26.1803C118.027 26.1802 118.027 26.1801 118.028 26.18L118.028 26.18ZM117.929 26.2075C117.907 26.2141 117.884 26.2198 117.861 26.2246C117.883 26.2193 117.906 26.2138 117.929 26.2075ZM126.368 26.2797C126.663 26.4959 127.028 26.5019 127.162 26.4696C127.17 26.4528 127.176 26.4358 127.182 26.4188C127.178 26.4379 127.172 26.4572 127.166 26.4769C126.888 26.5193 126.62 26.4734 126.368 26.2797H126.368ZM116.196 31.2134C116.196 31.2136 116.196 31.2138 116.196 31.2142L116.196 31.2138C116.196 31.2137 116.196 31.2136 116.196 31.2134ZM123.767 31.5417C124.045 31.8335 125.115 32.6267 126.356 32.2433C126.459 32.9462 125.863 33.2109 125.393 33.1148C124.933 33.0209 124.241 32.6532 123.767 31.5417ZM121.3 31.7215C120.898 32.4893 120.23 33.1386 119.636 33.2949C119.041 33.4512 118.487 33.1551 118.703 32.3821C119.987 32.8126 121.03 32.0511 121.3 31.7215Z" fill="white"/>
<path fill-rule="evenodd" clip-rule="evenodd" d="M115.379 17.491C114.946 16.9782 115.009 16.6539 115.023 16.4729C114.545 16.1113 114.671 15.9685 114.588 15.8222C114.754 16.1151 114.92 16.3091 115.086 16.3365C115.402 16.6266 115.718 16.7242 116.034 16.9138C114.101 15.8554 114.634 14.557 114.656 14.1848C114.354 14.1949 114.132 14.1327 113.97 14.0169C114.026 13.4921 114.301 13.0655 114.887 12.7784C114.813 12.8039 114.74 12.8388 114.667 12.8519C114.598 12.8375 114.431 12.4049 114.641 12.1224C114.761 12.0461 115.086 12.0192 115.416 12.1486C115.611 11.7555 115.863 11.4055 116.39 11.2617C116.52 11.3964 116.74 11.7978 116.584 12.495C116.8 12.5752 117.012 12.6762 117.187 12.9358C117.132 13.1574 117.078 13.2198 117.024 13.2769C117.869 13.2858 117.952 12.0974 117.009 11.9724C117.162 10.8536 115.73 10.1859 115.107 11.5661C113.96 11.258 113.652 12.1529 114.085 12.8519C113.945 12.9544 112.811 13.7925 113.891 14.993C113.889 15.5843 114.039 16.1588 114.84 16.6618C115.07 17.3398 115.215 17.3413 115.379 17.491Z" fill="#DFDDE2"/>
<path fill-rule="evenodd" clip-rule="evenodd" d="M129.591 11.245L129.744 10.9549C130.776 10.7936 131.399 11.4854 130.996 12.3032C131.829 13.0171 131.37 13.9444 130.866 14.1295C131.468 13.6868 131.137 13.55 131.035 13.5573C131.067 13.5426 131.117 13.5145 131.16 13.4789C131.127 13.0888 130.974 12.7195 130.374 12.2758C130.67 11.9468 130.64 11.6344 130.6 11.4135C130.27 11.3274 129.977 11.3546 129.72 11.488L129.591 11.245Z" fill="#DFDDE2"/>
<path fill-rule="evenodd" clip-rule="evenodd" d="M128.163 13.2555C128.211 13.0941 128.255 12.8348 128.546 12.5893C128.455 12.6561 128.354 12.738 128.241 12.8362C127.866 12.6837 127.625 12.3394 127.568 12.1307C127.798 11.8335 128.344 11.8766 128.421 11.8956C128.262 11.2961 128.468 10.8509 128.617 10.6806C129.112 10.7263 129.368 10.9815 129.568 11.2097L129.716 10.9432C129.581 10.5226 129.167 10.2058 128.68 10.3061C128.272 10.3495 127.81 10.7039 127.995 11.535C126.767 12.0308 127.29 13.2104 128.163 13.2555Z" fill="#DFDDE2"/>
<path fill-rule="evenodd" clip-rule="evenodd" d="M125.491 15.3602C125.446 15.8138 125.357 16.1446 125.26 16.4537C126.929 16.2027 129.401 15.772 129.067 13.9336C128.763 14.1551 128.459 14.1956 128.155 14.2001C128.103 13.9383 128.074 13.66 128.167 13.2948C127.891 13.6689 127.566 13.8103 127.228 13.8944C128.739 14.5697 126.589 15.7638 125.691 15.3602H125.491Z" fill="#F1EEF0"/>
<path fill-rule="evenodd" clip-rule="evenodd" d="M119.463 16.0492C119.511 16.5697 119.673 17.2031 119.832 17.7896C119.726 17.6221 119.404 16.6023 119.463 16.0492Z" fill="#E8E6EB"/>
<path fill-rule="evenodd" clip-rule="evenodd" d="M124.429 15.6779C124.025 17.2794 125.805 17.124 124.556 15.4811C125.77 16.2254 124.974 17.3383 124.913 17.5873C124.723 16.7283 123.972 16.5115 124.429 15.6779Z" fill="#C3BDC9"/>
<path fill-rule="evenodd" clip-rule="evenodd" d="M116.389 11.2906L115.787 13.0645C115.638 13.0011 115.499 12.9412 115.305 12.7159C115.31 12.1014 115.852 11.3353 116.389 11.2906Z" fill="white"/>
<path fill-rule="evenodd" clip-rule="evenodd" d="M116.869 14.747L115.783 13.0663C115.952 13.0625 116.15 13.0671 116.386 13.0105C116.706 13.3105 117.061 14.0904 116.869 14.747Z" fill="#C3BDC9"/>
<path fill-rule="evenodd" clip-rule="evenodd" d="M116.561 12.5086C116.888 12.5997 117.115 12.8127 117.153 12.9457L116.387 13.017C116.46 12.8583 116.515 12.6824 116.561 12.5086Z" fill="white"/>
<path fill-rule="evenodd" clip-rule="evenodd" d="M114.663 12.8449C114.52 12.6381 114.52 12.2142 114.668 12.1271L115.307 12.7177C115.137 12.7571 114.828 12.7748 114.663 12.8449Z" fill="white"/>
<path fill-rule="evenodd" clip-rule="evenodd" d="M113.988 13.9995L115.778 13.0741C115.815 13.051 115.523 12.7737 115.302 12.7183C114.824 12.6575 114.029 13.2567 113.988 13.9995Z" fill="white"/>
<path fill-rule="evenodd" clip-rule="evenodd" d="M115.476 14.0017C114.552 16.6513 118.531 17.0618 119.592 17.1409L119.464 16.4769C117.54 16.3911 115.745 15.9658 116.011 14.5168C115.663 14.2989 115.589 14.2007 115.476 14.0017Z" fill="url(#paint0_linear_807_129)"/>
<path fill-rule="evenodd" clip-rule="evenodd" d="M115.478 13.9948C115.265 14.0996 114.96 14.1462 114.665 14.1918C113.899 17.4056 118.869 17.6592 119.821 17.7775C119.672 17.4807 119.634 17.3236 119.591 17.1299C117.069 16.9662 114.736 16.0197 115.478 13.9948Z" fill="url(#paint1_linear_807_129)"/>
<path fill-rule="evenodd" clip-rule="evenodd" d="M128.626 10.696C128.905 11.2721 129.203 11.9501 129.413 12.5947C129.534 12.4184 129.651 12.2417 129.892 12.0386C129.76 11.4336 129.459 10.7934 128.626 10.696Z" fill="#C3BDC9"/>
<path fill-rule="evenodd" clip-rule="evenodd" d="M128.626 10.6919C128.907 11.2822 129.23 11.989 129.416 12.5929L128.738 12.495C128.336 12.0577 128.24 11.1865 128.626 10.6919Z" fill="white"/>
<path fill-rule="evenodd" clip-rule="evenodd" d="M127.585 12.1282C127.761 11.9266 128.136 11.8628 128.438 11.9149C128.506 12.0822 128.617 12.3189 128.74 12.5001L127.585 12.1282Z" fill="#C3BDC9"/>
<path fill-rule="evenodd" clip-rule="evenodd" d="M130.581 11.4286L129.89 12.0465L130.339 12.2818C130.701 11.971 130.601 11.4242 130.581 11.4286Z" fill="#C3BDC9"/>
<path fill-rule="evenodd" clip-rule="evenodd" d="M129.89 12.0363C129.779 12.0593 129.393 12.5928 129.419 12.5881L131.145 13.4699C131.151 13.1707 130.877 12.4361 129.89 12.0363Z" fill="#C3BDC9"/>
<path fill-rule="evenodd" clip-rule="evenodd" d="M129.413 12.5832L128.169 14.1929C128.965 14.1583 129.284 13.804 129.563 13.3635L129.413 12.5832Z" fill="#C3BDC9"/>
<path fill-rule="evenodd" clip-rule="evenodd" d="M130.582 11.4287C130.315 11.3397 129.963 11.368 129.718 11.5043C129.799 11.6772 129.855 11.8905 129.894 12.0447L130.582 11.4287Z" fill="white"/>
<path fill-rule="evenodd" clip-rule="evenodd" d="M129.413 12.5851L131.148 13.4699C130.83 13.732 129.827 13.4875 129.558 13.3698L129.413 12.5851Z" fill="white"/>
<path fill-rule="evenodd" clip-rule="evenodd" d="M129.415 12.5888L128.736 12.4919C127.981 12.8086 128.115 14.0988 128.172 14.193L129.415 12.5888Z" fill="white"/>
<path fill-rule="evenodd" clip-rule="evenodd" d="M128.729 12.4959L127.586 12.1266C127.642 12.4029 127.979 12.715 128.235 12.8197C128.289 12.7701 128.541 12.5384 128.729 12.4959Z" fill="white"/>
<path fill-rule="evenodd" clip-rule="evenodd" d="M129.582 13.368C129.37 13.6805 129.305 13.7633 129.07 13.9224C129.475 15.7829 126.807 16.248 125.264 16.4651C125.249 16.7212 125.168 16.9374 125.094 17.1342C125.372 17.1147 130.848 17.0093 129.582 13.368Z" fill="white"/>
<path fill-rule="evenodd" clip-rule="evenodd" d="M129.613 13.3925C130.35 16.0989 127.938 16.8704 125.096 17.1284C125.027 17.2968 124.961 17.4793 124.892 17.6674C128.749 17.3975 130.767 16.1485 130.241 13.5446C129.993 13.5067 129.798 13.4512 129.613 13.3925Z" fill="url(#paint2_linear_807_129)"/>
<path fill-rule="evenodd" clip-rule="evenodd" d="M111.608 32.3539C111.918 32.4971 112.301 32.3997 112.508 32.3401C112.619 32.4461 112.474 32.8634 112.803 33.1673C112.615 33.2496 111.586 32.9329 111.608 32.3539V32.3539Z" fill="#F6D155"/>
<path fill-rule="evenodd" clip-rule="evenodd" d="M111.166 30.1298C111.295 30.5413 111.659 30.5854 111.807 30.6708C111.803 30.8263 111.405 30.8187 111.391 31.3815C111.113 31.3564 110.726 30.7053 111.166 30.1298Z" fill="#F6D155"/>
<path fill-rule="evenodd" clip-rule="evenodd" d="M113.234 33.5305C113.735 33.6152 113.917 33.3457 114.029 33.3306C114.088 33.4951 114.312 33.7092 114.53 33.8212C114.428 34.1901 113.212 34.1095 113.234 33.5305Z" fill="#F6D155"/>
<path fill-rule="evenodd" clip-rule="evenodd" d="M117.101 32.1549C117.072 32.0922 116.496 32.162 116.392 32.0691C116.319 32.1584 116.298 32.4532 116.08 32.5653C116.219 32.8173 117.182 32.7339 117.101 32.1549Z" fill="#F6D155"/>
<path fill-rule="evenodd" clip-rule="evenodd" d="M118.198 27.0178C118.284 27.0076 118.367 26.9955 118.437 26.9749C118.099 27.3828 117.535 28.0944 116.968 28.6938C116.4 29.2948 115.883 29.8876 116.079 30.4253C115.685 30.033 116.035 29.65 116.568 29.0185C117.147 28.3332 117.799 27.5433 118.198 27.0178ZM117.485 31.3692C117.485 31.6487 117.253 31.9071 116.694 31.8809C117.324 31.1882 116.05 31.1455 116.354 30.8628C117.199 30.3321 117.548 31.1526 117.485 31.3692ZM116.883 31.9785C117.066 32.0169 117.181 31.7894 117.221 31.9053C117.3 32.1343 116.887 32.1764 116.883 31.9785ZM112.619 29.5803C112.49 29.5752 112.527 30.0959 111.765 30.075C111.751 30.0714 111.68 30.0755 111.639 30.1471C111.547 30.3213 111.858 30.6764 112.141 30.6555C112.389 30.6373 112.595 30.4953 112.724 30.3187C112.782 30.2859 113.186 30.0612 113.153 30.1582C112.678 30.3904 112.797 30.5373 113.549 30.5922C114.024 30.5217 114.427 30.11 114.597 30.0244C114.112 30.1086 113.079 29.7851 112.839 29.7833C112.805 29.695 112.736 29.6225 112.625 29.581C112.623 29.5806 112.621 29.5804 112.619 29.5802V29.5803ZM111.767 32.2399C111.755 32.2834 111.729 32.314 111.696 32.3372C111.831 32.4229 112.192 32.4 112.232 32.3705C112.192 32.3696 111.895 32.3516 111.767 32.2399ZM115.316 30.0809C114.671 30.3966 114.227 31.5375 112.624 31.3876C112.584 31.5278 112.495 31.556 112.412 31.5988C112.078 31.5943 111.693 31.6743 111.696 31.8835C111.701 32.137 112.09 32.2955 112.351 32.264C112.615 32.2321 112.891 31.9797 112.891 31.7264C112.891 31.7263 112.891 31.7262 112.891 31.726C112.9 31.7054 112.913 31.689 112.941 31.6893C114.715 31.3053 114.987 30.3927 115.316 30.0808V30.0809ZM115.599 30.1123C115.529 30.5438 114.131 31.831 114.066 32.2525C113.992 32.195 113.885 32.1536 113.662 32.1653C113.792 32.8098 113.254 33.0072 113.111 32.8967C113.11 33.1879 113.533 33.309 113.808 33.2562C114.13 33.1941 114.4 32.6997 114.213 32.3988C114.256 31.8657 114.955 31.7105 115.248 31.0254C115.506 31.0228 115.546 30.6224 115.866 30.5479C115.799 30.3402 115.536 30.6105 115.599 30.1123ZM111.471 30.1116C111.512 30.3667 111.626 30.4741 111.815 30.6318C111.663 30.5772 111.513 30.5345 111.346 30.387C111.499 30.4334 111.383 30.0715 111.471 30.1116ZM114.819 29.4264C115.115 29.4951 115.503 29.5223 116.032 29.4914C115.263 29.7619 114.918 29.67 114.819 29.4264ZM115.788 28.9421C115.789 28.9833 115.726 29.0628 115.667 29.1138C116.038 29.1067 116.399 29.03 116.662 28.7362C116.418 28.8476 116.141 28.9402 115.788 28.9421ZM116.312 28.0932C116.285 28.1428 116.188 28.2477 116.116 28.3239C116.422 28.358 117.032 28.2158 117.295 27.9221C117.051 28.0334 116.665 28.0913 116.312 28.0932ZM117.027 27.2772C116.972 27.3368 116.792 27.5122 116.725 27.5688C117.031 27.603 117.722 27.3579 117.984 27.0642C117.74 27.1756 117.381 27.2754 117.027 27.2772ZM118.011 26.3704C117.992 26.7224 117.874 26.9467 117.746 27.0961C117.852 27.0614 117.958 27.0385 118.064 26.9899C118.054 26.7952 118.036 26.5651 118.011 26.3704Z" fill="#DFDDE2"/>
<path fill-rule="evenodd" clip-rule="evenodd" d="M127.858 31.8036C128.163 31.8783 128.535 31.6786 128.713 31.675C128.795 31.8386 128.828 32.0166 129.169 32.1318C128.944 32.3821 128.098 32.4649 127.858 31.8036Z" fill="#F6D155"/>
<path fill-rule="evenodd" clip-rule="evenodd" d="M131.265 33.1902C131.153 33.3011 131.029 33.4194 130.816 33.5472C131.197 33.8949 131.973 33.5045 131.943 33.1676C131.874 33.0342 131.65 33.3222 131.265 33.1902Z" fill="#F6D155"/>
<path fill-rule="evenodd" clip-rule="evenodd" d="M132.752 31.971C132.759 32.4237 132.701 32.5426 132.649 32.6979C132.867 32.8462 133.429 32.4939 133.488 31.9613C133.429 31.835 133.19 32.0554 132.752 31.971Z" fill="#F6D155"/>
<path fill-rule="evenodd" clip-rule="evenodd" d="M133.783 29.4682C133.621 29.509 133.718 30.0592 133.532 30.2338C133.684 30.3183 133.787 30.5208 133.899 30.7035C134.255 30.4331 134.242 29.6629 133.783 29.4682Z" fill="#F6D155"/>
<path fill-rule="evenodd" clip-rule="evenodd" d="M128.247 31.7522C128.418 31.7005 128.603 31.6132 128.671 31.6364C128.774 31.2712 128.532 31.4834 128.247 31.7522ZM128.006 31.4594C128.341 31.4561 128.809 31.5132 128.924 31.067C129.443 31.3165 129.986 30.8365 129.865 30.3946C129.865 30.3946 129.698 31.1579 128.626 30.6745C128.411 30.6432 128.115 30.7789 128.134 30.9254C128.149 31.1125 128.516 31.2716 128.006 31.4594ZM130.841 31.0863C131.114 31.3625 131.287 31.6184 131.227 31.8261C131.395 31.5824 131.411 31.7293 131.448 31.8229C131.649 31.9781 131.8 32.4482 131.297 32.7526C131.533 32.8167 131.553 33.0274 131.294 33.1033C131.305 33.326 131.899 33.0485 131.952 33.1387C131.999 33.1184 132.014 33.0519 132.026 32.9811C132.076 32.9129 132.082 32.8337 132.03 32.7398C132.413 32.1014 131.937 31.7523 131.532 31.6814C131.283 31.4213 131.066 31.2655 130.841 31.0863ZM130.861 30.3978C131.269 30.6566 131.825 30.8586 132.351 31.2021C132.876 30.6773 133.264 31.5438 132.511 31.601C132.701 31.9519 133.504 31.9289 133.481 31.6492C133.981 30.7006 132.626 30.4682 132.357 30.8096C131.947 30.5778 131.572 30.3177 130.983 30.208C132.149 30.7101 132.349 30.8676 132.145 30.8948C131.96 30.9195 131.307 30.5486 130.861 30.3978ZM131.219 29.6683C131.54 29.5282 132.235 29.5475 132.422 29.3799C132.729 28.8204 133.298 28.9684 133.479 29.3325C133.608 29.3312 133.705 29.3594 133.719 29.4629C133.6 29.7279 133.676 30.3765 133.341 30.2173C133.402 30.1699 133.372 30.1225 133.341 30.0751C133.198 30.2189 133.197 30.0549 133.195 29.9882C132.98 30.2406 132.871 30.199 132.714 30.162C132.752 30.1463 132.769 30.104 132.765 30.0356C133.393 29.792 132.848 29.054 132.339 29.7433C132.166 29.7951 131.482 29.6411 131.219 29.6683ZM126.192 26.1253L126.169 26.2003C126.427 26.4352 128.665 28.9042 129.331 29.9606C129.231 29.7363 129.273 29.6436 128.877 29.1706C129.89 29.7392 130.388 29.2346 130.328 29.1232C130.246 29.1329 130.193 29.1443 130.148 29.121C129.212 29.5993 128.518 28.8064 128.105 28.2819C128.628 28.7 128.972 28.775 129.516 28.8072C129.57 28.7123 129.577 28.6642 129.591 28.6097C129.544 28.6008 129.498 28.5881 129.461 28.5584C128.824 28.7993 128.06 28.3154 127.462 27.5038C128.031 27.9133 128.438 27.8736 128.826 27.879C128.886 27.8101 128.968 27.75 128.98 27.6617C128.925 27.6659 128.883 27.6461 128.838 27.6301C128.438 27.7695 127.459 27.7223 126.989 26.8994C127.315 27.1189 127.678 27.2484 128.14 27.1325C128.232 27.0617 128.332 26.9922 128.353 26.9113C127.78 27.0567 127.223 27.0546 126.713 26.6032C126.858 26.6046 127.011 26.5527 127.166 26.4807C126.866 26.506 126.555 26.4748 126.192 26.1253V26.1253Z" fill="#DFDDE2"/>
<path fill-rule="evenodd" clip-rule="evenodd" d="M119.248 8.53692C120.361 9.13287 121.643 7.77126 122.542 8.51103C122.639 8.51667 122.652 8.44406 122.636 8.38184C121.591 7.44268 120.477 8.82561 119.248 8.53692Z" fill="#C3BDC9"/>
<path fill-rule="evenodd" clip-rule="evenodd" d="M118.843 25.6513L118.755 25.7443C118.647 26.2335 118.391 26.6242 118.095 26.9982C118.366 27.0422 118.699 26.8888 119.021 26.7493C118.821 26.3751 118.778 26.1258 118.843 25.6513Z" fill="#C3BDC9"/>
<path fill-rule="evenodd" clip-rule="evenodd" d="M119.155 24.9996C119.309 25.3069 119.604 24.8035 119.746 24.6678C119.56 25.3331 119.19 26.0058 119.998 26.6309C119.584 26.6729 119.469 26.8526 119.853 27.2628C119.103 26.8933 118.68 26.2807 119.155 24.9996Z" fill="#DFDDE2"/>
<path fill-rule="evenodd" clip-rule="evenodd" d="M119.777 24.6362C119.519 25.9502 119.945 26.4635 120.373 26.5874C120.209 25.1674 120.775 24.1527 121.56 23.3762C121.507 22.0527 121.322 21.4588 121.177 20.5047C121.188 20.9466 121.5 22.1568 121.288 23.003C121.067 23.8826 120.439 24.7367 119.777 24.6362Z" fill="#CECAD5"/>
<path fill-rule="evenodd" clip-rule="evenodd" d="M117.171 25.991C117.915 26.0407 118.521 25.8052 119.013 25.2998C118.743 25.9596 118.13 26.2686 117.219 26.1766C117.548 26.1172 117.557 26.0609 117.171 25.991Z" fill="#C3BDC9"/>
<path fill-rule="evenodd" clip-rule="evenodd" d="M117.08 25.236C117.009 25.3473 116.952 25.4007 116.896 25.4538C118.07 25.6069 118.725 25.045 119.165 24.5545C119.816 24.5917 120.265 24.1688 120.654 23.739C120.216 24.0867 119.766 24.3732 119.255 24.3087C118.752 25.0412 118.044 25.3821 117.08 25.236Z" fill="#C3BDC9"/>
<path fill-rule="evenodd" clip-rule="evenodd" d="M117.537 24.3423C117.45 24.5256 117.422 24.5226 117.375 24.5825C117.773 24.6653 118.318 24.5105 119.249 23.7334C120.169 23.7119 120.554 23.1075 120.816 22.8452C120.327 23.2684 119.831 23.4928 119.327 23.4988C118.839 23.9977 118.305 24.4034 117.537 24.3423Z" fill="#C3BDC9"/>
<path fill-rule="evenodd" clip-rule="evenodd" d="M117.844 23.6049L117.677 23.8675C117.997 23.8496 118.418 23.8627 119.316 23.0352C120.007 22.8891 120.625 22.3712 121.167 21.4655C120.716 22.0222 120.305 22.6189 119.394 22.7C119.162 23.2332 118.547 23.4555 117.844 23.6049Z" fill="#C3BDC9"/>
<path fill-rule="evenodd" clip-rule="evenodd" d="M125.411 24.6997C125.349 25.1774 125.242 25.6106 125.031 25.9398C125.054 26.0963 125.049 26.2527 125.042 26.4091C125.365 26.0805 125.602 25.1454 125.411 24.6997H125.411Z" fill="#C3BDC9"/>
<path fill-rule="evenodd" clip-rule="evenodd" d="M125.879 24.9287C126.225 25.8299 125.915 27.0286 124.808 27.2357C125.15 27.378 126.176 26.9091 126.319 25.5153L127.161 26.4649C127.207 26.2465 127.237 26.026 127.078 25.7052C126.411 25.5648 126.198 25.3024 125.879 24.9287Z" fill="#C3BDC9"/>
<path fill-rule="evenodd" clip-rule="evenodd" d="M126.425 25.2193C126.878 25.4175 127.668 25.7095 128.461 25.3645C128.579 25.4136 128.698 25.4513 128.817 25.4706C128.548 25.7533 127.79 25.8213 127.094 25.7276C128.052 25.6019 126.599 25.4919 126.425 25.2193Z" fill="#C5BDCB"/>
<path fill-rule="evenodd" clip-rule="evenodd" d="M124.847 23.6105C125.176 23.8434 125.545 23.9843 125.962 23.9791C126.274 24.5728 127.184 24.7377 127.696 24.7109C127.72 24.792 127.774 24.8626 127.841 24.9288C127.413 24.9306 126.865 24.7911 126.024 24.2584C125.797 24.1799 124.996 23.8066 124.847 23.6105Z" fill="#C3BDCA"/>
<path fill-rule="evenodd" clip-rule="evenodd" d="M124.674 22.7224C125.002 22.9938 125.363 23.1378 125.75 23.186C126.148 23.6094 126.615 23.8276 127.228 23.9066L127.356 24.13C127.164 24.1494 126.231 23.7313 125.89 23.415C125.318 23.2725 124.888 22.9881 124.674 22.7224Z" fill="#C3BDC9"/>
<path fill-rule="evenodd" clip-rule="evenodd" d="M124.747 22.0073C125.126 22.3794 125.558 22.5308 125.907 22.5324C126.168 22.8073 126.41 23.0912 126.96 23.2362C126.987 23.3114 127.019 23.3751 127.061 23.4206C126.647 23.4134 126.078 22.8378 126.007 22.7447C125.451 22.6649 124.82 22.3841 124.747 22.0073Z" fill="#C3BDC9"/>
<path fill-rule="evenodd" clip-rule="evenodd" d="M121.442 20.3219C121.562 20.2758 121.617 20.2081 121.677 20.1416C121.777 20.2791 121.92 20.3094 122.06 20.3454C121.793 20.3361 121.759 20.4621 121.888 20.6825C121.943 20.7705 122.036 22.0892 122.06 22.8851C122.063 23.6224 122.162 24.1012 122.31 24.4214C121.729 23.9306 122.051 20.9616 121.442 20.3219Z" fill="#DFDDE2"/>
<path fill-rule="evenodd" clip-rule="evenodd" d="M122.412 20.3768C122.737 20.3462 123.059 20.3279 123.445 20.0946L123.586 20.2592C123.309 20.8644 123.153 22.2933 122.975 23.5749C123.026 22.7592 123.043 22.0311 122.999 21.8269C122.91 21.3665 122.928 21.0863 122.936 21.0117C123.112 20.372 122.63 20.5284 122.412 20.3768Z" fill="#CECAD5"/>
<path fill-rule="evenodd" clip-rule="evenodd" d="M123.711 20.3297L123.75 20.369C123.202 21.5671 123.753 24.3143 122.569 25.6991L122.545 25.1661C123.442 24.573 123.218 21.545 123.711 20.3297Z" fill="#C3BDC9"/>
<path fill-rule="evenodd" clip-rule="evenodd" d="M121.731 23.2848C121.725 25.247 122.048 25.6182 120.714 27.2511C121.335 26.7324 122.03 25.1442 121.943 26.0519C122.1 25.7606 122.252 25.4712 122.287 25.221C121.772 24.34 121.795 23.8299 121.731 23.2848Z" fill="#C3BDC9"/>
<path fill-rule="evenodd" clip-rule="evenodd" d="M122.812 25.4483L122.561 25.7461L122.631 28.3407C122.663 27.264 122.717 26.2746 122.812 25.4483Z" fill="#C3BDC9"/>
<path fill-rule="evenodd" clip-rule="evenodd" d="M123.406 23.567C123.338 23.9681 123.293 24.4499 123.187 24.7193C123.368 26.7952 123.931 26.9946 124.4 27.1805C123.618 26.0709 123.464 24.5814 123.406 23.567Z" fill="#DFDDE2"/>
<path fill-rule="evenodd" clip-rule="evenodd" d="M121.904 26.287C121.661 26.8355 121.741 27.8889 121.058 28.5758C121.625 28.2851 121.84 27.5802 121.857 27.0316L121.911 27.6117C121.723 28.8007 121.185 29.1244 120.808 29.1951C120.868 29.1785 121.459 29.3035 122.001 28.0977C122.019 28.5357 121.712 29.0234 121.313 29.1872C121.662 29.1989 122.008 28.8776 122.185 28.6307C121.899 27.7829 121.893 27.0322 121.904 26.287Z" fill="#E0DEE2"/>
<path fill-rule="evenodd" clip-rule="evenodd" d="M122.166 28.0702C122.224 28.355 122.307 28.7701 122.627 29.1715L122.651 29.6732C122.797 29.4804 123.364 27.8728 123.374 27.3452C123.396 27.178 123.405 26.9838 123.527 27.11C123.543 27.1217 123.558 27.1219 123.574 27.1022C123.402 26.9846 123.221 26.4042 123.085 26.2125C123.187 26.8403 123.266 27.7293 122.627 29.0539C122.434 28.8236 122.297 28.455 122.166 28.0702V28.0702Z" fill="#C3BDC9"/>
<path fill-rule="evenodd" clip-rule="evenodd" d="M124.899 29.091C124.211 29.4454 123.618 28.5908 123.333 28.0601L123.461 27.3355C123.464 27.3116 123.515 27.2937 123.538 27.3259C123.651 28.1235 124.155 29.0545 124.899 29.091Z" fill="#DFDDE2"/>
<path fill-rule="evenodd" clip-rule="evenodd" d="M123.21 28.3367L123.136 28.5562C123.401 29.1463 123.714 29.3514 124.122 29.5007C123.321 29.1059 123.267 28.7214 123.21 28.3367Z" fill="#DFDDE1"/>
<path fill-rule="evenodd" clip-rule="evenodd" d="M122.443 29.348L122.655 29.7124L122.816 29.3557C122.786 30.3175 122.723 31.4792 122.694 32.5499C122.606 31.4761 122.485 30.3566 122.443 29.348Z" fill="#DFDDE2"/>
<path fill-rule="evenodd" clip-rule="evenodd" d="M123.062 28.7483C123.042 28.8032 123.022 28.8551 123.003 28.8894C123.713 31.528 122.877 32.9349 122.69 33.1418C122.198 32.2669 122.203 31.4054 122.095 30.6687C122.159 31.3294 122.086 32.1883 122.659 33.2593L122.666 33.6943C123.364 32.8238 123.787 31.6154 123.245 28.9952C123.167 28.9299 123.121 28.8322 123.062 28.7483H123.062Z" fill="#C3BDC9"/>
<path fill-rule="evenodd" clip-rule="evenodd" d="M122.432 33.4553C122.491 33.5509 122.543 33.6479 122.663 33.7336C122.817 33.5722 122.851 33.4917 122.918 33.3886C122.787 34.0888 122.728 34.7711 122.635 35.4619C122.571 34.7789 122.524 34.0345 122.432 33.4553Z" fill="#DFDDE2"/>
<path fill-rule="evenodd" clip-rule="evenodd" d="M123.68 33.569C123.529 33.2321 123.351 32.9424 123.464 32.5695C123.443 32.4546 123.395 32.4371 123.343 32.4128C123.311 32.6118 123.241 32.753 123.179 32.8909C123.446 34.4942 123.067 35.3569 122.627 36.0812C121.907 35.1092 122.041 34.0616 122.029 33.1652C121.819 34.9849 122.257 35.7853 122.619 36.1988L122.623 36.6416C123.65 35.1306 123.549 33.7275 123.32 33.0594C123.433 33.2336 123.537 33.4144 123.68 33.569H123.68Z" fill="#C3BDC9"/>
<path fill-rule="evenodd" clip-rule="evenodd" d="M119.791 28.9677C119.929 30.2897 121.604 29.8891 122.283 28.8894L122.221 28.7091C121.587 29.5314 120.237 30.2625 119.791 28.9677Z" fill="#C4BEC9"/>
<path fill-rule="evenodd" clip-rule="evenodd" d="M122.126 29.4537C121.512 30.7312 120.772 31.6408 119.752 31.7308C120.447 31.7863 121.191 31.2209 121.422 30.9744C121.589 30.6838 121.806 30.5804 121.594 30.9705C121.512 31.1074 121.431 31.2074 121.301 31.331C121.465 31.2643 121.806 30.738 121.876 30.6922C121.905 30.139 122.03 29.8329 122.126 29.4537V29.4537Z" fill="#DFDDE2"/>
<path fill-rule="evenodd" clip-rule="evenodd" d="M121.873 30.7372C121.861 30.8829 121.848 31.0304 121.851 31.1474C120.882 32.144 120.045 32.4597 119.156 32.2504C119.89 32.2702 120.741 32.3483 121.873 30.7372Z" fill="#C3BECA"/>
<path fill-rule="evenodd" clip-rule="evenodd" d="M118.736 31.3136C118.522 30.7836 118.602 30.3564 118.979 30.0333C118.219 30.0173 117.395 31.4336 118.802 32.1506C118.098 31.7385 118.062 30.8786 118.292 30.5962C118.446 30.3509 118.671 30.2823 118.514 30.5571C118.406 30.9994 118.604 31.2251 118.736 31.3136Z" fill="#DFDDE2"/>
<path fill-rule="evenodd" clip-rule="evenodd" d="M123.289 29.0744C123.433 29.3053 123.61 29.5029 123.842 29.6453C123.779 30.9381 125.199 31.7953 126.161 31.43C125.608 31.8351 123.787 31.7363 123.289 29.0744Z" fill="#DFDDE2"/>
<path fill-rule="evenodd" clip-rule="evenodd" d="M123.499 30.6984V30.8536C124.166 31.9652 125.287 32.0056 125.629 31.9621C124.583 31.9423 123.927 31.4561 123.499 30.6984Z" fill="#C4C0CD"/>
<path fill-rule="evenodd" clip-rule="evenodd" d="M126.404 29.8892C127.288 30.5033 127.044 31.4585 126.094 31.8568C126.825 31.3751 127.184 30.7512 126.404 29.8892Z" fill="#E1DFE3"/>
<path fill-rule="evenodd" clip-rule="evenodd" d="M125.369 32.1284C126.209 32.2819 127.63 31.6218 126.869 30.1497C127.639 31.0452 126.778 32.6537 125.369 32.1284Z" fill="#C3BDC9"/>
<path fill-rule="evenodd" clip-rule="evenodd" d="M123.505 31.5852C123.498 31.6685 123.493 31.7201 123.472 31.8568C124.191 33.294 124.592 33.3887 125.06 33.7635C124.189 33.1114 123.743 32.37 123.505 31.5852Z" fill="#E0DEE3"/>
<path fill-rule="evenodd" clip-rule="evenodd" d="M124.683 34.2845C124.835 34.3521 124.953 34.3025 125.076 34.3455C126.175 34.729 127.536 34.075 127.129 32.7437C127.848 33.4457 126.525 35.4626 124.683 34.2845Z" fill="#C4BECB"/>
<path fill-rule="evenodd" clip-rule="evenodd" d="M126.614 32.3557C127.447 33.1827 126.592 34.3266 125.48 33.9353C126.658 34.0945 127.094 33.1163 126.614 32.3557Z" fill="#C3BECA"/>
<path fill-rule="evenodd" clip-rule="evenodd" d="M118.531 32.3501C117.392 33.1011 118.021 34.0312 118.548 34.2457C118.347 34.0978 118.134 33.5793 118.758 33.8688C118.963 33.957 119.146 33.9664 119.322 33.9519C118.157 33.5685 118.416 32.9473 118.531 32.3501Z" fill="#DFDDE2"/>
<path fill-rule="evenodd" clip-rule="evenodd" d="M121.862 31.3026C121.889 31.6933 121.932 32.0074 121.989 32.2504C121.623 32.9825 121.182 33.4707 120.728 33.8189C121.26 33.3025 121.672 32.7852 121.851 32.2392C120.923 33.6895 120.28 33.9124 119.615 33.9464C120.442 33.7639 121.649 33.0488 121.862 31.3026Z" fill="#DFDDE2"/>
<path fill-rule="evenodd" clip-rule="evenodd" d="M122 32.3058C122.025 32.423 122.053 32.539 122.122 32.6272C120.953 34.8849 119.392 34.8199 118.857 34.6337C119.869 34.7385 119.517 34.5554 119.189 34.4951C120.389 34.5336 121.448 33.7183 122 32.3058Z" fill="#C3BEC9"/>
<path fill-rule="evenodd" clip-rule="evenodd" d="M121.038 19.8774C121.189 19.7754 121.261 19.6534 121.349 19.5302C121.381 19.5919 121.442 19.6456 121.518 19.6999C121.297 19.7724 121.219 20.0988 121.095 20.1005C121.075 20.028 121.074 19.9499 121.038 19.8774Z" fill="#C4BECA"/>
<path fill-rule="evenodd" clip-rule="evenodd" d="M121.53 19.7046C121.861 19.8292 122.199 19.8131 122.617 19.5189C122.654 19.5573 122.707 19.6036 122.758 19.6492C122.359 19.9343 121.705 19.861 121.53 19.7046Z" fill="#C3BDC9"/>
<path fill-rule="evenodd" clip-rule="evenodd" d="M122.943 19.7018C123.178 19.7416 123.409 19.795 123.715 19.627C123.759 19.6859 123.804 19.7323 123.848 19.7766C123.748 19.8772 123.245 19.8627 122.943 19.7018Z" fill="#C3BDC9"/>
<path fill-rule="evenodd" clip-rule="evenodd" d="M123.915 19.0727C123.99 19.1192 124.126 19.2553 124.258 19.3332C124.16 19.4708 124.062 19.6271 123.965 19.8016C123.528 19.4226 123.834 19.0233 123.915 19.0727Z" fill="#C3BDC9"/>
<path fill-rule="evenodd" clip-rule="evenodd" d="M120.733 19.1808C120.796 19.2681 120.839 19.3306 120.88 19.3886C121.146 19.2033 121.236 19.0037 121.322 18.8039C121.283 18.7815 121.246 18.7494 121.215 18.6902C121.004 19.0629 120.872 19.1082 120.733 19.1808Z" fill="#C3BDC9"/>
<path fill-rule="evenodd" clip-rule="evenodd" d="M121.342 18.815L121.311 18.8732C121.838 19.1756 122.692 19.4025 123.779 18.851L123.671 18.6293C122.967 19.1814 122.171 19.2744 121.342 18.815Z" fill="#C3BDC9"/>
<path fill-rule="evenodd" clip-rule="evenodd" d="M123.867 18.8122C124.178 18.7536 124.07 18.3671 124.357 18.2497C124.827 18.9585 125.631 18.7745 125.959 18.2358L126.011 18.6349C125.701 18.8324 125.289 19.1755 124.603 18.8566C124.549 18.9713 124.537 19.1519 124.534 19.3471C124.233 19.2474 123.992 19.0888 123.867 18.8122V18.8122Z" fill="#C3BDC9"/>
<path fill-rule="evenodd" clip-rule="evenodd" d="M124.82 17.4959C124.939 17.7266 124.828 18.2523 124.834 18.4242C124.604 18.3928 124.477 18.2057 124.354 18.0501C124.378 18.0456 124.395 18.0388 124.404 18.0196C124.432 17.8754 124.7 17.8089 124.82 17.4959H124.82Z" fill="#C3BDC9"/>
<path fill-rule="evenodd" clip-rule="evenodd" d="M122.755 18.1443L122.73 18.1776C123.091 18.3089 123.839 18.3749 124.371 18.0141L124.277 17.845C123.905 18.1634 123.429 18.3127 122.755 18.1443Z" fill="#C3BECA"/>
<path fill-rule="evenodd" clip-rule="evenodd" d="M122.545 18.0224C122.611 18.0743 122.674 18.1164 122.733 18.1388C122.238 18.5926 121.523 18.469 120.802 18.0889C120.81 18.0668 120.804 18.0446 120.797 18.0224C121.629 18.4742 122.211 18.3464 122.545 18.0224Z" fill="#C3BDC9"/>
<path fill-rule="evenodd" clip-rule="evenodd" d="M120.761 18.0196C120.937 18.2973 120.492 18.3874 120.49 18.8012L120.315 18.5794C120.308 18.3084 120.67 18.3519 120.761 18.0196Z" fill="#C3BEC9"/>
<path fill-rule="evenodd" clip-rule="evenodd" d="M120.276 18.4963L119.936 17.978C119.578 17.5106 120.762 17.4176 120.633 16.5425C120.709 16.6024 120.785 16.6798 120.86 16.7199C120.817 17.4246 120.201 17.406 120.191 17.8894C120.112 17.8595 120.072 17.786 120.052 17.6898C120.022 17.7129 120.015 17.7152 119.983 17.748C119.834 17.9319 120.054 18.0362 120.276 18.4963Z" fill="#C3BEC9"/>
<path fill-rule="evenodd" clip-rule="evenodd" d="M120.601 17.5471C120.947 17.5966 121.287 17.5469 121.612 17.2375C121.668 17.2916 121.712 17.3488 121.786 17.3982C121.372 17.6511 120.816 17.6855 120.601 17.5471Z" fill="#C3BDC9"/>
<path fill-rule="evenodd" clip-rule="evenodd" d="M121.802 17.4099L121.763 17.4413C122.337 17.7707 123.138 17.7683 123.57 17.4727C123.509 17.4372 123.457 17.393 123.406 17.3472C122.892 17.7256 122.118 17.6036 121.802 17.4099Z" fill="#C4BECA"/>
<path fill-rule="evenodd" clip-rule="evenodd" d="M123.584 17.4727L123.554 17.5099C123.962 17.6686 124.466 17.6529 124.82 17.4648C124.796 17.3976 124.769 17.3323 124.724 17.2806C124.341 17.5832 123.962 17.5573 123.584 17.4727Z" fill="#C4BEC9"/>
<path fill-rule="evenodd" clip-rule="evenodd" d="M120.921 16.7615C121.52 17.0666 122.174 16.8636 122.531 16.5481C122.592 16.6255 122.653 16.6705 122.714 16.7116C122.267 17.1041 121.118 17.0549 120.921 16.7615Z" fill="#C4BEC9"/>
<path fill-rule="evenodd" clip-rule="evenodd" d="M122.736 16.7199L122.706 16.7476C123.245 17.117 124.069 16.8939 124.288 16.7503C124.26 16.6635 124.233 16.5878 124.205 16.5231C123.826 16.848 123.262 16.9544 122.736 16.7199V16.7199Z" fill="#C3BDC9"/>
<path fill-rule="evenodd" clip-rule="evenodd" d="M119.405 15.955L119.483 15.9993C119.565 15.8812 119.633 15.8528 119.667 15.8996C119.701 15.9464 119.638 16.0332 119.726 16.1102C120.005 15.8879 120.645 15.7407 120.722 15.4118C120.84 15.7412 121.238 15.7506 121.563 16.3208C121.486 15.8878 121.043 15.7694 120.861 15.4783C120.68 15.1872 120.787 14.8231 120.932 14.3532C120.631 14.7623 120.868 15.3432 120.376 15.6032C120.064 15.7682 119.469 15.7319 119.405 15.955Z" fill="#C3BDC9"/>
<path fill-rule="evenodd" clip-rule="evenodd" d="M121.99 13.8987L122.007 14.2867C121.494 14.4871 121.894 15.7691 121.691 16.0492C121.61 14.9552 121.159 14.5615 121.99 13.8987H121.99Z" fill="#C3BDC9"/>
<path fill-rule="evenodd" clip-rule="evenodd" d="M122.404 14.8299H122.465C122.531 15.5467 123.282 15.615 123.411 16.3208C123.251 15.8315 122.825 15.6888 122.598 15.4284C122.467 15.9761 121.807 16.1389 121.64 16.4483C121.595 16.1935 122.551 15.8367 122.404 14.8299Z" fill="#C3BDC9"/>
<path fill-rule="evenodd" clip-rule="evenodd" d="M123.538 14.1425C123.145 14.766 123.928 15.1673 123.505 16.2044C123.725 14.848 122.779 14.9587 123.378 13.9763C123.585 14.1781 124.296 14.3829 124.362 14.7245C124.123 14.3869 123.755 14.3612 123.538 14.1425Z" fill="#C3BDC9"/>
<path fill-rule="evenodd" clip-rule="evenodd" d="M124.357 14.8133C124.431 15.053 124.497 15.1484 124.556 15.3065C124.341 16.0115 123.49 16.257 123.444 16.5148C123.297 16.1854 124.362 16.0018 124.357 14.8133Z" fill="#C3BDC9"/>
<path fill-rule="evenodd" clip-rule="evenodd" d="M125.165 14.0926C125.031 14.0642 124.903 14.0888 124.755 13.9374C124.78 14.1655 124.743 14.2995 124.711 14.4419C124.99 14.6026 125.174 16.0989 125.286 16.1656C125.229 15.5221 125.255 14.6751 124.866 14.2146L124.882 14.137C125 14.1796 125.091 14.1681 125.165 14.0926H125.165Z" fill="#C3BDC9"/>
<path fill-rule="evenodd" clip-rule="evenodd" d="M119.947 15.2622C120.214 14.8618 120.445 14.3956 120.788 14.156C121.13 13.9163 121.345 14.0084 122.033 13.4442L122.293 12.7625C121.712 13.6169 121.027 14.2021 120.036 13.9985C120.095 14.0318 120.128 14.1137 120.534 14.137C120.324 14.3411 120.143 14.7815 119.947 15.2622Z" fill="#C3BDC9"/>
<path fill-rule="evenodd" clip-rule="evenodd" d="M119.803 13.3721C120.323 13.6331 120.959 13.7666 122.05 12.2082C122.282 12.1446 122.508 12.0185 122.725 11.7924C122.023 13.481 120.028 14.5132 119.803 13.3721Z" fill="#DFDDE2"/>
<path fill-rule="evenodd" clip-rule="evenodd" d="M122.127 14.3476C122.959 11.2043 125.484 9.32642 123.3 7.65213C124.884 10.4005 122.364 11.5629 122.127 14.3476Z" fill="#F1EEF0"/>
<path fill-rule="evenodd" clip-rule="evenodd" d="M121.524 11.6262C121.567 12.4519 122.609 11.8396 122.858 11.2992C122.436 11.5845 122.018 11.8419 121.524 11.6262Z" fill="#DFDDE2"/>
<path fill-rule="evenodd" clip-rule="evenodd" d="M123.09 10.3459C123.186 10.2042 123.204 10.3351 123.367 10.3736C122.985 11.1698 122.34 11.3873 121.989 11.4045C122.465 11.1569 122.902 10.872 123.09 10.3459Z" fill="#DFDDE2"/>
<path fill-rule="evenodd" clip-rule="evenodd" d="M122.835 9.01495L122.917 9.09722C123.032 9.09246 123.146 9.09367 123.261 8.98754C123.263 9.08763 123.225 9.13248 123.175 9.15997C123.24 9.73903 123.176 10.0767 123.096 10.335C123.196 10.2332 123.278 10.3794 123.368 10.3726C123.512 10.1454 123.758 9.35541 123.363 8.67001C123.374 8.86692 123.162 9.06959 122.835 9.01495H122.835Z" fill="#C3BDC9"/>
<path fill-rule="evenodd" clip-rule="evenodd" d="M121.477 8.76339C122.109 8.50595 122.469 8.95889 122.753 9.00173C123.203 9.6656 122.736 10.2436 122.434 10.598C122.635 10.254 122.929 8.87281 121.477 8.76339Z" fill="#C3BDC9"/>
<path fill-rule="evenodd" clip-rule="evenodd" d="M122.044 14.7134C122.732 15.0362 123.052 14.2527 123.378 13.9486C123.215 13.5759 123.262 13.27 123.25 12.9453C122.653 13.2706 122.67 14.4509 122.044 14.7134Z" fill="#CECAD5"/>
<path fill-rule="evenodd" clip-rule="evenodd" d="M124.393 9.17081C124.336 9.19675 124.331 9.4186 124.255 9.41464C124.207 10.9994 122.767 11.8804 122.429 14.1703C122.639 13.9249 122.79 12.9588 123.33 12.0709C123.894 11.1442 124.448 10.624 124.393 9.17081Z" fill="#CECAD5"/>
<path fill-rule="evenodd" clip-rule="evenodd" d="M123.656 12.166C123.082 13.7145 124.219 13.727 124.317 14.2314C123.139 13.835 123.057 12.9748 123.656 12.166Z" fill="#DFDDE2"/>
<path fill-rule="evenodd" clip-rule="evenodd" d="M123.867 7.72549C125.773 8.96681 124.138 11.4722 123.425 12.1464C123.707 11.5135 125.425 9.7714 123.867 7.72549Z" fill="#DFDDE2"/>
<path fill-rule="evenodd" clip-rule="evenodd" d="M124.509 7.03964C124.704 7.39839 125.018 7.96357 124.556 7.85094C125.366 9.65348 124.477 10.58 124.031 11.5823C123.09 14.0375 124.648 13.0639 124.466 14.7762C124.995 14.157 124.306 13.2583 124.336 12.9487C124.298 12.4989 124.581 11.5272 124.673 10.9393C124.786 11.2635 124.96 11.46 125.166 11.586C124.802 10.3096 125.939 7.79375 124.509 7.03964Z" fill="#CECAD5"/>
<path fill-rule="evenodd" clip-rule="evenodd" d="M124.697 11.2646C124.788 11.3916 124.853 11.5366 125.002 11.6252C125.078 12.1247 124.378 13.7085 125.432 13.8278C124.575 14.2563 124.108 13.0267 124.697 11.2646Z" fill="#CECAD5"/>
<path fill-rule="evenodd" clip-rule="evenodd" d="M124.235 6.54359C124.415 6.55638 124.843 6.85755 125.242 6.53809C125.517 6.91185 125.006 7.22824 124.468 6.94853C124.328 6.85842 124.773 6.81665 124.235 6.54359Z" fill="#C3BDC9"/>
<path fill-rule="evenodd" clip-rule="evenodd" d="M121.054 6.67908C121.216 6.85829 121.38 6.95108 121.532 7.38451C121.644 7.38572 121.756 7.39906 121.868 7.43158C121.679 7.13129 121.45 6.855 121.054 6.67908Z" fill="#DFDDE2"/>
<path fill-rule="evenodd" clip-rule="evenodd" d="M122.788 6.15781C124.446 6.60057 124.29 5.82969 124.587 5.71887C124.882 6.19046 124.073 6.80231 122.788 6.15781Z" fill="#C3BDC9"/>
<path fill-rule="evenodd" clip-rule="evenodd" d="M120.761 6.487C120.667 6.45475 120.581 6.46065 120.526 6.46742C120.674 5.27706 121.991 6.03298 122.702 6.47922C121.805 6.04893 120.681 5.50199 120.761 6.487Z" fill="#C3BEC9"/>
<path fill-rule="evenodd" clip-rule="evenodd" d="M120.765 6.48701C120.691 5.13365 122.638 6.67955 123.539 6.73392C122.912 6.80513 120.847 5.42838 120.859 6.51054L120.765 6.48701Z" fill="#F1EEF0"/>
<path fill-rule="evenodd" clip-rule="evenodd" d="M120.89 6.5262L121.054 6.58889C121.071 6.47055 121.116 6.33439 121.176 6.32238C121.558 6.24636 121.2 6.44762 121.262 6.51051C121.334 6.56146 121.414 6.61242 121.497 6.66337C121.5 6.60585 121.504 6.538 121.508 6.45956C121.515 6.15129 122.398 6.64768 123.018 6.8515C123.087 7.03526 122.674 7.26595 122.349 7.20032C122.645 7.43417 123.267 7.3206 123.535 6.93771C124.012 6.97398 124.117 6.89581 124.223 6.77701C123.859 6.70132 123.691 6.88092 122.777 6.62817C121.938 6.38708 120.914 5.67052 120.89 6.5262Z" fill="#C3BDC9"/>
<path fill-rule="evenodd" clip-rule="evenodd" d="M121.649 6.37336C121.752 6.3635 121.846 6.3983 121.939 6.44C121.753 6.72842 122.025 7.00357 122.177 6.96127C122.229 7.00826 122.281 7.05532 122.455 7.10233C122.21 7.15368 121.388 6.90019 121.649 6.37336Z" fill="#B6B1BF"/>
<path fill-rule="evenodd" clip-rule="evenodd" d="M119.478 8.03904C118.558 6.26554 121.22 5.95239 121.49 7.41976C121.49 7.41976 122.15 7.44645 122.733 7.75686C123.869 8.58257 123.179 9.05503 122.95 9.01708C122.421 9.02634 122.321 8.51707 121.549 8.71156C121.363 8.78102 121.353 8.87663 121.27 8.87381C120.809 8.75655 121.654 7.82987 122.561 8.49756C122.642 8.55709 122.818 8.44077 122.663 8.26632C122.054 7.65133 121 7.9893 120.769 8.04689C120.475 7.56853 119.823 7.67802 119.478 8.03904Z" fill="#F6D155"/>
<path fill-rule="evenodd" clip-rule="evenodd" d="M122.119 6.59283C122.235 6.68536 122.821 6.78076 122.835 6.83581C122.647 7.27984 122.033 7.1428 122.119 6.59283Z" fill="#AAA3B5"/>
<path fill-rule="evenodd" clip-rule="evenodd" d="M126.05 18.61C126.046 18.6181 126.037 18.6227 126.05 18.6432C126.19 18.7123 126.362 18.7538 126.565 18.7707L127.046 21.614C127.009 20.8741 126.958 20.1096 126.941 19.4025C126.887 19.2667 126.847 19.0164 126.808 18.7651C126.869 18.7586 126.93 18.7488 126.991 18.7318C127.295 20.529 128.041 20.8907 128.186 21.032C127.791 20.6164 127.259 20.032 127.085 18.6931C127.349 18.5455 127.469 18.3662 127.555 18.3384C127.581 18.2625 127.565 18.0811 127.527 17.9947C127.262 18.2489 127.022 18.5479 126.487 18.5046C126.451 18.5017 126.487 18.5545 126.487 18.5545C126.694 18.8321 126.276 18.6619 126.05 18.61Z" fill="#C3BDC9"/>
<path fill-rule="evenodd" clip-rule="evenodd" d="M127.079 21.9189L127.101 22.3512C127.368 22.1786 127.619 22.1256 127.975 21.3036C128.121 22.7606 128.14 24.1771 128.988 24.4685C128.55 23.4673 128.549 22.3679 128.518 21.3092C128.466 21.3758 128.414 21.4238 128.363 21.4699C128.014 21.2676 127.907 21.1058 127.721 20.9212C127.604 21.2843 127.546 21.6659 127.079 21.9189Z" fill="#CECAD5"/>
<path fill-rule="evenodd" clip-rule="evenodd" d="M127.709 18.3976C127.827 18.441 127.959 18.4546 128.097 18.4564L128.246 20.5728L127.709 18.3976Z" fill="#DFDDE2"/>
<path fill-rule="evenodd" clip-rule="evenodd" d="M128.715 18.2447L128.785 18.1938C128.957 18.5824 129.19 18.9258 129.528 19.1893L130.44 25.3346L129.122 19.1736C129.115 20.2347 128.822 20.9388 128.347 21.4154L128.296 21.0117C128.796 20.3311 129.096 19.5168 128.715 18.2447Z" fill="#C3BDC9"/>
<path fill-rule="evenodd" clip-rule="evenodd" d="M130.107 19.6557C130.246 19.7393 130.405 19.8072 130.585 19.8594C131.138 21.7133 131.347 25.3677 130.62 26.6907L130.557 26.1891C129.285 25.2146 128.968 22.4997 128.711 20.9804L128.75 20.9059C128.995 22.2939 129.285 24.9662 130.53 26.0519C130.754 25.3412 131.239 23.2917 130.369 19.8751C130.305 19.802 130.201 19.7288 130.107 19.6557Z" fill="#C4BEC9"/>
<path fill-rule="evenodd" clip-rule="evenodd" d="M129.329 17.6804C129.438 17.6669 129.499 17.6746 129.673 17.6333L130.886 19.4479L129.329 17.6804Z" fill="#DFDDE2"/>
<path fill-rule="evenodd" clip-rule="evenodd" d="M130.632 19.8751C130.807 19.9353 131.031 19.9859 131.258 20.0358C131.264 20.0912 133.032 24.6444 134.266 24.9937C132.688 25.3076 131.896 22.5351 130.866 20.8981C130.793 20.5521 130.715 20.2107 130.632 19.8751Z" fill="#DFDDE2"/>
<path fill-rule="evenodd" clip-rule="evenodd" d="M130.426 17.1356C130.411 17.1593 130.396 17.1831 130.371 17.1965C131.09 18.3123 131.108 18.9921 131.013 19.6021L131.306 19.9845C131.452 19.1311 131.294 18.5015 131.09 17.906L134.67 23.1161L131.505 18.0446L132.175 18.1388C131.617 17.9513 131.052 17.887 130.426 17.1356Z" fill="#C3BDC9"/>
<path fill-rule="evenodd" clip-rule="evenodd" d="M132.584 18.1507C132.721 18.1518 132.843 18.1437 132.936 18.1154C133.645 19.2731 135.473 21.3765 135.26 24.2373L135.037 23.8022C133.34 23.4097 132.161 21.2745 131.559 20.4081C132.552 21.7199 133.677 23.4311 134.994 23.7003C135.103 21.5646 133.495 19.4696 132.584 18.1507Z" fill="#C3BDC9"/>
<path fill-rule="evenodd" clip-rule="evenodd" d="M132.955 18.1111L133.016 18.2164C134.585 19.0532 136.346 20.7111 137.436 19.4912C136.306 19.9461 134.476 18.3487 133.27 17.7453L133.326 18.0058C133.192 18.0703 133.074 18.0896 132.955 18.1111Z" fill="#DFDDE2"/>
<path fill-rule="evenodd" clip-rule="evenodd" d="M130.731 16.1545C130.735 16.1994 130.73 16.2353 130.719 16.2654L132.673 17.4792L130.891 16.0547C130.848 16.1004 130.788 16.1235 130.731 16.1545H130.731Z" fill="#DFDDE2"/>
<path fill-rule="evenodd" clip-rule="evenodd" d="M133.163 17.2963C133.197 17.4267 133.236 17.5518 133.257 17.696C135.593 18.7785 136.993 18.5119 137.67 18.0879L137.31 17.9547C136.281 18.6363 133.793 17.7157 133.163 17.2963Z" fill="#C3BDC9"/>
<path fill-rule="evenodd" clip-rule="evenodd" d="M131.308 15.4464C131.308 15.4778 131.296 15.5091 131.285 15.5405C132.277 16.0645 132.971 17.0377 132.944 17.7078L133.28 17.9861C133.151 16.8658 132.75 16.4468 132.345 16.0303L137.091 17.892L132.482 15.7286C133.097 15.5887 133.738 15.5537 134.266 14.9134L135.354 14.8742C136.281 14.7316 137.336 14.1937 137.443 13.6906L137.095 13.7297C136.649 14.7158 134.894 14.682 133.984 14.7174C133.563 15.5098 132.221 15.5687 131.308 15.4464Z" fill="#C3BDC9"/>
<path fill-rule="evenodd" clip-rule="evenodd" d="M133.961 15.2308C133.843 15.326 133.718 15.3968 133.589 15.4503C134.085 15.5555 134.547 15.69 134.97 15.8579C136.198 15.9868 137.413 15.7992 137.466 14.7527C136.951 15.5859 135.479 15.4323 133.961 15.2308Z" fill="#DFDDE2"/>
<path fill-rule="evenodd" clip-rule="evenodd" d="M131.289 14.4979C131.322 14.5998 131.335 14.6896 131.355 14.788L133.871 14.7213C133.01 14.647 132.13 14.5821 131.289 14.4979Z" fill="#DFDDE2"/>
<path fill-rule="evenodd" clip-rule="evenodd" d="M132.502 13.4829C133.013 13.7164 133.479 13.9783 133.855 14.2746L133.523 13.9688C134.599 13.8801 135.693 13.7941 136.903 13.7259L133.077 13.7023L132.502 13.4829Z" fill="#C3BDC9"/>
<path fill-rule="evenodd" clip-rule="evenodd" d="M131.693 13.5716C131.682 13.6252 131.653 13.6788 131.633 13.7324L132.474 13.4885C133.732 12.5846 133.792 12.1324 133.951 11.6428L135.871 10.4456L133.691 11.532C132.507 11.5434 132.204 11.7078 131.843 11.8036C132.846 11.5857 133.506 11.5484 133.873 11.665L133.641 11.8091C133.338 12.8102 132.209 13.3932 131.693 13.5716Z" fill="#C3BDC9"/>
<path fill-rule="evenodd" clip-rule="evenodd" d="M131.684 12.75C131.72 12.8136 131.726 12.8925 131.743 12.9655C132.343 12.6436 132.904 12.2819 133.464 11.9191C132.871 12.2108 132.277 12.5086 131.684 12.75Z" fill="#DFDDE2"/>
<path fill-rule="evenodd" clip-rule="evenodd" d="M133.304 12.8754C133.979 12.8182 134.666 12.8021 135.373 12.8597C135.538 12.7666 137.251 12.2658 136.836 11.3586C136.344 12.3522 134.516 12.6923 134.372 12.7735C134.084 12.8028 133.374 12.8317 133.304 12.8754Z" fill="#DFDDE2"/>
<path fill-rule="evenodd" clip-rule="evenodd" d="M136.128 10.32L136.508 10.1554C136.548 10.2324 136.274 10.7492 135.788 11.2897C135.153 11.9947 134.779 12.3002 133.57 12.5187C133.593 12.4864 133.615 12.454 133.633 12.4217C134.569 12.1667 135.855 11.2529 136.128 10.32Z" fill="#DFDCE1"/>
<path fill-rule="evenodd" clip-rule="evenodd" d="M132.107 11.3155L131.997 11.488C133.075 10.7094 133.928 10.2337 134.579 10.03C135.225 9.34622 135.372 8.67075 135.103 8.27814C135.145 9.54205 133.142 10.4874 132.107 11.3155Z" fill="#DFDDE2"/>
<path fill-rule="evenodd" clip-rule="evenodd" d="M131.414 11.7976L131.375 12.119C132.172 11.5361 132.601 10.4777 132.49 9.58322L132.204 9.87714L130.96 10.8884C131.027 10.9484 131.101 11.0085 131.148 11.0687L132.204 9.90852C132.274 10.8642 131.632 11.6063 131.414 11.7976Z" fill="#C3BEC9"/>
<path fill-rule="evenodd" clip-rule="evenodd" d="M132.498 10.3005L132.423 10.567C132.938 10.2422 133.299 9.90128 133.617 9.5558C134.507 8.51897 134.623 7.6179 134.696 7.18466L134.313 7.49427C134.375 8.81155 132.901 10.0809 132.498 10.3005Z" fill="#DFDDE2"/>
<path fill-rule="evenodd" clip-rule="evenodd" d="M132.06 9.5597C132.208 9.55346 132.357 9.5493 132.506 9.56365L134.254 7.55307L132.06 9.5597Z" fill="#C3BDC9"/>
<path fill-rule="evenodd" clip-rule="evenodd" d="M130.773 8.41919L130.557 8.67C130.649 9.16405 130.646 9.82919 129.916 10.6375L129.939 10.6806L129.99 10.6649C130.568 9.94317 131.177 9.75585 131.786 9.57537C131.431 9.6638 131.078 9.72186 130.679 9.92809C130.951 9.10056 130.83 8.67672 130.773 8.4192V8.41919Z" fill="#C3BDC9"/>
<path fill-rule="evenodd" clip-rule="evenodd" d="M130.855 9.07764L130.851 9.23834C131.476 8.85298 132.11 8.38467 132.682 7.74507C133.016 7.31425 133.445 6.71012 133.495 5.88736L133.167 6.14608C133.102 7.51397 131.342 8.69214 130.855 9.07764H130.855Z" fill="#DFDDE2"/>
<path fill-rule="evenodd" clip-rule="evenodd" d="M129.435 8.90125C129.942 8.68147 130.437 8.47317 130.78 8.40747L132.983 6.35767C132.394 6.78474 131.156 7.85825 130.573 8.29383C130.373 8.4438 130.171 8.43898 129.435 8.90125Z" fill="#DFDDE2"/>
<path fill-rule="evenodd" clip-rule="evenodd" d="M133.1 6.16177C127.531 7.13538 124.438 13.8658 128.163 13.2594L127.956 13.2086C127.21 13.2743 127.02 12.6239 127.092 12.212C127.158 11.7626 127.586 11.5156 127.709 11.4733C127.676 11.0765 127.663 10.6829 128.05 10.3514C128.205 9.9759 128.381 9.78255 128.558 9.58718C129.143 7.4639 132.097 6.40635 133.1 6.16177Z" fill="#F1EEF0"/>
<path fill-rule="evenodd" clip-rule="evenodd" d="M130.506 8.65442C129.81 8.75593 128.856 9.52746 128.712 9.84968C128.697 9.88213 128.72 9.92819 128.472 10.0614L128.484 10.1045C128.723 10.0028 129.37 10.1003 128.762 10.2534C129.16 10.2427 129.507 10.4006 129.74 10.9315C131.027 10.7351 131.346 11.6776 131.023 12.3032C131.871 13.0401 131.335 13.9892 130.87 14.1648C131.153 14.7953 131.303 15.6331 130.436 15.9559C130.434 16.5183 130.356 17.394 129.028 17.3825C128.869 17.7613 128.397 18.4086 127.596 18.0645C127.596 18.0645 127.595 18.0878 127.588 18.1115C127.575 18.1558 127.919 18.2422 127.924 18.2212C128.197 18.2527 128.229 18.4315 127.897 18.3545C127.777 18.3187 127.67 18.2896 127.584 18.2487C127.586 18.2774 127.587 18.3062 127.568 18.3349C128.433 18.6343 128.932 18.1108 129.204 17.6608C130.235 17.6067 130.662 17.0371 130.714 16.148C131.558 15.6177 131.44 14.8184 131.179 14.2667C131.932 13.7029 131.878 12.7129 131.308 12.2523C131.695 10.9518 130.538 10.6012 129.927 10.6924C129.722 10.3458 129.588 10.2955 129.442 10.1986L130.534 8.71315L129.208 10.081C129.075 10.0356 128.903 10.0154 128.687 10.0222C128.968 9.3144 130.072 8.77818 130.506 8.65442Z" fill="#C3BDC9"/>
<path fill-rule="evenodd" clip-rule="evenodd" d="M120.362 7.10231C120.528 7.34976 120.805 7.03311 121.27 7.52166L121.324 7.4982C121.22 7.07783 120.936 6.82199 120.519 6.77701C120.697 6.93375 120.567 6.94301 120.56 7.04317C120.554 7.1312 120.563 7.239 120.362 7.10231Z" fill="#DFA12F"/>
<path fill-rule="evenodd" clip-rule="evenodd" d="M119.627 7.86266C119.879 7.72542 120.428 7.51939 120.777 8.01163C121.875 7.68968 122.653 7.98487 122.76 8.42703C122.828 8.30669 122.518 7.64081 121.266 7.7529C120.196 7.00335 119.589 7.6811 119.627 7.86266Z" fill="#DFA12F"/>
<path fill-rule="evenodd" clip-rule="evenodd" d="M121.301 8.80726C121.11 8.79922 121.704 8.09586 122.678 8.76804C123.027 8.90475 123.193 8.72654 123.128 8.43879C123.105 8.22686 122.988 8.10893 122.917 7.94501C123.406 8.31342 123.466 8.76771 123.134 8.95074C122.618 9.20819 122.256 8.29176 121.301 8.80726Z" fill="#DEA12F"/>
<path fill-rule="evenodd" clip-rule="evenodd" d="M120.495 18.84L120.709 19.1517L120.65 19.1146C120.038 19.4076 119.722 19.2928 119.42 19.1592L119.391 19.1369C118.762 19.2615 118.362 19.0961 118.028 18.8474C118.051 19.0349 118.182 19.1792 118.354 19.3076L117.694 22.2021L118.013 19.4857C117.635 20.5466 117.14 21.0427 116.457 21.3411L116.509 21.0442C117.133 20.7248 117.666 20.1195 117.916 18.8103C117.668 18.8434 117.419 18.8741 117.161 18.8103L116.538 20.9552L116.835 18.7361C116.564 18.5567 116.338 18.3334 116.116 18.1052V18.0682C116.183 18.1633 116.252 17.8745 116.242 17.7861C116.707 18.5452 117.37 18.6872 118.013 18.4689C118.01 18.5407 118.014 18.6044 117.983 18.7139L118.013 18.7064C118.04 18.7048 118.051 18.6376 118.068 18.5802C118.049 18.5672 118.045 18.5361 118.035 18.5135L118.042 18.4912C118.398 19.1324 119.281 18.832 119.391 18.8845C119.377 18.9187 119.398 19.0112 119.413 19.0924L119.428 19.1146C119.445 19.0775 119.448 19.0255 119.435 18.9588L119.406 18.8994L119.431 18.9142C119.733 19.1386 120.146 19.1237 120.495 18.84V18.84Z" fill="#C3BDC9"/>
<path fill-rule="evenodd" clip-rule="evenodd" d="M118.446 19.3521C118.649 19.4468 118.86 19.5253 119.091 19.5711C118.982 20.9288 118.295 22.4812 117.572 22.9405L117.59 22.5583C117.413 22.2616 117.273 21.786 117.235 20.8142L117.294 20.7548C117.311 21.4317 117.384 22.0536 117.609 22.5286C117.953 22.2696 118.705 21.4062 118.82 19.7455C118.827 19.6439 118.799 19.5803 118.742 19.5488C118.608 19.4742 118.526 19.4131 118.446 19.3521Z" fill="#C1C0C8"/>
<path fill-rule="evenodd" clip-rule="evenodd" d="M115.827 25.0965C116.609 25.3053 117.127 23.7941 117.425 22.7766C117.288 22.504 117.093 22.2214 117.079 20.9849L117.013 21.0517C116.93 22.6365 116.915 24.3862 115.827 25.0965Z" fill="#C3BDC9"/>
<path fill-rule="evenodd" clip-rule="evenodd" d="M116.202 18.1943L116.249 18.2415C116.191 18.5409 115.786 19.6277 116.286 20.687C116.007 20.2745 115.773 19.6216 116.202 18.1943Z" fill="#DFDDE3"/>
<path fill-rule="evenodd" clip-rule="evenodd" d="M115.777 18.8607L115.626 19.1022L113.965 25.8562L115.725 20.2305C115.812 20.5582 115.922 20.8985 116.38 21.4322C115.734 23.728 114.709 25.778 113.829 26.3181L113.912 26.0399C113.537 24.9025 113.838 22.513 114.478 20.1098C114.069 21.427 113.226 24.3081 113.761 26.4073L113.593 26.9269C115.335 25.7343 116.361 22.7462 116.747 21.2223C116.652 21.2986 116.546 21.3398 116.437 21.3745C115.89 20.8839 115.627 20.0925 115.777 18.8607Z" fill="#C3BDC9"/>
<path fill-rule="evenodd" clip-rule="evenodd" d="M114.731 16.9697C114.774 17.1768 115.018 17.4205 115.138 17.6303C115.203 17.7387 115.275 17.781 115.368 17.6526L115.442 17.5338C115.624 17.7385 115.872 17.8469 116.235 17.7861L115.798 18.7955C115.291 19.7799 114.616 19.9925 113.946 20.2279L114.153 19.842C115.025 19.7586 115.649 18.8967 115.975 18.0979C115.758 18.049 115.548 17.9635 115.302 17.8032L114.272 19.597L114.953 17.7861C115.09 17.5014 114.73 17.2781 114.731 16.9697Z" fill="#C3BDC9"/>
<path fill-rule="evenodd" clip-rule="evenodd" d="M114.316 20.1091C114.194 20.1601 114.067 20.2058 113.931 20.2427C112.81 22.7602 112.181 25.0071 110.182 25.7095C111.996 26.0542 113.216 23.1424 113.657 22.2689C113.981 21.4759 114.174 20.7379 114.316 20.1091Z" fill="#CECAD5"/>
<path fill-rule="evenodd" clip-rule="evenodd" d="M114.567 17.0397C114.363 17.2846 113.67 18.256 114.106 19.8788L114.143 19.8316C113.831 18.7555 114.156 17.556 114.567 17.0397Z" fill="#E0DEE4"/>
<path fill-rule="evenodd" clip-rule="evenodd" d="M113.82 18.4726C113.761 18.894 113.783 19.2251 113.801 19.5599C112.441 21.9727 110.17 24.1998 108.86 24.2912C110.531 22.0477 112.203 19.7293 113.875 17.4485C113.983 17.4025 114.09 17.3286 114.197 17.2554C114.022 17.5147 113.941 17.7266 113.905 17.916L109.308 23.82C110.844 23.6924 113.362 20.046 113.738 19.0627C113.741 18.7681 113.778 18.6111 113.82 18.4726Z" fill="#C3BDC9"/>
<path fill-rule="evenodd" clip-rule="evenodd" d="M109.138 23.9053L109.245 23.7717C109.113 21.4937 111.689 18.7852 112.382 17.9345C112.267 18.1811 108.984 21.0707 109.138 23.9053Z" fill="#DFDCE1"/>
<path fill-rule="evenodd" clip-rule="evenodd" d="M107.271 19.8271C107.656 20.4325 108.305 20.8114 110.738 19.3299C111.224 18.7926 111.711 18.2404 112.197 17.7787L112.079 17.7713C111.259 18.1139 109.145 20.3334 107.271 19.8271V19.8271Z" fill="#DFDDE2"/>
<path fill-rule="evenodd" clip-rule="evenodd" d="M113.597 15.5522C113.286 15.6817 112.081 16.1185 111.96 17.4744L111.701 17.6191C113.339 18.1655 114.587 16.926 114.834 16.6951C114.579 16.5312 114.318 16.3973 114.101 16.0049L113.886 16.1088C113.357 16.5491 112.72 16.9739 112.104 17.3854L114.012 16.4131C114.123 16.5373 114.25 16.6655 114.516 16.8287C113.36 17.6242 112.456 17.5846 112.016 17.4707C112.079 16.6868 112.546 16.0197 113.597 15.5522Z" fill="#C3BDC9"/>
<path fill-rule="evenodd" clip-rule="evenodd" d="M111.754 17.1657C111.718 17.331 111.676 17.5024 111.681 17.6275C111.159 17.8334 110.584 17.9971 109.936 18.105C109.9 18.1154 109.729 18.1811 109.664 18.0578C109.589 18.0097 109.506 17.9976 109.418 18.0053C109.403 17.9649 109.321 17.9828 109.31 17.945C110.895 17.67 111.619 17.2898 111.754 17.1657Z" fill="#CECAD5"/>
<path fill-rule="evenodd" clip-rule="evenodd" d="M109.978 15.9954C109.561 16.1992 107.821 17.1254 107.521 18.0106C108.369 18.2678 109.005 18.043 109.389 18.0067C109.372 17.9824 109.3 17.9871 109.292 17.9476C108.66 18.0391 107.904 18.0818 107.694 17.9582L107.852 17.8794C107.9 17.1282 109.694 16.1878 109.978 15.9954V15.9954Z" fill="#DFDDE1"/>
<path fill-rule="evenodd" clip-rule="evenodd" d="M107.951 17.8531C110.785 16.8018 112.159 15.9548 113.671 15.4443V15.4968C113.55 15.5736 112.557 15.8069 112.168 16.3732L107.951 17.8531Z" fill="#C3BDC9"/>
<path fill-rule="evenodd" clip-rule="evenodd" d="M113.179 15.6018C112.983 15.6842 112.792 15.7499 112.587 15.8589C111.661 15.7242 111.511 15.4927 111.115 15.3027L111.194 15.2712C111.34 15.3779 111.522 15.4614 111.696 15.5493C111.968 15.641 112.034 15.5314 111.765 15.4339C111.44 15.3303 111.236 15.1906 111.057 15.056C111.376 14.4371 112.127 14.1424 112.226 14.0956C111.809 14.3668 111.329 14.6069 111.204 15.0193C111.85 14.9233 112.536 14.8099 113.378 14.6257C113.441 14.7378 113.503 14.8485 113.624 15.0088L113.603 15.035L113.478 14.8828L111.22 15.056C111.846 15.4853 112.514 15.5262 113.179 15.6018Z" fill="#C3BDC9"/>
<path fill-rule="evenodd" clip-rule="evenodd" d="M107.378 14.7358C107.641 15.6093 109.827 15.3868 111.119 15.2962L111.186 15.2739C111.081 15.2009 110.99 15.1279 110.934 15.0549C110.396 14.942 107.953 15.4563 107.378 14.7358Z" fill="#DFDDE2"/>
<path fill-rule="evenodd" clip-rule="evenodd" d="M111.497 14.2571L111.523 14.2794C111.37 14.4087 111.217 14.521 111.064 14.7061C109.039 14.7107 107.764 13.9024 107.404 13.4333C107.905 13.0278 108.537 12.8853 109.204 12.8136C108.63 12.9842 107.959 13.0838 107.652 13.4482H107.508C108.448 14.5005 110.955 14.9697 111.497 14.2571Z" fill="#DFDDE2"/>
<path fill-rule="evenodd" clip-rule="evenodd" d="M107.778 13.4815C109.124 13.6713 110.438 13.8364 111.819 14.053C112.006 13.8885 112.341 13.7809 112.864 13.745C112.687 13.7403 112.54 13.7217 112.26 13.7635C110.72 13.7856 109.265 13.5933 107.778 13.4815Z" fill="#C3BDC9"/>
<path fill-rule="evenodd" clip-rule="evenodd" d="M113.549 13.2775C113.423 13.4096 113.356 13.601 113.308 13.8118C111.828 13.3281 111.587 12.3992 111.538 12.3052C112.427 11.6865 112.963 11.9169 113.701 11.9007C112.133 11.8277 111.721 12.2388 111.653 12.32C112.241 12.4816 112.658 12.6312 113.92 12.8396C113.799 12.9254 113.723 13.0048 113.671 13.0808C113.184 12.8814 112.283 12.6046 111.642 12.3535C111.743 12.7818 112.405 13.4267 112.96 13.5929C113.115 13.6341 113.285 13.7112 113.346 13.515C113.369 13.4341 113.492 13.3075 113.549 13.2775Z" fill="#C3BDC9"/>
<path fill-rule="evenodd" clip-rule="evenodd" d="M107.919 11.3293C108.198 11.6134 109.281 12.551 111.253 12.3163C111.328 12.5092 111.403 12.58 111.478 12.6577C110.955 12.5779 110.43 12.5198 109.897 12.5576C109.03 12.2964 108.239 11.9813 107.919 11.3293Z" fill="#DFDDE2"/>
<path fill-rule="evenodd" clip-rule="evenodd" d="M111.942 11.7374C111.972 11.7561 112.001 11.7765 112.042 11.7857C111.719 11.9139 111.469 12.0533 111.275 12.2013C110.28 11.8927 108.869 11.1578 108.36 10.2308C108.975 9.95584 110.02 10.0834 110.627 10.2308C109.954 10.2246 109.15 10.0874 108.749 10.3533L108.445 10.2457C108.566 10.6416 110.681 12.489 111.942 11.7374Z" fill="#DFDDE2"/>
<path fill-rule="evenodd" clip-rule="evenodd" d="M108.856 10.4052C110.119 10.8476 111.319 11.285 112.327 11.7077C112.641 11.6312 112.948 11.6527 113.253 11.704C113.183 11.6349 113.11 11.5746 113.049 11.4777L113.023 11.4888L113.149 11.6558C111.436 11.0705 110.17 10.7522 108.856 10.4052V10.4052Z" fill="#C3BDC9"/>
<path fill-rule="evenodd" clip-rule="evenodd" d="M112.831 10.9062C112.735 10.7241 112.643 10.5374 112.634 10.2679C112.16 10.4913 109.99 9.5503 109.475 8.36798C109.51 9.40904 111.362 10.2246 112.831 10.9062Z" fill="#DFDDE2"/>
<path fill-rule="evenodd" clip-rule="evenodd" d="M114.086 11.5556C114.021 11.6277 113.966 11.7145 113.883 11.7597C113.84 11.7869 113.801 11.7819 113.764 11.7597C112.999 11.2686 112.846 10.4168 112.864 10.242C113.452 10.1419 114.274 10.1554 115.405 10.858C115.157 10.8052 114.321 10.1885 112.982 10.3013C112.958 10.7641 113.31 11.6496 114.086 11.5556Z" fill="#C3BDC9"/>
<path fill-rule="evenodd" clip-rule="evenodd" d="M113.086 10.3793L114.442 11.3701C114.617 11.3791 114.793 11.3744 114.968 11.4591C114.978 11.4242 114.994 11.379 115.023 11.3144C114.276 11.0027 113.728 10.691 113.086 10.3793Z" fill="#C3BDC9"/>
<path fill-rule="evenodd" clip-rule="evenodd" d="M110.025 7.21558L110.387 7.43072C110.34 8.25221 111.794 9.84973 113.415 9.97597C113.15 10.0031 112.856 9.99615 112.645 10.0862C111.879 9.61105 111.363 9.10514 110.937 8.66399C110.847 8.67747 110.777 8.45273 110.628 8.52233C110.216 7.98912 110.053 7.57098 110.025 7.21558Z" fill="#DFDDE2"/>
<path fill-rule="evenodd" clip-rule="evenodd" d="M112.388 7.8506C111.846 7.64008 111.354 7.39872 110.413 7.436C111.874 8.49683 112.671 9.16526 113.745 9.997C114.235 10.0706 114.708 10.2888 115.185 10.4746C115.124 10.3434 115.076 10.2121 115.049 10.0809C115.057 10.1912 115.055 10.3014 115.123 10.4115C114.485 10.2277 111.861 8.35852 110.575 7.52517C111.06 7.37251 111.745 7.65684 112.388 7.8506Z" fill="#C4BECA"/>
<path fill-rule="evenodd" clip-rule="evenodd" d="M113.137 7.90302C112.548 7.39021 111.893 6.80693 111.744 5.98758C112.431 6.06931 113.773 6.53346 114.813 7.28381C113.845 6.72708 112.93 6.30993 112.184 6.32341C112.122 7.00196 112.746 7.449 113.137 7.90302Z" fill="#DFDDE2"/>
<path fill-rule="evenodd" clip-rule="evenodd" d="M112.231 6.34439L112.199 6.37067C113.194 7.10634 113.914 7.80769 114.698 8.51708C114.92 8.7036 114.889 8.90466 114.913 9.10485C114.994 9.01026 114.888 8.68797 115.061 8.65432C115.223 8.62315 115.845 8.94596 115.882 8.89494C114.415 8.24334 113.439 7.20248 112.231 6.34439Z" fill="#C3BDC9"/>
<path fill-rule="evenodd" clip-rule="evenodd" d="M115.353 10.2803C115.212 10.0536 114.995 9.35418 115.138 8.8844C117.026 9.29316 117.343 10.7813 117.375 11.078C117.097 9.99927 116.07 9.02016 115.363 9.14681C115.796 9.54478 116.323 10.3611 116.652 10.7107C116.496 10.7186 116.34 10.7264 116.238 10.7684C115.974 10.7388 115.851 10.792 115.714 10.8366C115.569 10.6676 115.516 10.5398 115.426 10.3958C115.617 10.6657 115.893 10.6247 116.181 10.5427C115.891 10.0133 115.601 9.63227 115.311 9.18355C115.168 9.29169 115.303 9.85626 115.353 10.2803Z" fill="#E0DEE4"/>
<path fill-rule="evenodd" clip-rule="evenodd" d="M116.113 8.26514C119.325 10.4006 119.567 13.9106 117.296 13.3347C120.021 13.0068 116.828 8.95301 116.113 8.26514Z" fill="#DFDDE2"/>
<path fill-rule="evenodd" clip-rule="evenodd" d="M116.261 10.78C116.525 10.6692 117.233 10.6815 117.265 11.7745L117.031 11.9489C117.036 11.6496 117.083 10.9743 116.261 10.78Z" fill="#C3BDC9"/>
<path fill-rule="evenodd" clip-rule="evenodd" d="M117.031 11.9675L117.276 11.7894C118.445 12.235 117.871 13.5007 117.057 13.2997C118.03 13.2001 117.82 11.9583 117.031 11.9675Z" fill="#C3BDC9"/>
<path fill-rule="evenodd" clip-rule="evenodd" d="M120.801 3.76046C120.96 4.03822 120.518 4.87191 121.279 4.74667C121.536 4.90912 121.767 4.82096 121.883 4.82163C122.387 4.64584 122.372 4.29774 122.404 4.20455C121.967 3.58822 122.457 3.47063 122.511 3.43167C122.781 3.46465 122.92 3.9644 122.557 4.12377C122.585 4.14683 122.63 4.14301 122.689 4.11224C122.684 4.9128 123.251 4.96859 123.645 4.83893C124.42 5.05112 124.044 4.15307 124.41 3.48363C123.994 4.21723 124.263 4.88418 123.656 4.79856C123.812 4.41983 123.4 4.12477 123.604 3.71433C123.288 3.98525 123.814 4.48614 123.604 4.74667C123.391 4.93426 123.183 4.77805 123.178 4.69478C123.091 4.42305 123.711 4.09306 123.34 3.59318C123.467 3.86377 123.423 3.98552 123.355 4.15756C123.287 4.32959 123.024 4.48554 123.144 4.82739C122.872 4.77356 122.731 4.45081 122.807 4.19617C122.881 3.94516 123.008 3.5244 122.534 3.38843C121.935 3.56878 122.239 4.04372 122.312 4.12833C122.459 4.28789 122.189 4.7694 121.851 4.76685C122.006 4.53045 121.823 4.48272 121.595 4.10647C121.579 4.30646 122.049 4.57658 121.779 4.73514C121.641 4.84576 121.446 4.78073 121.365 4.70055C121.212 4.52683 121.579 4.32436 121.512 3.99115C121.413 4.47977 121.272 4.45067 121.29 4.68325C121.114 4.73353 120.929 4.79736 120.872 4.45993C120.876 3.99645 120.867 3.71164 120.801 3.76046H120.801Z" fill="#DFA12F"/>
<path fill-rule="evenodd" clip-rule="evenodd" d="M123.915 5.64928L123.924 5.69829C122.995 5.7583 122.049 5.58023 121.138 5.55984V5.5166C122.06 5.53933 122.79 5.70171 123.915 5.64928H123.915Z" fill="#DFA12F"/>
<path fill-rule="evenodd" clip-rule="evenodd" d="M122.485 5.80783L122.482 5.84531C123.015 5.92885 123.55 6.01332 123.993 5.96935V5.92898C123.458 5.99569 122.976 5.88808 122.485 5.80783Z" fill="#DFA12F"/>
<path fill-rule="evenodd" clip-rule="evenodd" d="M121.21 5.04079C121.062 5.08799 121.132 5.3044 121.207 5.3032C121.377 5.31164 121.546 5.33591 121.716 5.30896C121.813 5.2635 121.844 5.09288 121.736 5.02349C121.558 5.0015 121.381 5.0017 121.21 5.04079ZM121.178 5.01196C121.471 4.95564 121.738 4.99178 121.889 5.02061C122.024 5.05654 122.024 5.2922 121.889 5.34067C121.736 5.35482 121.406 5.35133 121.181 5.33202C121.033 5.20913 121.11 5.0605 121.178 5.01196Z" fill="#E1A02F"/>
<path fill-rule="evenodd" clip-rule="evenodd" d="M122.231 5.27435C122.614 5.32463 122.937 5.3544 122.856 5.05519C122.747 5.05667 122.01 4.89113 122.231 5.27435ZM122.22 5.31471C122.168 5.26027 122.097 5.14261 122.237 4.99753C122.451 4.98238 122.669 4.99545 122.891 5.02636C123.094 5.11057 123.076 5.29205 122.908 5.36949C122.549 5.36914 122.358 5.34562 122.22 5.31471H122.22Z" fill="#E1A02F"/>
<path fill-rule="evenodd" clip-rule="evenodd" d="M123.264 5.32968C123.642 5.41094 123.959 5.4814 123.902 5.17648C123.793 5.16904 123.075 4.92977 123.264 5.32968ZM123.25 5.36897C123.202 5.31051 123.141 5.18741 123.293 5.0542C123.834 5.08222 123.743 5.08886 123.941 5.13613C124.137 5.23662 124.104 5.41604 123.931 5.47959C123.461 5.48958 123.38 5.41254 123.25 5.36897H123.25Z" fill="#E1A02F"/>
<path fill-rule="evenodd" clip-rule="evenodd" d="M116.387 11.291L115.786 13.0655C115.953 13.0624 116.096 13.074 116.387 13.0137C116.658 12.455 116.715 11.6636 116.387 11.291Z" fill="#C3BDC9"/>
<path fill-rule="evenodd" clip-rule="evenodd" d="M116.871 14.7515L115.785 13.0697C115.759 13.0344 115.511 13.7666 115.477 13.9927C115.611 14.3614 116.252 14.7424 116.871 14.7515Z" fill="white"/>
<path fill-rule="evenodd" clip-rule="evenodd" d="M116.693 13.4493C117.074 13.3126 117.147 13.0827 117.152 12.9446L116.388 13.0127C116.496 13.1496 116.607 13.2914 116.693 13.4493Z" fill="#C3BDC9"/>
<path fill-rule="evenodd" clip-rule="evenodd" d="M115.425 12.1755C115.272 12.0733 114.773 12.0376 114.669 12.1281L115.307 12.7191C115.333 12.5462 115.369 12.3463 115.425 12.1755Z" fill="#C3BDC9"/>
<path fill-rule="evenodd" clip-rule="evenodd" d="M113.983 13.9979L115.774 13.0737C115.814 13.0564 115.559 13.782 115.476 13.9949C115.263 14.1045 114.375 14.3168 113.983 13.9979V13.9979Z" fill="#C3BDC9"/>
</g>
</g>
<defs>
<linearGradient id="paint0_linear_807_129" x1="115.446" y1="14.1364" x2="118.995" y2="16.939" gradientUnits="userSpaceOnUse">
<stop stop-color="#C3BDC9"/>
<stop offset="1" stop-color="#C3BDC9" stop-opacity="0"/>
</linearGradient>
<linearGradient id="paint1_linear_807_129" x1="125.716" y1="21.1053" x2="114.977" y2="15.5584" gradientUnits="userSpaceOnUse">
<stop stop-color="#C3BDC9"/>
<stop offset="1" stop-color="#C3BDC9" stop-opacity="0"/>
</linearGradient>
<linearGradient id="paint2_linear_807_129" x1="131.302" y1="12.7575" x2="124.873" y2="17.6668" gradientUnits="userSpaceOnUse">
<stop stop-color="#C3BDC9"/>
<stop offset="1" stop-color="#C3BDC9" stop-opacity="0"/>
</linearGradient>
<clipPath id="clip0_807_129">
<rect width="139" height="39" fill="white"/>
</clipPath>
<clipPath id="clip1_807_129">
<rect width="33.0907" height="39" fill="white" transform="translate(106 1)"/>
</clipPath>
</defs>
</svg>
